<svg width="80" height="80" viewBox="0 0 80 80" fill="none" xmlns="http://www.w3.org/2000/svg">
<path d="M63.1001 48.1143H16.8987V53.1139H63.1001V48.1143Z" fill="#5C9EFF"/>
<path d="M63.1001 26.8857H16.8987V48.1138H63.1001V26.8857Z" fill="#94C1FF"/>
<path d="M56.8573 45.6168H23.1423L19.3962 43.1195V31.8813L23.1423 29.3838H56.8573L60.6033 31.8813V43.1195L56.8573 45.6168Z" fill="#D7E9FF"/>
<path d="M11.2799 76.8366C15.7625 76.8366 19.3964 73.2027 19.3964 68.72C19.3964 64.2374 15.7625 60.6035 11.2799 60.6035C6.79722 60.6035 3.16333 64.2374 3.16333 68.72C3.16333 73.2027 6.79722 76.8366 11.2799 76.8366Z" fill="#5C9EFF"/>
<path d="M11.2799 74.34C15.7625 74.34 19.3964 70.7061 19.3964 66.2235C19.3964 61.7408 15.7625 58.1069 11.2799 58.1069C6.79722 58.1069 3.16333 61.7408 3.16333 66.2235C3.16333 70.7061 6.79722 74.34 11.2799 74.34Z" fill="#94C1FF"/>
<path d="M4.41159 66.223C4.41159 61.9511 7.71376 58.4575 11.9037 58.138C11.697 58.1221 11.4903 58.1064 11.2794 58.1064C6.79674 58.1064 3.16284 61.7403 3.16284 66.223C3.16284 70.7055 6.79674 74.3394 11.2794 74.3394C11.4903 74.3394 11.697 74.3236 11.9037 74.3078C7.71376 73.9883 4.41159 70.4945 4.41159 66.223Z" fill="#D7E9FF"/>
<path d="M18.1473 66.223C18.1473 70.4945 14.8452 73.9883 10.655 74.3078C10.8617 74.3237 11.0685 74.3394 11.2794 74.3394C15.762 74.3394 19.3959 70.7055 19.3959 66.223C19.3959 61.7403 15.762 58.1064 11.2794 58.1064C11.0685 58.1064 10.8617 58.1222 10.655 58.138C14.8452 58.4575 18.1473 61.9511 18.1473 66.223Z" fill="#5C9EFF"/>
<path d="M68.72 21.8932C73.2027 21.8932 76.8366 18.2593 76.8366 13.7767C76.8366 9.29405 73.2027 5.66016 68.72 5.66016C64.2374 5.66016 60.6035 9.29405 60.6035 13.7767C60.6035 18.2593 64.2374 21.8932 68.72 21.8932Z" fill="#5C9EFF"/>
<path d="M68.7202 19.3961C73.2028 19.3961 76.8367 15.7622 76.8367 11.2796C76.8367 6.79698 73.2028 3.16309 68.7202 3.16309C64.2375 3.16309 60.6036 6.79698 60.6036 11.2796C60.6036 15.7622 64.2375 19.3961 68.7202 19.3961Z" fill="#94C1FF"/>
<path d="M61.8521 11.2796C61.8521 7.00791 65.1545 3.51433 69.3443 3.1948C69.1382 3.17887 68.9321 3.16309 68.7201 3.16309C64.2374 3.16309 60.6034 6.79713 60.6034 11.2796C60.6034 15.7623 64.2374 19.3961 68.7201 19.3961C68.9321 19.3961 69.1382 19.3802 69.3443 19.3644C65.1543 19.0451 61.8521 15.5513 61.8521 11.2796Z" fill="#D7E9FF"/>
<path d="M75.5879 11.2799C75.5879 15.5516 72.2855 19.0454 68.0957 19.3649C68.3029 19.3807 68.5102 19.3966 68.7201 19.3966C73.2026 19.3966 76.8364 15.7627 76.8364 11.2801C76.8364 6.79762 73.2026 3.16357 68.7201 3.16357C68.5102 3.16357 68.3029 3.17951 68.0957 3.19529C72.2855 3.51467 75.5879 7.0084 75.5879 11.2799Z" fill="#5C9EFF"/>
<path d="M28.1384 37.5C28.1384 38.5353 27.2987 39.3743 26.2634 39.3743C25.2281 39.3743 24.3884 38.5353 24.3884 37.5C24.3884 36.4634 25.2281 35.6245 26.2634 35.6245C27.2987 35.6245 28.1384 36.4636 28.1384 37.5Z" fill="#94C1FF"/>
<path d="M55.6109 37.5C55.6109 38.5353 54.7708 39.3743 53.7354 39.3743C52.7001 39.3743 51.86 38.5353 51.86 37.5C51.86 36.4634 52.7001 35.6245 53.7354 35.6245C54.7708 35.6245 55.6109 36.4636 55.6109 37.5Z" fill="#94C1FF"/>
<path d="M63.1001 26.8857H16.8987V28.1373H63.1001V26.8857Z" fill="#D7E9FF"/>
<path d="M63.1001 46.8623H16.8987V48.2196H63.1001V46.8623Z" fill="#5C9EFF"/>
<path d="M18.1468 28.1377H16.8987V46.8626H18.1468V28.1377Z" fill="#D7E9FF"/>
<path d="M63.1002 28.1377H61.8514V46.8626H63.1002V28.1377Z" fill="#5C9EFF"/>
<path d="M48.1171 26.8857H31.8828V48.1138H48.1171V26.8857Z" fill="white"/>
<path d="M48.1171 48.1143H31.8828V53.1139H48.1171V48.1143Z" fill="#D7E9FF"/>
<path d="M68.72 20.0209C63.9007 20.0209 59.9791 16.0992 59.9791 11.28C59.9791 6.46077 63.9008 2.53906 68.72 2.53906C73.5392 2.53906 77.4608 6.46077 77.4608 11.28C77.4608 16.0992 73.5391 20.0209 68.72 20.0209ZM68.72 3.78765C64.5886 3.78765 61.2277 7.14842 61.2277 11.2798C61.2277 15.4112 64.5886 18.7721 68.72 18.7721C72.8513 18.7721 76.212 15.4114 76.212 11.2798C76.212 7.14826 72.8513 3.78765 68.72 3.78765Z" fill="#CBC103"/>
<path d="M68.72 22.5181C63.9007 22.5181 59.9791 18.5964 59.9791 13.7772C59.9791 13.4322 60.2583 13.1528 60.6033 13.1528C60.9485 13.1528 61.2277 13.4322 61.2277 13.7772C61.2277 17.9086 64.5886 21.2695 68.72 21.2695C72.8513 21.2695 76.212 17.9088 76.212 13.7772C76.212 13.4322 76.4914 13.1528 76.8364 13.1528C77.1816 13.1528 77.4608 13.4322 77.4608 13.7772C77.4608 18.5966 73.5391 22.5181 68.72 22.5181Z" fill="#CBC103"/>
<path d="M68.72 15.026C68.3748 15.026 68.0956 14.7468 68.0956 14.4016V8.15806C68.0956 7.81307 68.3748 7.53369 68.72 7.53369C69.065 7.53369 69.3442 7.81291 69.3442 8.15806V14.4016C69.3442 14.7468 69.065 15.026 68.72 15.026Z" fill="#CBC103"/>
<path d="M76.8365 14.4015C76.4915 14.4015 76.2122 14.1223 76.2122 13.7771V11.2796C76.2122 10.9346 76.4915 10.6553 76.8365 10.6553C77.1817 10.6553 77.4609 10.9346 77.4609 11.2796V13.777C77.4609 14.1223 77.1817 14.4015 76.8365 14.4015Z" fill="#CBC103"/>
<path d="M60.6031 14.4015C60.2581 14.4015 59.9789 14.1223 59.9789 13.7771V11.2796C59.9789 10.9346 60.2581 10.6553 60.6031 10.6553C60.9482 10.6553 61.2275 10.9346 61.2275 11.2796V13.777C61.2275 14.1223 60.9482 14.4015 60.6031 14.4015Z" fill="#CBC103"/>
<path d="M68.72 22.5181C68.3748 22.5181 68.0956 22.2388 68.0956 21.8937V19.3963C68.0956 19.0513 68.3748 18.772 68.72 18.772C69.065 18.772 69.3442 19.0512 69.3442 19.3963V21.8937C69.3442 22.2388 69.065 22.5181 68.72 22.5181Z" fill="#CBC103"/>
<path d="M73.0903 21.2391C72.7452 21.2391 72.4659 20.9599 72.4659 20.6148V18.1185C72.4659 17.7734 72.7452 17.4941 73.0903 17.4941C73.4355 17.4941 73.7147 17.7734 73.7147 18.1185V20.6148C73.7147 20.9599 73.4355 21.2391 73.0903 21.2391Z" fill="#CBC103"/>
<path d="M64.3858 21.2389C64.0407 21.2389 63.7615 20.9597 63.7615 20.6145V18.1439C63.7615 17.7987 64.0407 17.5195 64.3858 17.5195C64.7308 17.5195 65.0101 17.7987 65.0101 18.1439V20.6145C65.0101 20.9597 64.7308 21.2389 64.3858 21.2389Z" fill="#CBC103"/>
<path d="M30.634 46.2411H21.8937C21.5487 46.2411 21.2693 45.9619 21.2693 45.6167C21.2693 44.5839 20.4292 43.7438 19.3963 43.7438C19.0512 43.7438 18.772 43.4645 18.772 43.1194V31.8811C18.772 31.5361 19.0512 31.2568 19.3963 31.2568C20.4292 31.2568 21.2693 30.4166 21.2693 29.3837C21.2693 29.0387 21.5487 28.7593 21.8937 28.7593H30.634C30.979 28.7593 31.2583 29.0385 31.2583 29.3837C31.2583 29.7288 30.9791 30.008 30.634 30.008H22.4551C22.2063 31.2299 21.2418 32.1933 20.0206 32.4433V42.5572C21.2418 42.8072 22.2063 43.7706 22.4551 44.9925H30.634C30.979 44.9925 31.2583 45.2717 31.2583 45.6167C31.2582 45.9619 30.979 46.2411 30.634 46.2411Z" fill="#CBC103"/>
<path d="M30.6339 51.2359H16.8988C16.5536 51.2359 16.2744 50.9567 16.2744 50.6117C16.2744 50.2665 16.5536 49.9873 16.8988 49.9873H30.6339C30.9789 49.9873 31.2583 50.2665 31.2583 50.6117C31.2581 50.9567 30.9789 51.2359 30.6339 51.2359Z" fill="#CBC103"/>
<path d="M30.6339 53.7383H16.8988C16.5536 53.7383 16.2744 53.4591 16.2744 53.114C16.2744 52.769 16.5536 52.4897 16.8988 52.4897H30.6339C30.9789 52.4897 31.2583 52.769 31.2583 53.114C31.2581 53.4591 30.9789 53.7383 30.6339 53.7383Z" fill="#CBC103"/>
<path d="M31.8824 53.738C31.5374 53.738 31.2581 53.4588 31.2581 53.1136V26.8861C31.2581 26.5411 31.5373 26.2617 31.8824 26.2617C32.2276 26.2617 32.5068 26.5409 32.5068 26.8861V53.1136C32.5068 53.4588 32.2276 53.738 31.8824 53.738Z" fill="#CBC103"/>
<path d="M30.6339 48.7383H16.8988C16.5536 48.7383 16.2744 48.4591 16.2744 48.114C16.2744 47.769 16.5536 47.4897 16.8988 47.4897H30.6339C30.9789 47.4897 31.2583 47.769 31.2583 48.114C31.2581 48.4591 30.9789 48.7383 30.6339 48.7383Z" fill="#CBC103"/>
<path d="M16.8985 48.7384C16.5534 48.7384 16.2742 48.4591 16.2742 48.114V26.8861C16.2742 26.5411 16.5534 26.2617 16.8985 26.2617C17.2435 26.2617 17.5229 26.5409 17.5229 26.8861V48.114C17.5229 48.4591 17.2437 48.7384 16.8985 48.7384Z" fill="#CBC103"/>
<path d="M30.6339 27.5105H16.8988C16.5536 27.5105 16.2744 27.2312 16.2744 26.8861C16.2744 26.5409 16.5536 26.2617 16.8988 26.2617H30.6339C30.9789 26.2617 31.2583 26.5409 31.2583 26.8861C31.2583 27.2312 30.9789 27.5105 30.6339 27.5105Z" fill="#CBC103"/>
<path d="M58.106 46.2411H49.3651C49.0199 46.2411 48.7407 45.9619 48.7407 45.6167C48.7407 45.2717 49.0199 44.9925 49.3651 44.9925H57.5438C57.794 43.7706 58.7572 42.8072 59.9791 42.5572V32.4433C58.7572 32.1933 57.794 31.2299 57.5438 30.008H49.3651C49.0199 30.008 48.7407 29.7288 48.7407 29.3837C48.7407 29.0385 49.0199 28.7593 49.3651 28.7593H58.106C58.451 28.7593 58.7302 29.0385 58.7302 29.3837C58.7302 30.4165 59.5705 31.2568 60.6032 31.2568C60.9483 31.2568 61.2276 31.536 61.2276 31.8811V43.1194C61.2276 43.4645 60.9483 43.7438 60.6032 43.7438C59.5705 43.7438 58.7302 44.5839 58.7302 45.6167C58.7302 45.9619 58.451 46.2411 58.106 46.2411Z" fill="#CBC103"/>
<path d="M63.1008 51.2359H49.3651C49.0199 51.2359 48.7407 50.9567 48.7407 50.6117C48.7407 50.2665 49.0199 49.9873 49.3651 49.9873H63.1008C63.4458 49.9873 63.725 50.2665 63.725 50.6117C63.725 50.9567 63.4458 51.2359 63.1008 51.2359Z" fill="#CBC103"/>
<path d="M63.1008 53.7383H49.3651C49.0199 53.7383 48.7407 53.4591 48.7407 53.114C48.7407 52.769 49.0199 52.4897 49.3651 52.4897H63.1008C63.4458 52.4897 63.725 52.769 63.725 53.114C63.725 53.4591 63.4458 53.7383 63.1008 53.7383Z" fill="#CBC103"/>
<path d="M48.1162 53.738C47.7712 53.738 47.4919 53.4588 47.4919 53.1136V26.8861C47.4919 26.5411 47.7712 26.2617 48.1162 26.2617C48.4613 26.2617 48.7405 26.5409 48.7405 26.8861V53.1136C48.7405 53.4588 48.4613 53.738 48.1162 53.738Z" fill="#CBC103"/>
<path d="M63.1008 48.7383H49.3651C49.0199 48.7383 48.7407 48.4591 48.7407 48.114C48.7407 47.769 49.0199 47.4897 49.3651 47.4897H63.1008C63.4458 47.4897 63.725 47.769 63.725 48.114C63.725 48.4591 63.4458 48.7383 63.1008 48.7383Z" fill="#CBC103"/>
<path d="M63.1008 48.7384C62.7557 48.7384 62.4764 48.4591 62.4764 48.114V26.8861C62.4764 26.5411 62.7557 26.2617 63.1008 26.2617C63.4458 26.2617 63.725 26.5409 63.725 26.8861V48.114C63.725 48.4591 63.4458 48.7384 63.1008 48.7384Z" fill="#CBC103"/>
<path d="M63.1008 27.5105H49.3651C49.0199 27.5105 48.7407 27.2312 48.7407 26.8861C48.7407 26.5409 49.0199 26.2617 49.3651 26.2617H63.1008C63.4458 26.2617 63.725 26.5409 63.725 26.8861C63.725 27.2312 63.4458 27.5105 63.1008 27.5105Z" fill="#CBC103"/>
<path d="M48.1161 27.5105H31.8824C31.5374 27.5105 31.2581 27.2312 31.2581 26.8861C31.2581 26.5409 31.5373 26.2617 31.8824 26.2617H48.1161C48.4613 26.2617 48.7405 26.5409 48.7405 26.8861C48.7405 27.2312 48.4613 27.5105 48.1161 27.5105Z" fill="#CBC103"/>
<path d="M45.6188 48.7383H34.3797C34.0347 48.7383 33.7554 48.4591 33.7554 48.114C33.7554 47.769 34.0347 47.4897 34.3797 47.4897H45.6188C45.9639 47.4897 46.2431 47.769 46.2431 48.114C46.2431 48.4591 45.9639 48.7383 45.6188 48.7383Z" fill="#CBC103"/>
<path d="M48.1161 53.7383H31.8824C31.5374 53.7383 31.2581 53.4591 31.2581 53.114C31.2581 52.769 31.5373 52.4897 31.8824 52.4897H48.1161C48.4613 52.4897 48.7405 52.769 48.7405 53.114C48.7405 53.4591 48.4613 53.7383 48.1161 53.7383Z" fill="#CBC103"/>
<path d="M26.2632 39.9974C24.8865 39.9974 23.7664 38.8766 23.7664 37.4999C23.7664 36.1232 24.8865 35.0024 26.2632 35.0024C27.6406 35.0024 28.7606 36.1232 28.7606 37.4999C28.7606 38.8766 27.6406 39.9974 26.2632 39.9974ZM26.2632 36.2513C25.5748 36.2513 25.0151 36.811 25.0151 37.5001C25.0151 38.1891 25.5748 38.7488 26.2632 38.7488C26.9517 38.7488 27.512 38.1891 27.512 37.5001C27.512 36.811 26.9517 36.2513 26.2632 36.2513Z" fill="#CBC103"/>
<path d="M53.7354 39.9974C52.3585 39.9974 51.238 38.8766 51.238 37.4999C51.238 36.1232 52.3587 35.0024 53.7354 35.0024C55.1121 35.0024 56.2327 36.1232 56.2327 37.4999C56.2327 38.8766 55.1122 39.9974 53.7354 39.9974ZM53.7354 36.2513C53.0465 36.2513 52.4868 36.811 52.4868 37.5001C52.4868 38.1891 53.0465 38.7488 53.7354 38.7488C54.4243 38.7488 54.984 38.1891 54.984 37.5001C54.984 36.811 54.4243 36.2513 53.7354 36.2513Z" fill="#CBC103"/>
<path d="M11.2795 74.9636C6.45965 74.9636 2.53857 71.0419 2.53857 66.2228C2.53857 61.4035 6.45981 57.4819 11.2795 57.4819C16.0991 57.4819 20.0204 61.4036 20.0204 66.2228C20.0205 71.0419 16.0993 74.9636 11.2795 74.9636ZM11.2795 58.7304C7.14809 58.7304 3.78732 62.0913 3.78732 66.2227C3.78732 70.3541 7.14809 73.7148 11.2795 73.7148C15.4109 73.7148 18.7716 70.3541 18.7716 66.2227C18.7716 62.0913 15.411 58.7304 11.2795 58.7304Z" fill="#CBC103"/>
<path d="M11.2795 77.4613C6.45965 77.4613 2.53857 73.5396 2.53857 68.7206C2.53857 68.3754 2.81795 68.0962 3.16295 68.0962C3.5081 68.0962 3.78732 68.3754 3.78732 68.7206C3.78732 72.8518 7.14809 76.2127 11.2795 76.2127C15.4109 76.2127 18.7716 72.8518 18.7716 68.7206C18.7716 68.3754 19.0509 68.0962 19.396 68.0962C19.7412 68.0962 20.0204 68.3754 20.0204 68.7206C20.0205 73.5396 16.0993 77.4613 11.2795 77.4613Z" fill="#CBC103"/>
<path d="M11.2794 69.9687C10.9344 69.9687 10.655 69.6895 10.655 69.3444V63.1009C10.655 62.7558 10.9344 62.4766 11.2794 62.4766C11.6246 62.4766 11.9038 62.7558 11.9038 63.1009V69.3444C11.9039 69.6895 11.6246 69.9687 11.2794 69.9687Z" fill="#CBC103"/>
<path d="M19.3961 69.3446C19.0509 69.3446 18.7717 69.0653 18.7717 68.7203V66.223C18.7717 65.8779 19.0509 65.5986 19.3961 65.5986C19.7413 65.5986 20.0205 65.8779 20.0205 66.223V68.7203C20.0205 69.0653 19.7413 69.3446 19.3961 69.3446Z" fill="#CBC103"/>
<path d="M3.16295 69.3446C2.81795 69.3446 2.53857 69.0653 2.53857 68.7203V66.223C2.53857 65.8779 2.81795 65.5986 3.16295 65.5986C3.5081 65.5986 3.78732 65.8779 3.78732 66.223V68.7203C3.78732 69.0653 3.5081 69.3446 3.16295 69.3446Z" fill="#CBC103"/>
<path d="M11.2794 77.4613C10.9344 77.4613 10.655 77.182 10.655 76.837V74.3395C10.655 73.9945 10.9344 73.7153 11.2794 73.7153C11.6246 73.7153 11.9038 73.9945 11.9038 74.3395V76.837C11.9039 77.182 11.6246 77.4613 11.2794 77.4613Z" fill="#CBC103"/>
<path d="M15.65 76.1806C15.305 76.1806 15.0256 75.9014 15.0256 75.5562V73.0612C15.0256 72.7162 15.3049 72.437 15.65 72.437C15.9952 72.437 16.2744 72.7162 16.2744 73.0612V75.5562C16.2742 75.9014 15.995 76.1806 15.65 76.1806Z" fill="#CBC103"/>
<path d="M6.94566 76.1808C6.60066 76.1808 6.32129 75.9016 6.32129 75.5564V73.0858C6.32129 72.7406 6.60051 72.4614 6.94566 72.4614C7.29082 72.4614 7.57003 72.7406 7.57003 73.0858V75.5564C7.56988 75.9016 7.29066 76.1808 6.94566 76.1808Z" fill="#CBC103"/>
<path d="M4.45278 57.4868C4.21872 57.4868 3.99497 57.3551 3.88825 57.1294C-3.3339 41.9047 -0.176729 23.6657 11.7451 11.7445C24.1224 -0.63034 42.867 -3.53751 58.3941 4.51199C58.7001 4.67167 58.8196 5.04855 58.6612 5.35464C58.5002 5.65948 58.1257 5.77901 57.8184 5.62167C42.779 -2.17674 24.618 0.63903 12.6279 12.6273C1.07858 24.1766 -1.98032 41.8462 5.01622 56.5954C5.16434 56.9063 5.03153 57.2782 4.71997 57.4269C4.63325 57.4673 4.54247 57.4868 4.45278 57.4868Z" fill="#CBC103"/>
<path d="M58.106 5.69133C57.9035 5.69133 57.7035 5.59258 57.584 5.40961L56.3354 3.50602C56.1463 3.21696 56.2268 2.8304 56.5144 2.6415C56.8022 2.45244 57.1888 2.53056 57.379 2.82071L58.6277 4.7243C58.8166 5.01336 58.7361 5.39977 58.4485 5.58883C58.3425 5.65836 58.2241 5.69133 58.106 5.69133Z" fill="#CBC103"/>
<path d="M55.6084 6.28486C55.3255 6.28486 55.0695 6.09221 55.0011 5.80439C54.9206 5.46908 55.128 5.13252 55.4645 5.05315L57.9619 4.45924C58.2911 4.37268 58.6327 4.58612 58.7131 4.92268C58.7937 5.25799 58.5862 5.59455 58.2497 5.67377L55.7523 6.26767C55.7048 6.27986 55.6559 6.28486 55.6084 6.28486Z" fill="#CBC103"/>
<path d="M40.0266 79.9999C33.7715 79.9999 27.4609 78.5219 21.6077 75.488C21.3016 75.3283 21.182 74.9513 21.3406 74.6452C21.4986 74.3404 21.8759 74.2185 22.182 74.3782C37.2249 82.1789 55.3842 79.3596 67.3737 67.3726C78.9218 55.8232 81.9802 38.1549 74.9843 23.4046C74.8368 23.0937 74.9696 22.7218 75.2818 22.5731C75.5867 22.4279 75.9646 22.5571 76.1134 22.8706C83.3337 38.0952 80.1766 56.3343 68.2565 68.2555C60.5461 75.9649 50.3638 79.9999 40.0266 79.9999Z" fill="#CBC103"/>
<path d="M23.1427 77.4613C22.9391 77.4613 22.7396 77.3625 22.6202 77.1796L21.3727 75.276C21.1838 74.9869 21.2641 74.6005 21.5526 74.4114C21.8416 74.2211 22.2288 74.303 22.4166 74.5906L23.6641 76.4942C23.8532 76.7833 23.7726 77.1697 23.4843 77.3588C23.3787 77.4285 23.2598 77.4613 23.1427 77.4613Z" fill="#CBC103"/>
<path d="M21.8941 75.5576C21.6117 75.5576 21.3558 75.3651 21.2874 75.0786C21.2075 74.742 21.4147 74.4053 21.7502 74.3261L24.2464 73.7323C24.5842 73.6529 24.9183 73.8592 24.9983 74.1945C25.0781 74.5309 24.871 74.8676 24.5355 74.9467L22.0392 75.5406C21.9905 75.5528 21.9424 75.5576 21.8941 75.5576Z" fill="#CBC103"/>
</svg>
