<svg width="80" height="80" viewBox="0 0 80 80" fill="none" xmlns="http://www.w3.org/2000/svg">
<g clip-path="url(#clip0_7_705)">
<path d="M57.7253 28.5754C58.4504 27.8381 58.4504 26.6504 57.7253 25.926L55.9505 24.1505C55.2254 23.4261 54.0389 23.4261 53.3005 24.1505C52.5632 24.8885 52.5632 26.0756 53.3005 26.8133L55.0632 28.5754C55.8003 29.3132 56.9881 29.3132 57.7253 28.5754ZM55.5136 2.50146L79.3752 26.3629L49.9706 55.8918L49.8131 52.7998L48.1261 20.0006C48.0517 17.9382 46.3013 16.2508 44.2385 16.2508H41.7726L55.5136 2.50146ZM59.488 24.1505C60.2253 24.8885 61.4131 24.8885 62.138 24.1505C62.8753 23.4261 62.8753 22.2383 62.138 21.5012L60.3753 19.7385C59.638 19.0012 58.4503 19.0012 57.7253 19.7385C56.9881 20.4636 56.9881 21.6507 57.7253 22.3885L59.488 24.1505Z" fill="#94C1FF"/>
<path d="M49.7922 52.3937L45.3528 16.2511L53.1429 8.39813L57.2761 7.80176L74.0747 24.601L73.2839 28.9289L49.7922 52.3937Z" fill="#D7E9FF"/>
<path d="M50.6248 19.9104C50.5016 16.5243 47.6525 13.7705 44.2676 13.7539L41.7726 16.2508H44.2385C44.6351 16.2508 45.0135 16.3301 45.3773 16.4449L49.7924 52.391L49.8132 52.7998L49.9707 55.8918L52.3472 53.5054L50.6248 19.9104Z" fill="#5C9EFF"/>
<path d="M50.6247 19.9104C50.5381 17.5448 49.1087 15.5118 47.1081 14.481L45.3528 16.2508L45.3772 16.4449L49.7924 52.3911V52.3936L52.1689 50.0206L50.6247 19.9104Z" fill="#94C1FF"/>
<path d="M60.3752 19.7385L62.1379 21.5012C62.8752 22.2385 62.8752 23.4263 62.1379 24.1506C61.4128 24.8885 60.2252 24.8885 59.4879 24.1506L57.7252 22.3885C56.9879 21.6506 56.9879 20.4635 57.7252 19.7385C58.4503 19.0012 59.6381 19.0012 60.3752 19.7385Z" fill="#D7E9FF"/>
<path d="M55.9504 24.1508L57.7253 25.9263C58.4504 26.6508 58.4504 27.8385 57.7253 28.5756C56.988 29.3136 55.8002 29.3136 55.0631 28.5756L53.3004 26.8136C52.5631 26.0757 52.5631 24.8885 53.3004 24.1508C54.039 23.4263 55.2255 23.4263 55.9504 24.1508Z" fill="#D7E9FF"/>
<path d="M65.0005 77.4985C60.8503 77.4985 57.5009 74.1356 57.5009 69.9989V67.499C57.5009 71.6358 60.8503 74.9987 65.0005 74.9987C69.1373 74.9987 72.5002 71.6358 72.5002 67.499V69.9989C72.5002 74.1356 69.1373 77.4985 65.0005 77.4985Z" fill="#5C9EFF"/>
<path d="M61.1029 73.8977C58.9435 72.5806 57.5009 70.2089 57.5009 67.499V69.9989C57.5009 74.1356 60.8503 77.4985 65.0005 77.4985C65.4266 77.4985 65.8415 77.4547 66.2491 77.3862C64.0654 77.019 62.2113 75.7142 61.1029 73.8977Z" fill="#94C1FF"/>
<path d="M77.5 50V52.4998C77.5 55.2621 75.2625 57.4997 72.5002 57.4997C69.7379 57.4997 67.5004 55.2621 67.5004 52.4998V50C67.5004 52.7623 69.7379 54.9998 72.5002 54.9998C75.2625 54.9998 77.5 52.7623 77.5 50Z" fill="#5C9EFF"/>
<path d="M70.4496 54.5501C68.7138 53.7664 67.5006 52.0295 67.5006 49.9995V52.4993C67.5006 55.2616 69.7381 57.4992 72.5004 57.4992C72.9349 57.4992 73.3488 57.426 73.7504 57.3221C72.2746 56.9414 71.066 55.9149 70.4496 54.5501Z" fill="#94C1FF"/>
<path d="M72.5002 45C75.2625 45 77.5 47.2374 77.5 49.9998C77.5 52.7621 75.2625 54.9997 72.5002 54.9997C69.7379 54.9997 67.5004 52.7621 67.5004 49.9998C67.5004 47.2372 69.7379 45 72.5002 45Z" fill="#94C1FF"/>
<path d="M70.0004 49.9998C70.0004 47.672 71.597 45.7335 73.7504 45.1769C73.3488 45.0732 72.9349 45 72.5004 45C69.7381 45 67.5006 47.2374 67.5006 49.9998C67.5006 52.7621 69.7381 54.9997 72.5004 54.9997C72.9349 54.9997 73.3488 54.9263 73.7504 54.8226C71.597 54.266 70.0004 52.3275 70.0004 49.9998Z" fill="#D7E9FF"/>
<path d="M72.5002 67.4992C72.5002 71.6359 69.1373 74.9988 65.0005 74.9988C60.8503 74.9988 57.5009 71.6359 57.5009 67.4992C57.5009 63.3624 60.8503 59.9995 65.0005 59.9995C69.1373 59.9995 72.5002 63.3624 72.5002 67.4992Z" fill="#94C1FF"/>
<path d="M60.0007 67.4992C60.0007 63.7883 62.6982 60.7087 66.2491 60.1118C65.8415 60.0435 65.4264 59.9995 65.0005 59.9995C60.8503 59.9995 57.5009 63.3624 57.5009 67.4992C57.5009 71.6359 60.8503 74.9988 65.0005 74.9988C65.4266 74.9988 65.8415 74.9549 66.2491 74.8865C62.6982 74.2897 60.0007 71.21 60.0007 67.4992Z" fill="#D7E9FF"/>
<path d="M43.8393 21.2505L44.0395 29.0626H7.35278L7.59083 21.2505H43.8393Z" fill="#94C1FF"/>
<path d="M4.23983 72.4986H47.014C48.9889 72.4986 50.5757 70.9363 50.6259 68.9868V72.4986C50.7005 74.5614 49.0757 76.2486 47.014 76.2486H4.23983C2.17809 76.2486 0.553499 74.5616 0.627948 72.4986V68.9868C0.677998 70.9363 2.25269 72.4986 4.23983 72.4986Z" fill="#94C1FF"/>
<path d="M34.577 51.2495L34.627 57.4993H27.1895V51.2495H34.577Z" fill="white"/>
<path d="M34.6392 59.999L34.6891 66.2488H27.1895V59.999H34.6392Z" fill="white"/>
<path d="M44.6642 42.5L45.3137 66.2493H37.1891L37.0267 42.5H44.6642Z" fill="#5C9EFF"/>
<path d="M44.4263 33.7505L44.6143 40.0001H37.0145L36.9645 33.7505H44.4263Z" fill="#5C9EFF"/>
<path d="M34.5268 42.5L34.5648 48.7498H27.1895V42.5H34.5268Z" fill="white"/>
<path d="M34.4647 33.7896L34.5147 40.0393H27.1895V33.7896H34.4647Z" fill="#5C9EFF"/>
<path d="M24.6897 33.7896V40.0393H17.4402L17.6648 33.7896H24.6897Z" fill="#5C9EFF"/>
<path d="M15.1649 33.7505L14.9403 40.0001H7.34058L7.70297 33.7505H15.1649Z" fill="#5C9EFF"/>
<path d="M24.6895 42.5V48.7498H17.1519L17.3777 42.5H24.6895Z" fill="white"/>
<path d="M14.8781 42.5L14.6522 48.7498H6.87793L7.24032 42.5H14.8781Z" fill="white"/>
<path d="M24.6897 51.25V57.4998H16.853L17.0776 51.25H24.6897Z" fill="white"/>
<path d="M14.5778 51.25L14.3532 57.4998H6.40308L6.76562 51.25H14.5778Z" fill="white"/>
<path d="M14.2897 59.9995L14.0651 66.2115C14.0651 66.2249 5.94043 66.2493 5.94043 66.2493L6.30298 59.9995H14.2897Z" fill="white"/>
<path d="M24.6898 59.9995V66.2493H16.5652L16.7898 59.9995H24.6898Z" fill="white"/>
<path d="M37.189 66.2491H45.3137L44.6643 42.4998H37.0267L37.189 66.2491ZM44.6143 39.9999L44.4263 33.7503H36.9644L37.0145 39.9999H44.6143ZM5.94025 66.2491C5.94025 66.2491 14.0649 66.2247 14.0649 66.2112L14.2895 59.9993H6.3028L5.94025 66.2491ZM14.353 57.4994L14.5776 51.2496H6.76545L6.4029 57.4994H14.353ZM14.6521 48.7496L14.8779 42.4998H7.24014L6.87775 48.7496H14.6521ZM14.9402 39.9999L15.1648 33.7503H7.70279L7.3404 39.9999H14.9402ZM24.6896 39.9999V33.7503H17.6646L17.44 39.9999H24.6896ZM24.6896 48.7496V42.4998H17.3777L17.1519 48.7496H24.6896ZM24.6896 57.4994V51.2496H17.0776L16.853 57.4994H24.6896ZM24.6896 66.2491V59.9993H16.7895L16.5649 66.2491H24.6896ZM34.5147 39.9999L34.4646 33.7503H27.1894V39.9999H34.5147ZM34.5647 48.7496L34.5269 42.4998H27.1896V48.7496H34.5647ZM34.627 57.4994L34.5769 51.2496H27.1896V57.4994H34.627ZM34.6392 59.9993H27.1896V66.2491H34.6892L34.6392 59.9993ZM50.6259 68.7491C50.6259 68.8235 50.6259 68.9114 50.6259 68.987C50.5758 70.9364 48.9889 72.4987 47.014 72.4987H4.23981C2.25252 72.4987 0.67798 70.9364 0.62793 68.987C0.62793 68.9114 0.62793 68.8234 0.62793 68.7491L3.12776 20.0008C3.20221 17.9384 4.95271 16.251 7.01554 16.251H44.2383C46.3011 16.251 48.0516 17.9386 48.1259 20.0008L49.8129 52.8L50.6259 68.7491ZM44.0393 29.0628L43.8391 21.2506H7.59065L7.3526 29.0628H44.0393Z" fill="#D7E9FF"/>
<path d="M14.9855 38.7485H7.41252L7.34058 40.0002H14.9403L14.9855 38.7485Z" fill="#2287FF"/>
<path d="M24.6897 38.7485H17.4854L17.4402 40.0002H24.6897V38.7485Z" fill="#2287FF"/>
<path d="M15.1648 33.7505H7.70284L7.62964 35.002H15.1196L15.1648 33.7505Z" fill="#94C1FF"/>
<path d="M14.6974 47.4976H6.94988L6.87793 48.7497H14.6522L14.6974 47.4976Z" fill="#D7E9FF"/>
<path d="M14.3984 56.2471H6.47502L6.40308 57.4996H14.3532L14.3984 56.2471Z" fill="#D7E9FF"/>
<path d="M14.109 64.9966H6.01363L5.94043 66.2491L14.0651 66.2112L14.109 64.9966Z" fill="#D7E9FF"/>
<path d="M24.6898 64.9966H16.6104L16.5652 66.2491L24.6898 66.2112V64.9966Z" fill="#D7E9FF"/>
<path d="M34.6797 64.9966H27.1897V66.2491H34.6894L34.6797 64.9966Z" fill="#D7E9FF"/>
<path d="M24.6897 56.2471H16.8982L16.853 57.4996H24.6897V56.2471Z" fill="#D7E9FF"/>
<path d="M34.6174 56.2471H27.1897V57.4996H34.6273L34.6174 56.2471Z" fill="#D7E9FF"/>
<path d="M24.6895 47.4976H17.1972L17.1519 48.7497H24.6895V47.4976Z" fill="#D7E9FF"/>
<path d="M34.565 47.4976H27.1897L27.1714 48.7497H34.565V47.4976Z" fill="#D7E9FF"/>
<path d="M24.6896 33.7505H17.6647L17.6196 35.0411H24.6896V33.7505Z" fill="#94C1FF"/>
<path d="M34.5013 38.7485H27.1895V40.0002H34.5147L34.5013 38.7485Z" fill="#2287FF"/>
<path d="M34.4647 33.7505H27.1895V35.0411H34.4744L34.4647 33.7505Z" fill="#94C1FF"/>
<path d="M44.5764 38.7485H36.9645L37.0145 40.0002H44.6143L44.5764 38.7485Z" fill="#2287FF"/>
<path d="M44.4263 33.7505H36.9645L36.9743 35.0411H44.4654L44.4263 33.7505Z" fill="#94C1FF"/>
<path d="M44.6642 42.5H37.0267L37.0352 43.7916H44.6997L44.6642 42.5Z" fill="#94C1FF"/>
<path d="M45.2794 64.9966H37.1804L37.189 66.2491H45.3528L45.2794 64.9966Z" fill="#2287FF"/>
<path d="M52.0138 20.8042C51.6683 20.8042 51.3827 20.5247 51.3827 20.1792C51.3827 19.8337 51.6561 19.5542 52.0003 19.5542H52.0138C52.3579 19.5542 52.6386 19.8337 52.6386 20.1792C52.6388 20.5245 52.358 20.8042 52.0138 20.8042Z" fill="#CBC103"/>
<path d="M53.7814 19.0366C53.4359 19.0366 53.1503 18.7571 53.1503 18.4116C53.1503 18.0661 53.4237 17.7866 53.7679 17.7866H53.7814C54.1255 17.7866 54.4062 18.0661 54.4062 18.4116C54.4062 18.7571 54.1255 19.0366 53.7814 19.0366Z" fill="#CBC103"/>
<path d="M55.5489 17.269C55.2034 17.269 54.9178 16.9895 54.9178 16.644C54.9178 16.2985 55.1912 16.019 55.5355 16.019H55.5489C55.893 16.019 56.1738 16.2985 56.1738 16.644C56.1738 16.9895 55.893 17.269 55.5489 17.269Z" fill="#CBC103"/>
<path d="M53.1259 49.7119C52.966 49.7119 52.8062 49.6507 52.684 49.5287C52.4399 49.2844 52.4399 48.889 52.684 48.645L73.2375 28.0914C72.554 27.0477 72.5527 25.6831 73.2362 24.6461L57.2311 8.64079C56.1958 9.32429 54.8299 9.32366 53.7851 8.63892L48.2432 14.1923C47.999 14.4377 47.6037 14.4366 47.3595 14.1935C47.1154 13.9494 47.1154 13.554 47.3595 13.3098L53.2968 7.36046C53.541 7.11678 53.934 7.11615 54.1782 7.35686C54.9142 8.08493 56.1081 8.0868 56.8343 7.35999C57.0784 7.11568 57.474 7.11568 57.7179 7.35999L74.5166 24.1592C74.7609 24.4034 74.7609 24.7988 74.5166 25.0429C73.7902 25.7697 73.7915 26.9612 74.5191 27.699C74.7609 27.9431 74.7596 28.3368 74.5166 28.5797L53.5677 49.5287C53.4457 49.6507 53.2857 49.7119 53.1259 49.7119Z" fill="#CBC103"/>
<path d="M53.1259 53.2492C52.9661 53.2492 52.8063 53.188 52.6841 53.066C52.44 52.8217 52.44 52.4263 52.6841 52.1823L78.4912 26.3628L55.5136 3.38512L44.7058 14.1928C44.4617 14.4371 44.0663 14.4371 43.8222 14.1928C43.578 13.9486 43.578 13.5532 43.8222 13.3091L55.0718 2.05958C55.3159 1.81543 55.7115 1.81543 55.9555 2.05958L79.8169 25.921C80.0612 26.1651 80.0612 26.5605 79.8169 26.8047L53.5678 53.066C53.4458 53.188 53.2858 53.2492 53.1259 53.2492Z" fill="#CBC103"/>
<path d="M55.5136 36.7128C55.3538 36.7128 55.1938 36.6517 55.0718 36.5303C54.8276 36.2862 54.8276 35.8906 55.0718 35.646L65.6708 25.0335C65.9149 24.7894 66.3105 24.79 66.5545 25.0329C66.7986 25.2771 66.7986 25.6725 66.5545 25.9172L55.9555 36.5297C55.8333 36.6517 55.6735 36.7128 55.5136 36.7128Z" fill="#CBC103"/>
<path d="M53.7388 33.1755C53.579 33.1755 53.419 33.1143 53.297 32.9923L50.7471 30.4423C50.5028 30.1981 50.5028 29.8027 50.7471 29.5586C50.9912 29.3145 51.3866 29.3145 51.6308 29.5586L54.1806 32.1086C54.4248 32.3528 54.4248 32.7482 54.1806 32.9923C54.0587 33.1143 53.8986 33.1755 53.7388 33.1755Z" fill="#CBC103"/>
<path d="M56.3948 29.7539C55.7261 29.7539 55.0961 29.492 54.6212 29.0172L52.8585 27.2551C51.8808 26.2774 51.8808 24.6861 52.8585 23.7085C53.8167 22.7672 55.4561 22.7722 56.3923 23.7085L58.1672 25.484C59.134 26.4495 59.1351 28.0326 58.1708 29.0134C57.6924 29.492 57.0625 29.7539 56.3948 29.7539ZM54.6311 24.2321C54.2942 24.2321 53.9781 24.3616 53.7388 24.5965C53.253 25.083 53.253 25.8806 53.7424 26.3714L55.5051 28.1335C55.9824 28.609 56.8026 28.6108 57.2835 28.1335C57.7645 27.6439 57.767 26.8505 57.2835 26.3678L55.5087 24.5923C55.2769 24.3604 54.9644 24.2321 54.6311 24.2321Z" fill="#CBC103"/>
<path d="M60.8174 25.3289C60.1497 25.3289 59.5211 25.0671 59.0462 24.5923L57.2835 22.8302C56.8062 22.3522 56.545 21.7192 56.5475 21.0475C56.55 20.3823 56.8136 19.7592 57.2871 19.2928C58.2076 18.3534 59.8664 18.3448 60.8172 19.2964L62.5799 21.059C63.0573 21.5362 63.3185 22.1698 63.316 22.8413C63.3135 23.5071 63.0499 24.1302 62.5763 24.596C62.1149 25.0658 61.4874 25.3289 60.8174 25.3289ZM59.0461 19.8103C58.7142 19.8103 58.4029 19.9404 58.1708 20.1766C57.9292 20.4145 57.7986 20.7234 57.7973 21.0531C57.7961 21.3894 57.9267 21.7061 58.1671 21.9466L59.9298 23.7087C60.4084 24.1848 61.2286 24.1861 61.6925 23.7123C61.9343 23.4743 62.0649 23.1654 62.0661 22.8358C62.0674 22.5002 61.9368 22.1827 61.6962 21.9429L59.9335 20.1802C59.6956 19.9415 59.3794 19.8103 59.0461 19.8103Z" fill="#CBC103"/>
<path d="M52.8634 34.0628C52.7047 34.0628 52.5461 34.0029 52.4239 33.8827C52.1787 33.6405 52.1762 33.2449 52.4178 32.9991L54.1841 31.2212C54.4283 30.977 54.8238 30.977 55.0678 31.2212C55.312 31.4653 55.312 31.8609 55.0678 32.1049L53.3089 33.8766C53.1858 34.0004 53.0245 34.0628 52.8634 34.0628Z" fill="#CBC103"/>
<path d="M47.0141 73.1239H4.23981C1.92297 73.1239 0.0626767 71.3136 0.00292969 69.0029V68.749L2.50401 19.9691C2.58957 17.5784 4.61455 15.626 7.0157 15.626H44.2384C46.6394 15.626 48.6645 17.5784 48.7512 19.9781L51.251 68.9869C51.1911 71.3136 49.3308 73.1239 47.0141 73.1239ZM7.0157 16.876C5.27865 16.876 3.81516 18.2877 3.75291 20.0235L1.25167 68.7808L1.25292 68.9871C1.29437 70.5984 2.60662 71.874 4.23981 71.874H47.014C48.6472 71.874 49.9594 70.5984 50.0009 68.9711V68.749L47.5023 20.0332C47.4388 18.2875 45.9751 16.8758 44.2382 16.8758H7.0157V16.876Z" fill="#CBC103"/>
<path d="M47.0142 76.8737H4.23984C3.0729 76.8737 1.98775 76.4159 1.18445 75.5833C0.380058 74.7497 -0.0386407 73.6463 0.00280687 72.477C0.0150065 72.1315 0.321406 71.9006 0.649858 71.874C0.995202 71.8873 1.26516 72.1768 1.2528 72.5209C1.2223 73.3486 1.5176 74.1285 2.08394 74.7156C2.64904 75.3015 3.41449 75.6238 4.23968 75.6238H47.0139C47.8389 75.6238 48.6043 75.3015 49.1694 74.7156C49.7358 74.1285 50.0312 73.3486 50.0006 72.5209C49.9884 72.1768 50.2582 71.8873 50.6035 71.874C50.9478 71.8776 51.2371 72.1315 51.2506 72.477C51.2922 73.6464 50.8733 74.7497 50.0689 75.5833C49.2663 76.4159 48.1811 76.8737 47.0142 76.8737Z" fill="#CBC103"/>
<path d="M0.627927 73.1236C0.282583 73.1236 0.00292969 72.8441 0.00292969 72.4986V68.9868C0.00292969 68.6413 0.282583 68.3618 0.627927 68.3618C0.973428 68.3618 1.25292 68.6413 1.25292 68.9868V72.4986C1.25292 72.8441 0.973428 73.1236 0.627927 73.1236Z" fill="#CBC103"/>
<path d="M50.6259 73.1236C50.2804 73.1236 50.0009 72.8441 50.0009 72.4986V68.9868C50.0009 68.6413 50.2804 68.3618 50.6259 68.3618C50.9714 68.3618 51.2508 68.6413 51.2508 68.9868V72.4986C51.251 72.8441 50.9714 73.1236 50.6259 73.1236Z" fill="#CBC103"/>
<path d="M34.5148 40.6252H27.1897C26.8444 40.6252 26.5647 40.3457 26.5647 40.0002V33.7505C26.5647 33.405 26.8444 33.1255 27.1897 33.1255H34.4649C34.8079 33.1255 35.0874 33.402 35.0899 33.7456L35.14 39.9953C35.1412 40.1619 35.0765 40.3219 34.9581 40.4403C34.8406 40.5587 34.6807 40.6252 34.5148 40.6252ZM27.8145 39.3752H33.885L33.8446 34.3753H27.8145V39.3752Z" fill="#CBC103"/>
<path d="M44.6143 40.6248H37.0145C36.6715 40.6248 36.392 40.3483 36.3895 40.0048L36.3395 33.755C36.3382 33.5884 36.403 33.4284 36.5214 33.31C36.6385 33.1916 36.7973 33.125 36.9645 33.125H44.4263C44.7645 33.125 45.0404 33.3935 45.0513 33.7311L45.2393 39.9807C45.2442 40.1498 45.1807 40.3134 45.0623 40.4348C44.9451 40.5566 44.7828 40.6248 44.6143 40.6248ZM37.6345 39.3748H43.9696L43.8195 34.375H37.5942L37.6345 39.3748Z" fill="#CBC103"/>
<path d="M14.9403 40.6248H7.34057C7.16852 40.6248 7.00367 40.5541 6.88652 40.4288C6.76812 40.3039 6.70713 40.1353 6.71682 39.9638L7.07921 33.714C7.09877 33.3832 7.37216 33.125 7.70296 33.125H15.1648C15.3343 33.125 15.4968 33.194 15.614 33.3161C15.7324 33.4381 15.7959 33.603 15.7898 33.7727L15.5652 40.0223C15.5531 40.3588 15.2772 40.6248 14.9403 40.6248ZM8.00326 39.3748H14.3372L14.5166 34.375H8.29261L8.00326 39.3748Z" fill="#CBC103"/>
<path d="M24.6897 40.6248H17.4401C17.2704 40.6248 17.108 40.556 16.9909 40.4337C16.8725 40.3117 16.809 40.1468 16.8151 39.9771L17.0399 33.7275C17.0521 33.3912 17.328 33.125 17.6649 33.125H24.6898C25.0353 33.125 25.3148 33.4045 25.3148 33.75V39.9998C25.3147 40.3453 25.0352 40.6248 24.6897 40.6248ZM18.0884 39.3748H24.0647V34.375H18.2678L18.0884 39.3748Z" fill="#CBC103"/>
<path d="M14.3529 58.1243H6.40282C6.23062 58.1243 6.06593 58.0535 5.94878 57.9277C5.83038 57.8032 5.76938 57.6348 5.77908 57.4626L6.14163 51.2129C6.16118 50.8834 6.43457 50.6245 6.76537 50.6245H14.5775C14.7471 50.6245 14.9096 50.6929 15.0267 50.8161C15.1451 50.9381 15.2086 51.1017 15.2025 51.2714L14.9779 57.5212C14.9657 57.8581 14.6898 58.1243 14.3529 58.1243ZM7.06567 56.8743H13.75L13.9294 51.8745H7.35487L7.06567 56.8743Z" fill="#CBC103"/>
<path d="M34.627 58.1247H27.1895C26.8441 58.1247 26.5645 57.845 26.5645 57.4997V51.2498C26.5645 50.9045 26.8441 50.625 27.1895 50.625H34.5768C34.9198 50.625 35.1993 50.902 35.2018 51.245L35.2519 57.4948C35.2531 57.6609 35.1884 57.822 35.07 57.9404C34.9528 58.0574 34.7942 58.1247 34.627 58.1247ZM27.8144 56.8747H33.997L33.9567 51.8748H27.8144V56.8747Z" fill="#CBC103"/>
<path d="M24.6895 58.1247H16.8529C16.6832 58.1247 16.5209 58.0561 16.4037 57.9329C16.2853 57.8109 16.2218 57.6473 16.2279 57.4776L16.4527 51.2279C16.4649 50.891 16.7408 50.625 17.0777 50.625H24.6897C25.0352 50.625 25.3147 50.9045 25.3147 51.2498V57.4997C25.3145 57.845 25.035 58.1247 24.6895 58.1247ZM17.5011 56.8747H24.0645V51.8748H17.6805L17.5011 56.8747Z" fill="#CBC103"/>
<path d="M5.94018 66.8742C5.76798 66.8742 5.60453 66.8035 5.48613 66.679C5.36773 66.5532 5.30673 66.3848 5.31643 66.2127L5.67898 59.9629C5.69853 59.6334 5.97193 59.3745 6.30273 59.3745H14.2894C14.459 59.3745 14.6215 59.4441 14.7399 59.5663C14.857 59.6883 14.9205 59.8531 14.9144 60.0228L14.6898 66.2348C14.6898 66.8476 14.6898 66.8476 5.94252 66.8743C5.94143 66.8742 5.94143 66.8742 5.94018 66.8742ZM6.89222 60.6245L6.60287 65.6218C9.06736 65.6145 12.1923 65.6023 13.4617 65.5937L13.6411 60.6245H6.89222Z" fill="#CBC103"/>
<path d="M45.3138 66.8741H37.1891C36.8461 66.8741 36.5666 66.5971 36.5641 66.2541L36.4018 42.5048C36.4005 42.3378 36.4665 42.1778 36.5837 42.0594C36.701 41.9408 36.8608 41.875 37.0267 41.875H44.6644C45.0025 41.875 45.2797 42.1448 45.2894 42.4829L45.9388 66.2321C45.9436 66.4004 45.8789 66.5641 45.7617 66.685C45.6446 66.8059 45.4822 66.8741 45.3138 66.8741ZM37.8103 65.6243H44.6716L44.0564 43.125H37.6566L37.8103 65.6243Z" fill="#CBC103"/>
<path d="M34.6891 66.8742H27.1895C26.8441 66.8742 26.5645 66.5947 26.5645 66.2493V59.9995C26.5645 59.654 26.8441 59.3745 27.1895 59.3745H34.6391C34.982 59.3745 35.2615 59.6515 35.264 59.9947L35.3141 66.2445C35.3154 66.4104 35.2506 66.5717 35.1322 66.6899C35.015 66.8072 34.8552 66.8742 34.6891 66.8742ZM27.8144 65.6243H34.0593L34.0191 60.6245H27.8144V65.6243Z" fill="#CBC103"/>
<path d="M24.6895 66.8742H16.5649C16.3952 66.8742 16.2328 66.8058 16.1157 66.6826C15.9973 66.5606 15.9338 66.3968 15.9399 66.2273L16.1646 59.9775C16.1768 59.6406 16.4527 59.3745 16.7896 59.3745H24.6897C25.0352 59.3745 25.3147 59.654 25.3147 59.9995V66.2493C25.3145 66.5947 25.035 66.8742 24.6895 66.8742ZM17.213 65.6243H24.0645V60.6245H17.3924L17.213 65.6243Z" fill="#CBC103"/>
<path d="M34.5648 49.3747H27.1897C26.8444 49.3747 26.5647 49.0952 26.5647 48.7497V42.4998C26.5647 42.1545 26.8444 41.875 27.1897 41.875H34.527C34.8712 41.875 35.1495 42.152 35.152 42.4962L35.1898 48.7461C35.1911 48.9122 35.1251 49.072 35.0079 49.1904C34.8908 49.3088 34.7308 49.3747 34.5648 49.3747ZM27.8145 48.1247H33.9361L33.9056 43.1248H27.8145V48.1247Z" fill="#CBC103"/>
<path d="M14.652 49.3748H6.87768C6.70548 49.3748 6.54078 49.304 6.42363 49.1782C6.30523 49.0537 6.24423 48.8853 6.25393 48.7131L6.61648 42.4634C6.63603 42.1339 6.90943 41.875 7.24023 41.875H14.878C15.0475 41.875 15.21 41.9444 15.3284 42.0668C15.4456 42.1888 15.5091 42.3536 15.503 42.5219L15.2773 48.7717C15.2648 49.1088 14.9889 49.3748 14.652 49.3748ZM7.54037 48.1248H14.049L14.2297 43.125H7.82972L7.54037 48.1248Z" fill="#CBC103"/>
<path d="M24.6895 49.3747H17.152C16.9823 49.3747 16.82 49.3051 16.7016 49.1829C16.5844 49.0609 16.5209 48.8961 16.527 48.7276L16.7529 42.4779C16.7651 42.141 17.041 41.875 17.3779 41.875H24.6897C25.0352 41.875 25.3147 42.1545 25.3147 42.4998V48.7497C25.3145 49.0952 25.035 49.3747 24.6895 49.3747ZM17.8002 48.1247H24.0645V43.1248H17.9808L17.8002 48.1247Z" fill="#CBC103"/>
<path d="M44.0392 29.688H7.35255C7.1841 29.688 7.02175 29.6196 6.90335 29.4983C6.78605 29.3767 6.72271 29.2131 6.72755 29.0442L6.96545 21.232C6.9764 20.8945 7.2523 20.626 7.59044 20.626H43.8389C44.1783 20.626 44.4553 20.8964 44.4639 21.2352L44.6639 29.0473C44.6675 29.2158 44.6042 29.3788 44.487 29.4997C44.3688 29.6196 44.2077 29.688 44.0392 29.688ZM7.99694 28.4381H43.3983L43.2298 21.8758H8.1973L7.99694 28.4381Z" fill="#CBC103"/>
<path d="M72.5002 55.6246C69.3985 55.6246 66.8754 53.1015 66.8754 49.9998C66.8754 46.8981 69.3985 44.375 72.5002 44.375C75.6019 44.375 78.125 46.8981 78.125 49.9998C78.125 53.1015 75.6019 55.6246 72.5002 55.6246ZM72.5002 45.625C70.0881 45.625 68.1254 47.5879 68.1254 50C68.1254 52.4119 70.0881 54.3748 72.5002 54.3748C74.9123 54.3748 76.875 52.4119 76.875 50C76.875 47.5879 74.9123 45.625 72.5002 45.625Z" fill="#CBC103"/>
<path d="M72.5002 58.1243C69.3985 58.1243 66.8754 55.6012 66.8754 52.4995C66.8754 52.154 67.1549 51.8745 67.5004 51.8745C67.8459 51.8745 68.1254 52.154 68.1254 52.4995C68.1254 54.9114 70.0881 56.8743 72.5002 56.8743C74.9123 56.8743 76.875 54.9114 76.875 52.4995C76.875 52.154 77.1545 51.8745 77.5 51.8745C77.8455 51.8745 78.125 52.154 78.125 52.4995C78.125 55.6012 75.6019 58.1243 72.5002 58.1243Z" fill="#CBC103"/>
<path d="M67.5004 53.1247C67.1549 53.1247 66.8754 52.8452 66.8754 52.4999V50C66.8754 49.6545 67.1549 49.375 67.5004 49.375C67.8459 49.375 68.1254 49.6545 68.1254 50V52.4999C68.1254 52.8452 67.8459 53.1247 67.5004 53.1247Z" fill="#CBC103"/>
<path d="M77.5 53.1247C77.1545 53.1247 76.875 52.8452 76.875 52.4999V50C76.875 49.6545 77.1545 49.375 77.5 49.375C77.8455 49.375 78.125 49.6545 78.125 50V52.4999C78.125 52.8452 77.8455 53.1247 77.5 53.1247Z" fill="#CBC103"/>
<path d="M72.5002 51.8748C72.1547 51.8748 71.8752 51.5953 71.8752 51.2498V48.75C71.8752 48.4045 72.1547 48.125 72.5002 48.125C72.8457 48.125 73.1252 48.4045 73.1252 48.75V51.2498C73.1252 51.5953 72.8457 51.8748 72.5002 51.8748Z" fill="#CBC103"/>
<path d="M65.0005 75.6238C60.5206 75.6238 56.8759 71.9789 56.8759 67.4992C56.8759 63.0194 60.5207 59.3745 65.0005 59.3745C69.4803 59.3745 73.1252 63.0195 73.1252 67.4992C73.1252 71.9789 69.4801 75.6238 65.0005 75.6238ZM65.0005 60.6244C61.2103 60.6244 58.1259 63.709 58.1259 67.499C58.1259 71.2892 61.2103 74.3737 65.0005 74.3737C68.7905 74.3737 71.8752 71.2892 71.8752 67.499C71.8752 63.709 68.7905 60.6244 65.0005 60.6244Z" fill="#CBC103"/>
<path d="M65.0005 78.1237C60.5206 78.1237 56.8759 74.4788 56.8759 69.999C56.8759 69.6535 57.1554 69.374 57.5009 69.374C57.8462 69.374 58.1259 69.6535 58.1259 69.999C58.1259 73.789 61.2103 76.8738 65.0005 76.8738C68.7905 76.8738 71.8752 73.789 71.8752 69.999C71.8752 69.6535 72.1547 69.374 72.5002 69.374C72.8457 69.374 73.1252 69.6535 73.1252 69.999C73.1252 74.4788 69.4801 78.1237 65.0005 78.1237Z" fill="#CBC103"/>
<path d="M65.0005 70.6238C64.655 70.6238 64.3755 70.3443 64.3755 69.9988V64.999C64.3755 64.6535 64.655 64.374 65.0005 64.374C65.3458 64.374 65.6253 64.6535 65.6253 64.999V69.9988C65.6253 70.3443 65.3458 70.6238 65.0005 70.6238Z" fill="#CBC103"/>
<path d="M72.5002 70.6238C72.1547 70.6238 71.8752 70.3444 71.8752 69.9989V67.499C71.8752 67.1537 72.1547 66.874 72.5002 66.874C72.8457 66.874 73.1252 67.1537 73.1252 67.499V69.9989C73.1252 70.3444 72.8457 70.6238 72.5002 70.6238Z" fill="#CBC103"/>
<path d="M57.5009 70.6238C57.1554 70.6238 56.8759 70.3444 56.8759 69.9989V67.499C56.8759 67.1537 57.1554 66.874 57.5009 66.874C57.8462 66.874 58.1259 67.1537 58.1259 67.499V69.9989C58.1259 70.3444 57.8462 70.6238 57.5009 70.6238Z" fill="#CBC103"/>
</g>
<defs>
<clipPath id="clip0_7_705">
<rect width="80" height="80" fill="white"/>
</clipPath>
</defs>
</svg>
