<svg width="80" height="80" viewBox="0 0 80 80" fill="none" xmlns="http://www.w3.org/2000/svg">
<g clip-path="url(#clip0_7_67)">
<path d="M1.875 69.3872C1.875 69.3872 3.12504 70.625 8.12488 70.625C13.1247 70.625 14.3749 69.3872 14.3749 69.3872V73.125C14.3749 73.125 13.1249 74.3748 8.12488 74.3748C3.12488 74.3748 1.875 73.125 1.875 73.125V69.3872Z" fill="#94C1FF"/>
<path d="M8.12488 70.6249C3.12488 70.6249 1.875 69.3871 1.875 69.3871V69.3749C1.875 69.3749 3.12504 68.125 8.12488 68.125C13.1247 68.125 14.3749 69.3749 14.3749 69.3749V69.3871C14.3749 69.3871 13.1249 70.6249 8.12488 70.6249Z" fill="#5C9EFF"/>
<path d="M4.37508 70.3199C2.45372 69.9536 1.875 69.3872 1.875 69.3872V73.125C1.875 73.125 2.45372 73.6974 4.37508 74.0672V70.3199Z" fill="#D7E9FF"/>
<path d="M11.875 70.3199C13.7964 69.9536 14.3749 69.3872 14.3749 69.3872V73.125C14.3749 73.125 13.7964 73.6974 11.875 74.0672V70.3199Z" fill="#5C9EFF"/>
<path d="M18.125 69.3872C18.125 69.3872 19.375 70.625 24.3749 70.625C29.3747 70.625 30.6249 69.3872 30.6249 69.3872V73.125C30.6249 73.125 29.3749 74.3748 24.3749 74.3748C19.3749 74.3748 18.125 73.125 18.125 73.125V69.3872Z" fill="#94C1FF"/>
<path d="M24.3749 70.6249C19.3749 70.6249 18.125 69.3871 18.125 69.3871V69.3749C18.125 69.3749 19.375 68.125 24.3749 68.125C29.3747 68.125 30.6249 69.3749 30.6249 69.3749V69.3871C30.6249 69.3871 29.3749 70.6249 24.3749 70.6249Z" fill="#5C9EFF"/>
<path d="M20.6249 70.3199C18.7036 69.9536 18.125 69.3872 18.125 69.3872V73.125C18.125 73.125 18.7036 73.6974 20.6249 74.0672V70.3199Z" fill="#D7E9FF"/>
<path d="M28.1251 70.3199C30.0465 69.9536 30.625 69.3872 30.625 69.3872V73.125C30.625 73.125 30.0465 73.6974 28.1251 74.0672V70.3199Z" fill="#5C9EFF"/>
<path d="M18.125 60.6372C18.125 60.6372 19.375 61.8749 24.3749 61.8749C29.3747 61.8749 30.6249 60.6372 30.6249 60.6372V64.3748C30.6249 64.3748 29.3749 65.6249 24.3749 65.6249C19.3749 65.6249 18.125 64.3748 18.125 64.3748V60.6372Z" fill="#94C1FF"/>
<path d="M24.3749 61.8749C19.3749 61.8749 18.125 60.6372 18.125 60.6372V60.625C18.125 60.625 19.375 59.375 24.3749 59.375C29.3747 59.375 30.6249 60.625 30.6249 60.625V60.6372C30.6249 60.6372 29.3749 61.8749 24.3749 61.8749Z" fill="#5C9EFF"/>
<path d="M20.6249 61.5697C18.7036 61.2036 18.125 60.6372 18.125 60.6372V64.3748C18.125 64.3748 18.7036 64.9473 20.6249 65.3172V61.5697Z" fill="#D7E9FF"/>
<path d="M28.1251 61.5697C30.0465 61.2036 30.625 60.6372 30.625 60.6372V64.3748C30.625 64.3748 30.0465 64.9473 28.1251 65.3172V61.5697Z" fill="#5C9EFF"/>
<path d="M34.375 69.3872C34.375 69.3872 35.625 70.625 40.6249 70.625C45.6249 70.625 46.8749 69.3872 46.8749 69.3872V73.125C46.8749 73.125 45.6249 74.3748 40.6249 74.3748C35.625 74.3748 34.375 73.125 34.375 73.125V69.3872Z" fill="#94C1FF"/>
<path d="M40.6249 70.6249C35.625 70.6249 34.375 69.3871 34.375 69.3871V69.3749C34.375 69.3749 35.625 68.125 40.6249 68.125C45.6249 68.125 46.8749 69.3749 46.8749 69.3749V69.3871C46.8749 69.3871 45.6249 70.6249 40.6249 70.6249Z" fill="#5C9EFF"/>
<path d="M36.8751 70.3199C34.9537 69.9536 34.375 69.3872 34.375 69.3872V73.125C34.375 73.125 34.9537 73.6974 36.8751 74.0672V70.3199Z" fill="#D7E9FF"/>
<path d="M44.3749 70.3199C46.2964 69.9536 46.875 69.3872 46.875 69.3872V73.125C46.875 73.125 46.2964 73.6974 44.3749 74.0672V70.3199Z" fill="#5C9EFF"/>
<path d="M34.375 60.6372C34.375 60.6372 35.625 61.8749 40.6249 61.8749C45.6249 61.8749 46.8749 60.6372 46.8749 60.6372V64.3748C46.8749 64.3748 45.6249 65.6249 40.6249 65.6249C35.625 65.6249 34.375 64.3748 34.375 64.3748V60.6372Z" fill="#94C1FF"/>
<path d="M40.6249 61.8749C35.625 61.8749 34.375 60.6372 34.375 60.6372V60.625C34.375 60.625 35.625 59.375 40.6249 59.375C45.6249 59.375 46.8749 60.625 46.8749 60.625V60.6372C46.8749 60.6372 45.6249 61.8749 40.6249 61.8749Z" fill="#5C9EFF"/>
<path d="M36.8751 61.5697C34.9537 61.2036 34.375 60.6372 34.375 60.6372V64.3748C34.375 64.3748 34.9537 64.9473 36.8751 65.3172V61.5697Z" fill="#D7E9FF"/>
<path d="M44.3749 61.5697C46.2964 61.2036 46.875 60.6372 46.875 60.6372V64.3748C46.875 64.3748 46.2964 64.9473 44.3749 65.3172V61.5697Z" fill="#5C9EFF"/>
<path d="M34.375 51.8872C34.375 51.8872 35.625 53.1249 40.6249 53.1249C45.6249 53.1249 46.8749 51.8872 46.8749 51.8872V55.625C46.8749 55.625 45.6249 56.8749 40.6249 56.8749C35.625 56.8749 34.375 55.625 34.375 55.625V51.8872Z" fill="#94C1FF"/>
<path d="M40.6249 53.1248C35.625 53.1248 34.375 51.8871 34.375 51.8871V51.8749C34.375 51.8749 35.625 50.625 40.6249 50.625C45.6249 50.625 46.8749 51.8749 46.8749 51.8749V51.8871C46.8749 51.8871 45.6249 53.1248 40.6249 53.1248Z" fill="#5C9EFF"/>
<path d="M36.8751 52.8197C34.9537 52.4536 34.375 51.8872 34.375 51.8872V55.625C34.375 55.625 34.9537 56.1974 36.8751 56.5672V52.8197Z" fill="#D7E9FF"/>
<path d="M44.3749 52.8197C46.2964 52.4536 46.875 51.8872 46.875 51.8872V55.625C46.875 55.625 46.2964 56.1974 44.3749 56.5672V52.8197Z" fill="#5C9EFF"/>
<path d="M50.6249 69.3872C50.6249 69.3872 51.8749 70.625 56.8749 70.625C61.8749 70.625 63.125 69.3872 63.125 69.3872V73.125C63.125 73.125 61.8749 74.3748 56.8749 74.3748C51.8749 74.3748 50.6249 73.125 50.6249 73.125V69.3872Z" fill="#94C1FF"/>
<path d="M56.8749 70.6249C51.8749 70.6249 50.6249 69.3871 50.6249 69.3871V69.3749C50.6249 69.3749 51.8749 68.125 56.8749 68.125C61.8749 68.125 63.125 69.3749 63.125 69.3749V69.3871C63.125 69.3871 61.8748 70.6249 56.8749 70.6249Z" fill="#5C9EFF"/>
<path d="M53.1248 70.3199C51.2034 69.9536 50.6249 69.3872 50.6249 69.3872V73.125C50.6249 73.125 51.2034 73.6974 53.1248 74.0672V70.3199Z" fill="#D7E9FF"/>
<path d="M60.6248 70.3199C62.5463 69.9536 63.1248 69.3872 63.1248 69.3872V73.125C63.1248 73.125 62.5463 73.6974 60.6248 74.0672V70.3199Z" fill="#5C9EFF"/>
<path d="M50.6249 60.6372C50.6249 60.6372 51.8749 61.8749 56.8749 61.8749C61.8749 61.8749 63.125 60.6372 63.125 60.6372V64.3748C63.125 64.3748 61.8749 65.6249 56.8749 65.6249C51.8749 65.6249 50.6249 64.3748 50.6249 64.3748V60.6372Z" fill="#94C1FF"/>
<path d="M56.8749 61.8749C51.8749 61.8749 50.6249 60.6372 50.6249 60.6372V60.625C50.6249 60.625 51.8749 59.375 56.8749 59.375C61.8749 59.375 63.125 60.625 63.125 60.625V60.6372C63.125 60.6372 61.8748 61.8749 56.8749 61.8749Z" fill="#5C9EFF"/>
<path d="M53.1248 61.5697C51.2034 61.2036 50.6249 60.6372 50.6249 60.6372V64.3748C50.6249 64.3748 51.2034 64.9473 53.1248 65.3172V61.5697Z" fill="#D7E9FF"/>
<path d="M60.6248 61.5697C62.5463 61.2036 63.1248 60.6372 63.1248 60.6372V64.3748C63.1248 64.3748 62.5463 64.9473 60.6248 65.3172V61.5697Z" fill="#5C9EFF"/>
<path d="M50.6249 51.8872C50.6249 51.8872 51.8749 53.1249 56.8749 53.1249C61.8749 53.1249 63.125 51.8872 63.125 51.8872V55.625C63.125 55.625 61.8749 56.8749 56.8749 56.8749C51.8749 56.8749 50.6249 55.625 50.6249 55.625V51.8872Z" fill="#94C1FF"/>
<path d="M56.8749 53.1248C51.8749 53.1248 50.6249 51.8871 50.6249 51.8871V51.8749C50.6249 51.8749 51.8749 50.625 56.8749 50.625C61.8749 50.625 63.125 51.8749 63.125 51.8749V51.8871C63.125 51.8871 61.8748 53.1248 56.8749 53.1248Z" fill="#5C9EFF"/>
<path d="M53.1248 52.8197C51.2034 52.4536 50.6249 51.8872 50.6249 51.8872V55.625C50.6249 55.625 51.2034 56.1974 53.1248 56.5672V52.8197Z" fill="#D7E9FF"/>
<path d="M60.6248 52.8197C62.5463 52.4536 63.1248 51.8872 63.1248 51.8872V55.625C63.1248 55.625 62.5463 56.1974 60.6248 56.5672V52.8197Z" fill="#5C9EFF"/>
<path d="M50.6249 43.1372C50.6249 43.1372 51.8749 44.375 56.8749 44.375C61.8749 44.375 63.125 43.1372 63.125 43.1372V46.875C63.125 46.875 61.8749 48.1248 56.8749 48.1248C51.8749 48.1248 50.6249 46.875 50.6249 46.875V43.1372Z" fill="#94C1FF"/>
<path d="M56.8749 44.3749C51.8749 44.3749 50.6249 43.1371 50.6249 43.1371V43.1249C50.6249 43.1249 51.8749 41.875 56.8749 41.875C61.8749 41.875 63.125 43.1249 63.125 43.1249V43.1371C63.125 43.1371 61.8748 44.3749 56.8749 44.3749Z" fill="#5C9EFF"/>
<path d="M53.1248 44.0699C51.2034 43.7036 50.6249 43.1372 50.6249 43.1372V46.875C50.6249 46.875 51.2034 47.4474 53.1248 47.8172V44.0699Z" fill="#D7E9FF"/>
<path d="M60.6248 44.0699C62.5463 43.7036 63.1248 43.1372 63.1248 43.1372V46.875C63.1248 46.875 62.5463 47.4474 60.6248 47.8172V44.0699Z" fill="#5C9EFF"/>
<path d="M66.8748 69.3872C66.8748 69.3872 68.1248 70.625 73.1248 70.625C78.1248 70.625 79.3748 69.3872 79.3748 69.3872V73.125C79.3748 73.125 78.1248 74.3748 73.1248 74.3748C68.1248 74.3748 66.8748 73.125 66.8748 73.125V69.3872Z" fill="#94C1FF"/>
<path d="M73.1248 70.6249C68.1248 70.6249 66.8748 69.3871 66.8748 69.3871V69.3749C66.8748 69.3749 68.1248 68.125 73.1248 68.125C78.1248 68.125 79.3748 69.3749 79.3748 69.3749V69.3871C79.3748 69.3871 78.1248 70.6249 73.1248 70.6249Z" fill="#5C9EFF"/>
<path d="M69.3748 70.3199C67.4534 69.9536 66.8749 69.3872 66.8749 69.3872V73.125C66.8749 73.125 67.4534 73.6974 69.3748 74.0672V70.3199Z" fill="#D7E9FF"/>
<path d="M76.8748 70.3199C78.7961 69.9536 79.3748 69.3872 79.3748 69.3872V73.125C79.3748 73.125 78.7961 73.6974 76.8748 74.0672V70.3199Z" fill="#5C9EFF"/>
<path d="M66.8748 60.6372C66.8748 60.6372 68.1248 61.8749 73.1248 61.8749C78.1248 61.8749 79.3748 60.6372 79.3748 60.6372V64.3748C79.3748 64.3748 78.1248 65.6249 73.1248 65.6249C68.1248 65.6249 66.8748 64.3748 66.8748 64.3748V60.6372Z" fill="#94C1FF"/>
<path d="M73.1248 61.8749C68.1248 61.8749 66.8748 60.6372 66.8748 60.6372V60.625C66.8748 60.625 68.1248 59.375 73.1248 59.375C78.1248 59.375 79.3748 60.625 79.3748 60.625V60.6372C79.3748 60.6372 78.1248 61.8749 73.1248 61.8749Z" fill="#5C9EFF"/>
<path d="M69.3748 61.5697C67.4534 61.2036 66.8749 60.6372 66.8749 60.6372V64.3748C66.8749 64.3748 67.4534 64.9473 69.3748 65.3172V61.5697Z" fill="#D7E9FF"/>
<path d="M76.8748 61.5697C78.7961 61.2036 79.3748 60.6372 79.3748 60.6372V64.3748C79.3748 64.3748 78.7961 64.9473 76.8748 65.3172V61.5697Z" fill="#5C9EFF"/>
<path d="M66.8748 51.8872C66.8748 51.8872 68.1248 53.1249 73.1248 53.1249C78.1248 53.1249 79.3748 51.8872 79.3748 51.8872V55.625C79.3748 55.625 78.1248 56.8749 73.1248 56.8749C68.1248 56.8749 66.8748 55.625 66.8748 55.625V51.8872Z" fill="#94C1FF"/>
<path d="M73.1248 53.1248C68.1248 53.1248 66.8748 51.8871 66.8748 51.8871V51.8749C66.8748 51.8749 68.1248 50.625 73.1248 50.625C78.1248 50.625 79.3748 51.8749 79.3748 51.8749V51.8871C79.3748 51.8871 78.1248 53.1248 73.1248 53.1248Z" fill="#5C9EFF"/>
<path d="M69.3748 52.8197C67.4534 52.4536 66.8749 51.8872 66.8749 51.8872V55.625C66.8749 55.625 67.4534 56.1974 69.3748 56.5672V52.8197Z" fill="#D7E9FF"/>
<path d="M76.8748 52.8197C78.7961 52.4536 79.3748 51.8872 79.3748 51.8872V55.625C79.3748 55.625 78.7961 56.1974 76.8748 56.5672V52.8197Z" fill="#5C9EFF"/>
<path d="M66.8748 43.1372C66.8748 43.1372 68.1248 44.375 73.1248 44.375C78.1248 44.375 79.3748 43.1372 79.3748 43.1372V46.875C79.3748 46.875 78.1248 48.1248 73.1248 48.1248C68.1248 48.1248 66.8748 46.875 66.8748 46.875V43.1372Z" fill="#94C1FF"/>
<path d="M73.1248 44.3749C68.1248 44.3749 66.8748 43.1371 66.8748 43.1371V43.1249C66.8748 43.1249 68.1248 41.875 73.1248 41.875C78.1248 41.875 79.3748 43.1249 79.3748 43.1249V43.1371C79.3748 43.1371 78.1248 44.3749 73.1248 44.3749Z" fill="#5C9EFF"/>
<path d="M69.3748 44.0699C67.4534 43.7036 66.8749 43.1372 66.8749 43.1372V46.875C66.8749 46.875 67.4534 47.4474 69.3748 47.8172V44.0699Z" fill="#D7E9FF"/>
<path d="M76.8748 44.0699C78.7961 43.7036 79.3748 43.1372 79.3748 43.1372V46.875C79.3748 46.875 78.7961 47.4474 76.8748 47.8172V44.0699Z" fill="#5C9EFF"/>
<path d="M76.8748 35.6255C75.8371 36.4129 74.5372 36.8755 73.1248 36.8755C71.7124 36.8755 70.4123 36.4129 69.3747 35.6255C67.8623 34.4879 66.8748 32.6629 66.8748 30.6255V33.1254C66.8748 35.1627 67.8623 36.9877 69.3747 38.1254C70.4123 38.9128 71.7122 39.3755 73.1248 39.3755C74.537 39.3755 75.8371 38.9128 76.8748 38.1254C78.3873 36.9878 79.3748 35.1628 79.3748 33.1254V30.6255C79.3748 32.6629 78.3873 34.4879 76.8748 35.6255Z" fill="#5C9EFF"/>
<path d="M73.1248 36.8756C71.7124 36.8756 70.4123 36.4129 69.3747 35.6255C67.8623 34.488 66.8748 32.6629 66.8748 30.6255C66.8748 27.1757 69.675 24.3755 73.1248 24.3755C76.5744 24.3755 79.3748 27.1757 79.3748 30.6255C79.3748 32.6628 78.3873 34.4878 76.8748 35.6255C75.8371 36.4129 74.5372 36.8756 73.1248 36.8756Z" fill="#94C1FF"/>
<path d="M70.6248 35.6255C69.1123 34.488 68.1249 32.6629 68.1249 30.6255C68.1249 27.3906 70.5981 24.7565 73.7499 24.439C73.5411 24.4169 73.3397 24.3755 73.1249 24.3755C69.6751 24.3755 66.8749 27.1757 66.8749 30.6255C66.8749 32.6628 67.8625 34.4878 69.3748 35.6255C70.4124 36.4129 71.7124 36.8756 73.1249 36.8756C73.3372 36.8756 73.5424 36.8451 73.7499 36.8243C72.5828 36.7084 71.5062 36.2945 70.6248 35.6255Z" fill="#D7E9FF"/>
<path d="M75.6249 35.6255C77.1372 34.488 78.1248 32.6629 78.1248 30.6255C78.1248 27.3906 75.6516 24.7565 72.4998 24.439C72.7084 24.4169 72.9099 24.3755 73.1248 24.3755C76.5744 24.3755 79.3748 27.1757 79.3748 30.6255C79.3748 32.6628 78.3872 34.4878 76.8747 35.6255C75.8371 36.4129 74.5372 36.8756 73.1248 36.8756C72.9124 36.8756 72.7072 36.8451 72.4998 36.8243C73.6667 36.7084 74.7435 36.2945 75.6249 35.6255Z" fill="#5C9EFF"/>
<path d="M5.625 54.3752L6.87504 48.1251H0.625C36.7186 22.8134 68.1248 9.37594 68.1248 9.37594L66.8747 5.62598L79.3748 6.87602L70.6248 16.876L69.3748 13.1261C69.3748 13.1259 19.375 40.6258 5.625 54.3752Z" fill="#D7E9FF"/>
<path d="M68.7889 12.0317C46.9529 24.1802 22.9297 38.1646 5.93501 52.8221L5.625 54.3749C19.375 40.6256 69.3748 13.1257 69.3748 13.1257L68.7889 12.0317Z" fill="#94C1FF"/>
<path d="M68.1248 9.37598C68.1248 9.37598 36.7186 22.8134 0.625 48.1252H3.12492C39.2187 22.8134 68.4435 10.3367 68.4435 10.3367L68.1248 9.37598Z" fill="white"/>
<path d="M24.375 73.7499C24.0297 73.7499 23.75 73.4704 23.75 73.1249V71.875C23.75 71.5295 24.0297 71.25 24.375 71.25C24.7205 71.25 25 71.5295 25 71.875V73.1249C25 73.4704 24.7205 73.7499 24.375 73.7499Z" fill="#CBC103"/>
<path d="M28.125 73.4438C27.7795 73.4438 27.5 73.1643 27.5 72.8188V71.586C27.5 71.2404 27.7795 70.9609 28.125 70.9609C28.4704 70.9609 28.75 71.2404 28.75 71.586V72.8188C28.7499 73.1643 28.4704 73.4438 28.125 73.4438Z" fill="#CBC103"/>
<path d="M20.625 73.4316C20.2797 73.4316 20 73.1521 20 72.8066V71.5689C20 71.2234 20.2795 70.9438 20.625 70.9438C20.9705 70.9438 21.25 71.2234 21.25 71.5689V72.8066C21.25 73.1521 20.9704 73.4316 20.625 73.4316Z" fill="#CBC103"/>
<path d="M24.375 71.25C19.264 71.25 17.8297 69.9632 17.6831 69.817C17.439 69.5726 17.439 69.1772 17.6831 68.9332C17.9237 68.6927 18.3117 68.6889 18.5546 68.9223C18.6034 68.9625 19.8888 70.0001 24.3749 70.0001C28.9292 70.0001 30.1843 68.9309 30.1965 68.9212C30.4491 68.6964 30.8397 68.7038 31.073 68.9528C31.3048 69.1982 31.3061 69.5778 31.0669 69.8171C30.9205 69.9632 29.4861 71.25 24.375 71.25Z" fill="#CBC103"/>
<path d="M24.375 74.9999C19.264 74.9999 17.8297 73.7133 17.6831 73.5669C17.439 73.3227 17.439 72.9271 17.6831 72.6831C17.9237 72.4427 18.3117 72.439 18.5546 72.6722C18.6034 72.7125 19.8888 73.7502 24.3749 73.7502C28.9292 73.7502 30.1843 72.6808 30.1965 72.6711C30.4491 72.4465 30.8397 72.4551 31.073 72.7028C31.3048 72.9481 31.3061 73.3279 31.0669 73.567C30.9205 73.7133 29.4861 74.9999 24.375 74.9999Z" fill="#CBC103"/>
<path d="M30.6249 70.0001C30.4699 70.0001 30.3149 69.9427 30.1952 69.8279C30.1464 69.7877 28.861 68.75 24.3749 68.75C19.8205 68.75 18.5656 69.8194 18.5534 69.829C18.3019 70.0537 17.9088 70.0464 17.6769 69.7974C17.4449 69.552 17.4436 69.1724 17.683 68.9332C17.8295 68.7865 19.2638 67.5 24.3749 67.5C29.4859 67.5 30.9204 68.7866 31.0668 68.9332C31.3109 69.1774 31.3109 69.5728 31.0668 69.8169C30.9446 69.9389 30.7847 70.0001 30.6249 70.0001Z" fill="#CBC103"/>
<path d="M18.125 73.75C17.7797 73.75 17.5 73.4705 17.5 73.125V69.3749C17.5 69.0295 17.7795 68.75 18.125 68.75C18.4705 68.75 18.75 69.0295 18.75 69.3749V73.125C18.7499 73.4705 18.4704 73.75 18.125 73.75Z" fill="#CBC103"/>
<path d="M30.625 73.75C30.2795 73.75 30 73.4705 30 73.125V69.3749C30 69.0295 30.2795 68.75 30.625 68.75C30.9704 68.75 31.25 69.0295 31.25 69.3749V73.125C31.25 73.4705 30.9705 73.75 30.625 73.75Z" fill="#CBC103"/>
<path d="M8.12502 73.7499C7.77966 73.7499 7.5 73.4704 7.5 73.1249V71.875C7.5 71.5295 7.77951 71.25 8.12502 71.25C8.47053 71.25 8.75004 71.5295 8.75004 71.875V73.1249C8.7502 73.4704 8.47053 73.7499 8.12502 73.7499Z" fill="#CBC103"/>
<path d="M11.875 73.4438C11.5295 73.4438 11.25 73.1643 11.25 72.8188V71.586C11.25 71.2404 11.5295 70.9609 11.875 70.9609C12.2204 70.9609 12.5 71.2404 12.5 71.586V72.8188C12.5 73.1643 12.2205 73.4438 11.875 73.4438Z" fill="#CBC103"/>
<path d="M4.37502 73.4316C4.02951 73.4316 3.75 73.1521 3.75 72.8066V71.5689C3.75 71.2234 4.02951 70.9438 4.37502 70.9438C4.72038 70.9438 5.00004 71.2234 5.00004 71.5689V72.8066C4.99988 73.1521 4.72038 73.4316 4.37502 73.4316Z" fill="#CBC103"/>
<path d="M8.12502 71.25C3.01397 71.25 1.57968 69.9632 1.43312 69.817C1.18896 69.5726 1.18896 69.1772 1.43312 68.9332C1.67368 68.6927 2.06174 68.6889 2.3048 68.9223C2.3536 68.9625 3.63899 70.0001 8.12502 70.0001C12.6794 70.0001 13.9345 68.9309 13.9467 68.9212C14.1993 68.6964 14.5912 68.7038 14.8232 68.9528C15.055 69.1982 15.0562 69.5778 14.8171 69.8171C14.6705 69.9632 13.2362 71.25 8.12502 71.25Z" fill="#CBC103"/>
<path d="M8.12502 74.9999C3.01397 74.9999 1.57968 73.7133 1.43312 73.5669C1.18896 73.3227 1.18896 72.9271 1.43312 72.6831C1.67368 72.4427 2.06174 72.439 2.3048 72.6722C2.3536 72.7125 3.63899 73.7502 8.12502 73.7502C12.6794 73.7502 13.9345 72.6808 13.9467 72.6711C14.1993 72.4465 14.5912 72.4551 14.8232 72.7028C15.055 72.9481 15.0562 73.3279 14.8171 73.567C14.6705 73.7133 13.2362 74.9999 8.12502 74.9999Z" fill="#CBC103"/>
<path d="M14.3749 70.0001C14.2199 70.0001 14.0649 69.9427 13.9452 69.8279C13.8964 69.7877 12.611 68.75 8.12485 68.75C3.57047 68.75 2.31558 69.8194 2.30338 69.829C2.05187 70.0537 1.65881 70.0464 1.42685 69.7974C1.1949 69.552 1.19364 69.1724 1.43295 68.9332C1.57951 68.7865 3.0138 67.5 8.12485 67.5C13.2359 67.5 14.6704 68.7866 14.8168 68.9332C15.0609 69.1774 15.0609 69.5728 14.8168 69.8169C14.6948 69.9389 14.5349 70.0001 14.3749 70.0001Z" fill="#CBC103"/>
<path d="M1.87502 73.75C1.52966 73.75 1.25 73.4705 1.25 73.125V69.3749C1.25 69.0295 1.52951 68.75 1.87502 68.75C2.22053 68.75 2.50004 69.0295 2.50004 69.3749V73.125C2.50004 73.4705 2.22038 73.75 1.87502 73.75Z" fill="#CBC103"/>
<path d="M14.375 73.75C14.0295 73.75 13.75 73.4705 13.75 73.125V69.3749C13.75 69.0295 14.0295 68.75 14.375 68.75C14.7204 68.75 15 69.0295 15 69.3749V73.125C15.0002 73.4705 14.7205 73.75 14.375 73.75Z" fill="#CBC103"/>
<path d="M24.375 64.9999C24.0297 64.9999 23.75 64.7204 23.75 64.3749V63.125C23.75 62.7795 24.0297 62.5 24.375 62.5C24.7205 62.5 25 62.7795 25 63.125V64.3749C25 64.7204 24.7205 64.9999 24.375 64.9999Z" fill="#CBC103"/>
<path d="M28.125 64.6938C27.7795 64.6938 27.5 64.4143 27.5 64.0688V62.836C27.5 62.4904 27.7795 62.2109 28.125 62.2109C28.4704 62.2109 28.75 62.4904 28.75 62.836V64.0688C28.7499 64.4143 28.4704 64.6938 28.125 64.6938Z" fill="#CBC103"/>
<path d="M20.625 64.6816C20.2797 64.6816 20 64.4021 20 64.0565V62.8189C20 62.4734 20.2795 62.1938 20.625 62.1938C20.9705 62.1938 21.25 62.4734 21.25 62.8189V64.0565C21.25 64.4021 20.9704 64.6816 20.625 64.6816Z" fill="#CBC103"/>
<path d="M24.375 62.5C19.264 62.5 17.8297 61.2134 17.6831 61.067C17.439 60.8226 17.439 60.4272 17.6831 60.1832C17.9237 59.9427 18.3117 59.9389 18.5546 60.1723C18.6034 60.2125 19.8888 61.2503 24.3749 61.2503C28.9292 61.2503 30.1843 60.1809 30.1965 60.1712C30.4491 59.9464 30.8397 59.9538 31.073 60.2028C31.3048 60.4482 31.3061 60.8278 31.0669 61.0671C30.9205 61.2134 29.4861 62.5 24.375 62.5Z" fill="#CBC103"/>
<path d="M24.375 66.25C19.264 66.25 17.8297 64.9632 17.6831 64.8168C17.439 64.5727 17.439 64.1773 17.6831 63.9331C17.9237 63.6927 18.3117 63.689 18.5546 63.9222C18.6034 63.9625 19.8888 65.0002 24.3749 65.0002C28.9292 65.0002 30.1843 63.9308 30.1965 63.9211C30.4491 63.6977 30.8397 63.7051 31.073 63.9528C31.3048 64.1982 31.3061 64.5778 31.0669 64.817C30.9205 64.9634 29.4861 66.25 24.375 66.25Z" fill="#CBC103"/>
<path d="M30.6249 61.2502C30.4699 61.2502 30.3149 61.1928 30.1952 61.078C30.1464 61.0377 28.861 60 24.3749 60C19.8205 60 18.5656 61.0694 18.5534 61.079C18.3019 61.3037 17.9088 61.2964 17.6769 61.0474C17.4449 60.802 17.4436 60.4223 17.683 60.1832C17.8295 60.0366 19.2638 58.75 24.3749 58.75C29.4859 58.75 30.9204 60.0368 31.0668 60.1832C31.3109 60.4274 31.3109 60.8228 31.0668 61.0669C30.9446 61.1892 30.7847 61.2502 30.6249 61.2502Z" fill="#CBC103"/>
<path d="M18.125 65C17.7797 65 17.5 64.7205 17.5 64.375V60.625C17.5 60.2795 17.7795 60 18.125 60C18.4705 60 18.75 60.2795 18.75 60.625V64.375C18.7499 64.7205 18.4704 65 18.125 65Z" fill="#CBC103"/>
<path d="M30.625 65C30.2795 65 30 64.7205 30 64.375V60.625C30 60.2795 30.2795 60 30.625 60C30.9704 60 31.25 60.2795 31.25 60.625V64.375C31.25 64.7205 30.9705 65 30.625 65Z" fill="#CBC103"/>
<path d="M40.6249 73.7499C40.2794 73.7499 39.9999 73.4704 39.9999 73.1249V71.875C39.9999 71.5295 40.2794 71.25 40.6249 71.25C40.9704 71.25 41.2499 71.5295 41.2499 71.875V73.1249C41.2499 73.4704 40.9704 73.7499 40.6249 73.7499Z" fill="#CBC103"/>
<path d="M44.3749 73.4438C44.0295 73.4438 43.75 73.1643 43.75 72.8188V71.586C43.75 71.2404 44.0295 70.9609 44.3749 70.9609C44.7204 70.9609 44.9999 71.2404 44.9999 71.586V72.8188C44.9999 73.1643 44.7204 73.4438 44.3749 73.4438Z" fill="#CBC103"/>
<path d="M36.8751 73.4316C36.5298 73.4316 36.2501 73.1521 36.2501 72.8066V71.5689C36.2501 71.2234 36.5296 70.9438 36.8751 70.9438C37.2207 70.9438 37.5002 71.2234 37.5002 71.5689V72.8066C37.5 73.1521 37.2205 73.4316 36.8751 73.4316Z" fill="#CBC103"/>
<path d="M40.6249 71.25C35.5138 71.25 34.0796 69.9632 33.933 69.817C33.6888 69.5726 33.6888 69.1772 33.933 68.9332C34.1736 68.6927 34.5618 68.6889 34.8047 68.9223C34.8535 68.9625 36.1389 70.0001 40.6249 70.0001C45.1793 70.0001 46.4342 68.9309 46.4464 68.9212C46.6979 68.6964 47.0909 68.7038 47.3229 68.9528C47.5548 69.1982 47.5561 69.5778 47.3169 69.8171C47.1704 69.9632 45.7359 71.25 40.6249 71.25Z" fill="#CBC103"/>
<path d="M40.6249 74.9999C35.5138 74.9999 34.0796 73.7133 33.933 73.5669C33.6888 73.3227 33.6888 72.9271 33.933 72.6831C34.1736 72.4427 34.5618 72.439 34.8047 72.6722C34.8535 72.7125 36.1389 73.7502 40.6249 73.7502C45.1793 73.7502 46.4342 72.6808 46.4464 72.6711C46.6979 72.4465 47.0909 72.4551 47.3229 72.7028C47.5548 72.9481 47.5561 73.3279 47.3169 73.567C47.1704 73.7133 45.7359 74.9999 40.6249 74.9999Z" fill="#CBC103"/>
<path d="M46.8749 70.0001C46.7199 70.0001 46.5649 69.9427 46.4451 69.8279C46.3963 69.7877 45.111 68.75 40.6249 68.75C36.0705 68.75 34.8156 69.8194 34.8034 69.829C34.5506 70.0537 34.1601 70.0464 33.9269 69.7974C33.6951 69.552 33.6938 69.1724 33.933 68.9332C34.0795 68.7865 35.5138 67.5 40.6249 67.5C45.7359 67.5 47.1704 68.7866 47.3168 68.9332C47.5609 69.1774 47.5609 69.5728 47.3168 69.8169C47.1948 69.9389 47.0347 70.0001 46.8749 70.0001Z" fill="#CBC103"/>
<path d="M34.3749 73.75C34.0295 73.75 33.7499 73.4705 33.7499 73.125V69.3749C33.7499 69.0295 34.0295 68.75 34.3749 68.75C34.7204 68.75 34.9999 69.0295 34.9999 69.3749V73.125C34.9999 73.4705 34.7204 73.75 34.3749 73.75Z" fill="#CBC103"/>
<path d="M46.8749 73.75C46.5294 73.75 46.2499 73.4705 46.2499 73.125V69.3749C46.2499 69.0295 46.5294 68.75 46.8749 68.75C47.2203 68.75 47.4999 69.0295 47.4999 69.3749V73.125C47.4999 73.4705 47.2203 73.75 46.8749 73.75Z" fill="#CBC103"/>
<path d="M40.6249 64.9999C40.2794 64.9999 39.9999 64.7204 39.9999 64.3749V63.125C39.9999 62.7795 40.2794 62.5 40.6249 62.5C40.9704 62.5 41.2499 62.7795 41.2499 63.125V64.3749C41.2499 64.7204 40.9704 64.9999 40.6249 64.9999Z" fill="#CBC103"/>
<path d="M44.3749 64.6938C44.0295 64.6938 43.75 64.4143 43.75 64.0688V62.836C43.75 62.4904 44.0295 62.2109 44.3749 62.2109C44.7204 62.2109 44.9999 62.4904 44.9999 62.836V64.0688C44.9999 64.4143 44.7204 64.6938 44.3749 64.6938Z" fill="#CBC103"/>
<path d="M36.8751 64.6816C36.5298 64.6816 36.2501 64.4021 36.2501 64.0565V62.8189C36.2501 62.4734 36.5296 62.1938 36.8751 62.1938C37.2207 62.1938 37.5002 62.4734 37.5002 62.8189V64.0565C37.5 64.4021 37.2205 64.6816 36.8751 64.6816Z" fill="#CBC103"/>
<path d="M40.6249 62.5C35.5138 62.5 34.0796 61.2134 33.933 61.067C33.6888 60.8226 33.6888 60.4272 33.933 60.1832C34.1736 59.9427 34.5618 59.9389 34.8047 60.1723C34.8535 60.2125 36.1389 61.2503 40.6249 61.2503C45.1793 61.2503 46.4342 60.1809 46.4464 60.1712C46.6979 59.9464 47.0909 59.9538 47.3229 60.2028C47.5548 60.4482 47.5561 60.8278 47.3169 61.0671C47.1704 61.2134 45.7359 62.5 40.6249 62.5Z" fill="#CBC103"/>
<path d="M40.6249 66.25C35.5138 66.25 34.0796 64.9632 33.933 64.8168C33.6888 64.5727 33.6888 64.1773 33.933 63.9331C34.1736 63.6927 34.5618 63.689 34.8047 63.9222C34.8535 63.9625 36.1389 65.0002 40.6249 65.0002C45.1793 65.0002 46.4342 63.9308 46.4464 63.9211C46.6979 63.6977 47.0909 63.7051 47.3229 63.9528C47.5548 64.1982 47.5561 64.5778 47.3169 64.817C47.1704 64.9634 45.7359 66.25 40.6249 66.25Z" fill="#CBC103"/>
<path d="M46.8749 61.2502C46.7199 61.2502 46.5649 61.1928 46.4451 61.078C46.3963 61.0377 45.111 60 40.6249 60C36.0705 60 34.8156 61.0694 34.8034 61.079C34.5506 61.3037 34.1601 61.2964 33.9269 61.0474C33.6951 60.802 33.6938 60.4223 33.933 60.1832C34.0795 60.0366 35.5138 58.75 40.6249 58.75C45.7359 58.75 47.1704 60.0368 47.3168 60.1832C47.5609 60.4274 47.5609 60.8228 47.3168 61.0669C47.1948 61.1892 47.0347 61.2502 46.8749 61.2502Z" fill="#CBC103"/>
<path d="M34.3749 65C34.0295 65 33.7499 64.7205 33.7499 64.375V60.625C33.7499 60.2795 34.0295 60 34.3749 60C34.7204 60 34.9999 60.2795 34.9999 60.625V64.375C34.9999 64.7205 34.7204 65 34.3749 65Z" fill="#CBC103"/>
<path d="M46.8749 65C46.5294 65 46.2499 64.7205 46.2499 64.375V60.625C46.2499 60.2795 46.5294 60 46.8749 60C47.2203 60 47.4999 60.2795 47.4999 60.625V64.375C47.4999 64.7205 47.2203 65 46.8749 65Z" fill="#CBC103"/>
<path d="M40.6249 56.2499C40.2794 56.2499 39.9999 55.9704 39.9999 55.6251V54.375C39.9999 54.0295 40.2794 53.75 40.6249 53.75C40.9704 53.75 41.2499 54.0295 41.2499 54.375V55.6251C41.2499 55.9703 40.9704 56.2499 40.6249 56.2499Z" fill="#CBC103"/>
<path d="M44.3749 55.944C44.0295 55.944 43.75 55.6643 43.75 55.3189V54.086C43.75 53.7404 44.0295 53.4609 44.3749 53.4609C44.7204 53.4609 44.9999 53.7404 44.9999 54.086V55.3189C44.9999 55.6641 44.7204 55.944 44.3749 55.944Z" fill="#CBC103"/>
<path d="M36.8751 55.9317C36.5298 55.9317 36.2501 55.6522 36.2501 55.3067V54.0689C36.2501 53.7234 36.5296 53.4438 36.8751 53.4438C37.2207 53.4438 37.5002 53.7234 37.5002 54.0689V55.3067C37.5 55.6522 37.2205 55.9317 36.8751 55.9317Z" fill="#CBC103"/>
<path d="M40.6249 53.7499C35.5138 53.7499 34.0796 52.4632 33.933 52.3168C33.6888 52.0727 33.6888 51.6771 33.933 51.4331C34.1736 51.1927 34.5618 51.189 34.8047 51.4222C34.8535 51.4625 36.1389 52.5002 40.6249 52.5002C45.1793 52.5002 46.4342 51.4308 46.4464 51.4211C46.6979 51.1965 47.0909 51.2051 47.3229 51.4528C47.5548 51.6981 47.5561 52.0778 47.3169 52.317C47.1704 52.4634 45.7359 53.7499 40.6249 53.7499Z" fill="#CBC103"/>
<path d="M40.6249 57.5C35.5138 57.5 34.0796 56.2134 33.933 56.0668C33.6888 55.8227 33.6888 55.4273 33.933 55.1831C34.1736 54.9427 34.5618 54.9389 34.8047 55.1723C34.8535 55.2125 36.1389 56.2501 40.6249 56.2501C45.1793 56.2501 46.4342 55.1808 46.4464 55.1712C46.6979 54.9477 47.0909 54.9551 47.3229 55.2028C47.5548 55.4482 47.5561 55.8278 47.3169 56.067C47.1704 56.2134 45.7359 57.5 40.6249 57.5Z" fill="#CBC103"/>
<path d="M46.8749 52.5001C46.7199 52.5001 46.5649 52.4427 46.4451 52.3279C46.3963 52.2875 45.111 51.2499 40.6249 51.2499C36.0705 51.2499 34.8156 52.3193 34.8034 52.3289C34.5506 52.5536 34.1601 52.545 33.9269 52.2972C33.6951 52.0519 33.6938 51.6722 33.933 51.433C34.0795 51.2865 35.5138 50 40.6249 50C45.7359 50 47.1704 51.2866 47.3168 51.433C47.5609 51.6772 47.5609 52.0727 47.3168 52.3167C47.1948 52.4389 47.0347 52.5001 46.8749 52.5001Z" fill="#CBC103"/>
<path d="M34.3749 56.25C34.0295 56.25 33.7499 55.9705 33.7499 55.6251V51.875C33.7499 51.5295 34.0295 51.25 34.3749 51.25C34.7204 51.25 34.9999 51.5295 34.9999 51.875V55.6251C34.9999 55.9703 34.7204 56.25 34.3749 56.25Z" fill="#CBC103"/>
<path d="M46.8749 56.25C46.5294 56.25 46.2499 55.9705 46.2499 55.6251V51.875C46.2499 51.5295 46.5294 51.25 46.8749 51.25C47.2203 51.25 47.4999 51.5295 47.4999 51.875V55.6251C47.4999 55.9703 47.2203 56.25 46.8749 56.25Z" fill="#CBC103"/>
<path d="M56.8749 73.7499C56.5294 73.7499 56.2499 73.4704 56.2499 73.1249V71.875C56.2499 71.5295 56.5294 71.25 56.8749 71.25C57.2204 71.25 57.4999 71.5295 57.4999 71.875V73.1249C57.4999 73.4704 57.2204 73.7499 56.8749 73.7499Z" fill="#CBC103"/>
<path d="M60.6247 73.4438C60.2794 73.4438 59.9999 73.1643 59.9999 72.8188V71.586C59.9999 71.2404 60.2794 70.9609 60.6247 70.9609C60.9703 70.9609 61.2498 71.2404 61.2498 71.586V72.8188C61.2498 73.1643 60.9703 73.4438 60.6247 73.4438Z" fill="#CBC103"/>
<path d="M53.1247 73.4316C52.7794 73.4316 52.4999 73.1521 52.4999 72.8066V71.5689C52.4999 71.2234 52.7794 70.9438 53.1247 70.9438C53.4703 70.9438 53.7498 71.2234 53.7498 71.5689V72.8066C53.7498 73.1521 53.4703 73.4316 53.1247 73.4316Z" fill="#CBC103"/>
<path d="M56.875 71.25C51.7638 71.25 50.3295 69.9632 50.1831 69.817C49.939 69.5726 49.939 69.1772 50.1831 68.9332C50.4237 68.6927 50.8119 68.6889 51.0546 68.9223C51.1034 68.9625 52.3888 70.0001 56.875 70.0001C61.4294 70.0001 62.6843 68.9309 62.6965 68.9212C62.948 68.6964 63.3411 68.7038 63.573 68.9528C63.805 69.1982 63.8062 69.5778 63.5669 69.8171C63.4204 69.9632 61.9859 71.25 56.875 71.25Z" fill="#CBC103"/>
<path d="M56.875 74.9999C51.7638 74.9999 50.3295 73.7133 50.1831 73.5669C49.939 73.3227 49.939 72.9271 50.1831 72.6831C50.4237 72.4427 50.8119 72.439 51.0546 72.6722C51.1034 72.7125 52.3888 73.7502 56.875 73.7502C61.4294 73.7502 62.6843 72.6808 62.6965 72.6711C62.948 72.4465 63.3411 72.4551 63.573 72.7028C63.805 72.9481 63.8062 73.3279 63.5669 73.567C63.4204 73.7133 61.9859 74.9999 56.875 74.9999Z" fill="#CBC103"/>
<path d="M63.1249 70.0001C62.9698 70.0001 62.8149 69.9427 62.6951 69.8279C62.6463 69.7877 61.3611 68.75 56.8749 68.75C52.3205 68.75 51.0655 69.8194 51.0533 69.829C50.8007 70.0537 50.4089 70.0464 50.1767 69.7974C49.9449 69.552 49.9437 69.1724 50.1828 68.9332C50.3294 68.7865 51.7635 67.5 56.8747 67.5C61.9858 67.5 63.4202 68.7866 63.5665 68.9332C63.8108 69.1774 63.8108 69.5728 63.5665 69.8169C63.4446 69.9389 63.2846 70.0001 63.1249 70.0001Z" fill="#CBC103"/>
<path d="M50.6249 73.75C50.2794 73.75 49.9999 73.4705 49.9999 73.125V69.3749C49.9999 69.0295 50.2794 68.75 50.6249 68.75C50.9704 68.75 51.2499 69.0295 51.2499 69.3749V73.125C51.2499 73.4705 50.9704 73.75 50.6249 73.75Z" fill="#CBC103"/>
<path d="M63.1249 73.75C62.7794 73.75 62.4999 73.4705 62.4999 73.125V69.3749C62.4999 69.0295 62.7794 68.75 63.1249 68.75C63.4703 68.75 63.7498 69.0295 63.7498 69.3749V73.125C63.7498 73.4705 63.4703 73.75 63.1249 73.75Z" fill="#CBC103"/>
<path d="M56.8749 64.9999C56.5294 64.9999 56.2499 64.7204 56.2499 64.3749V63.125C56.2499 62.7795 56.5294 62.5 56.8749 62.5C57.2204 62.5 57.4999 62.7795 57.4999 63.125V64.3749C57.4999 64.7204 57.2204 64.9999 56.8749 64.9999Z" fill="#CBC103"/>
<path d="M60.6247 64.6938C60.2794 64.6938 59.9999 64.4143 59.9999 64.0688V62.836C59.9999 62.4904 60.2794 62.2109 60.6247 62.2109C60.9703 62.2109 61.2498 62.4904 61.2498 62.836V64.0688C61.2498 64.4143 60.9703 64.6938 60.6247 64.6938Z" fill="#CBC103"/>
<path d="M53.1247 64.6816C52.7794 64.6816 52.4999 64.4021 52.4999 64.0565V62.8189C52.4999 62.4734 52.7794 62.1938 53.1247 62.1938C53.4703 62.1938 53.7498 62.4734 53.7498 62.8189V64.0565C53.7498 64.4021 53.4703 64.6816 53.1247 64.6816Z" fill="#CBC103"/>
<path d="M56.875 62.5C51.7638 62.5 50.3295 61.2134 50.1831 61.067C49.939 60.8226 49.939 60.4272 50.1831 60.1832C50.4237 59.9427 50.8119 59.9389 51.0546 60.1723C51.1034 60.2125 52.3888 61.2503 56.875 61.2503C61.4294 61.2503 62.6843 60.1809 62.6965 60.1712C62.948 59.9464 63.3411 59.9538 63.573 60.2028C63.805 60.4482 63.8062 60.8278 63.5669 61.0671C63.4204 61.2134 61.9859 62.5 56.875 62.5Z" fill="#CBC103"/>
<path d="M56.875 66.25C51.7638 66.25 50.3295 64.9632 50.1831 64.8168C49.939 64.5727 49.939 64.1773 50.1831 63.9331C50.4237 63.6927 50.8119 63.689 51.0546 63.9222C51.1034 63.9625 52.3888 65.0002 56.875 65.0002C61.4294 65.0002 62.6843 63.9308 62.6965 63.9211C62.948 63.6977 63.3411 63.7051 63.573 63.9528C63.805 64.1982 63.8062 64.5778 63.5669 64.817C63.4204 64.9634 61.9859 66.25 56.875 66.25Z" fill="#CBC103"/>
<path d="M63.1249 61.2502C62.9698 61.2502 62.8149 61.1928 62.6951 61.078C62.6463 61.0377 61.3611 60 56.8749 60C52.3205 60 51.0655 61.0694 51.0533 61.079C50.8007 61.3037 50.4089 61.2964 50.1767 61.0474C49.9449 60.802 49.9437 60.4223 50.1828 60.1832C50.3294 60.0366 51.7635 58.75 56.8747 58.75C61.9858 58.75 63.4202 60.0368 63.5665 60.1832C63.8108 60.4274 63.8108 60.8228 63.5665 61.0669C63.4446 61.1892 63.2846 61.2502 63.1249 61.2502Z" fill="#CBC103"/>
<path d="M50.6249 65C50.2794 65 49.9999 64.7205 49.9999 64.375V60.625C49.9999 60.2795 50.2794 60 50.6249 60C50.9704 60 51.2499 60.2795 51.2499 60.625V64.375C51.2499 64.7205 50.9704 65 50.6249 65Z" fill="#CBC103"/>
<path d="M63.1249 65C62.7794 65 62.4999 64.7205 62.4999 64.375V60.625C62.4999 60.2795 62.7794 60 63.1249 60C63.4703 60 63.7498 60.2795 63.7498 60.625V64.375C63.7498 64.7205 63.4703 65 63.1249 65Z" fill="#CBC103"/>
<path d="M56.8749 56.2499C56.5294 56.2499 56.2499 55.9704 56.2499 55.6251V54.375C56.2499 54.0295 56.5294 53.75 56.8749 53.75C57.2204 53.75 57.4999 54.0295 57.4999 54.375V55.6251C57.4999 55.9703 57.2204 56.2499 56.8749 56.2499Z" fill="#CBC103"/>
<path d="M60.6247 55.944C60.2794 55.944 59.9999 55.6643 59.9999 55.3189V54.086C59.9999 53.7404 60.2794 53.4609 60.6247 53.4609C60.9703 53.4609 61.2498 53.7404 61.2498 54.086V55.3189C61.2498 55.6641 60.9703 55.944 60.6247 55.944Z" fill="#CBC103"/>
<path d="M53.1247 55.9317C52.7794 55.9317 52.4999 55.6522 52.4999 55.3067V54.0689C52.4999 53.7234 52.7794 53.4438 53.1247 53.4438C53.4703 53.4438 53.7498 53.7234 53.7498 54.0689V55.3067C53.7498 55.6522 53.4703 55.9317 53.1247 55.9317Z" fill="#CBC103"/>
<path d="M56.875 53.7499C51.7638 53.7499 50.3295 52.4632 50.1831 52.3168C49.939 52.0727 49.939 51.6771 50.1831 51.4331C50.4237 51.1927 50.8119 51.189 51.0546 51.4222C51.1034 51.4625 52.3888 52.5002 56.875 52.5002C61.4294 52.5002 62.6843 51.4308 62.6965 51.4211C62.948 51.1965 63.3411 51.2051 63.573 51.4528C63.805 51.6981 63.8062 52.0778 63.5669 52.317C63.4204 52.4634 61.9859 53.7499 56.875 53.7499Z" fill="#CBC103"/>
<path d="M56.875 57.5C51.7638 57.5 50.3295 56.2134 50.1831 56.0668C49.939 55.8227 49.939 55.4273 50.1831 55.1831C50.4237 54.9427 50.8119 54.9389 51.0546 55.1723C51.1034 55.2125 52.3888 56.2501 56.875 56.2501C61.4294 56.2501 62.6843 55.1808 62.6965 55.1712C62.948 54.9477 63.3411 54.9551 63.573 55.2028C63.805 55.4482 63.8062 55.8278 63.5669 56.067C63.4204 56.2134 61.9859 57.5 56.875 57.5Z" fill="#CBC103"/>
<path d="M63.1249 52.5001C62.9698 52.5001 62.8149 52.4427 62.6951 52.3279C62.6463 52.2875 61.3611 51.2499 56.8749 51.2499C52.3205 51.2499 51.0655 52.3193 51.0533 52.3289C50.8007 52.5536 50.4089 52.545 50.1767 52.2972C49.9449 52.0519 49.9437 51.6722 50.1828 51.433C50.3294 51.2865 51.7635 50 56.8747 50C61.9858 50 63.4202 51.2866 63.5665 51.433C63.8108 51.6772 63.8108 52.0727 63.5665 52.3167C63.4446 52.4389 63.2846 52.5001 63.1249 52.5001Z" fill="#CBC103"/>
<path d="M50.6249 56.25C50.2794 56.25 49.9999 55.9705 49.9999 55.6251V51.875C49.9999 51.5295 50.2794 51.25 50.6249 51.25C50.9704 51.25 51.2499 51.5295 51.2499 51.875V55.6251C51.2499 55.9703 50.9704 56.25 50.6249 56.25Z" fill="#CBC103"/>
<path d="M63.1249 56.25C62.7794 56.25 62.4999 55.9705 62.4999 55.6251V51.875C62.4999 51.5295 62.7794 51.25 63.1249 51.25C63.4703 51.25 63.7498 51.5295 63.7498 51.875V55.6251C63.7498 55.9703 63.4703 56.25 63.1249 56.25Z" fill="#CBC103"/>
<path d="M56.8749 47.4999C56.5294 47.4999 56.2499 47.2203 56.2499 46.8749V45.6249C56.2499 45.2795 56.5294 45 56.8749 45C57.2204 45 57.4999 45.2795 57.4999 45.6249V46.8749C57.4999 47.2203 57.2204 47.4999 56.8749 47.4999Z" fill="#CBC103"/>
<path d="M60.6247 47.1938C60.2794 47.1938 59.9999 46.9141 59.9999 46.5688V45.3358C59.9999 44.9904 60.2794 44.7109 60.6247 44.7109C60.9703 44.7109 61.2498 44.9904 61.2498 45.3358V46.5688C61.2498 46.9141 60.9703 47.1938 60.6247 47.1938Z" fill="#CBC103"/>
<path d="M53.1247 47.1816C52.7794 47.1816 52.4999 46.9021 52.4999 46.5565V45.3189C52.4999 44.9734 52.7794 44.6938 53.1247 44.6938C53.4703 44.6938 53.7498 44.9734 53.7498 45.3189V46.5565C53.7498 46.9021 53.4703 47.1816 53.1247 47.1816Z" fill="#CBC103"/>
<path d="M56.875 45C51.7638 45 50.3295 43.7132 50.1831 43.5668C49.939 43.3227 49.939 42.9273 50.1831 42.6831C50.4237 42.4427 50.8119 42.439 51.0546 42.6722C51.1034 42.7125 52.3888 43.7502 56.875 43.7502C61.4294 43.7502 62.6843 42.6808 62.6965 42.6711C62.948 42.4465 63.3411 42.4551 63.573 42.7028C63.805 42.9482 63.8062 43.3278 63.5669 43.567C63.4204 43.7132 61.9859 45 56.875 45Z" fill="#CBC103"/>
<path d="M56.875 48.7499C51.7638 48.7499 50.3295 47.4632 50.1831 47.3168C49.939 47.0727 49.939 46.6771 50.1831 46.4331C50.4237 46.1927 50.8119 46.189 51.0546 46.4222C51.1034 46.4625 52.3888 47.5002 56.875 47.5002C61.4294 47.5002 62.6843 46.4308 62.6965 46.4211C62.948 46.1977 63.3411 46.2051 63.573 46.4528C63.805 46.6981 63.8062 47.0778 63.5669 47.317C63.4204 47.4634 61.9859 48.7499 56.875 48.7499Z" fill="#CBC103"/>
<path d="M63.1249 43.7501C62.9698 43.7501 62.8149 43.6927 62.6951 43.5779C62.6463 43.5377 61.3611 42.4999 56.8749 42.4999C52.3205 42.4999 51.0655 43.5693 51.0533 43.579C50.8007 43.8037 50.4089 43.7951 50.1767 43.5474C49.9449 43.302 49.9437 42.9224 50.1828 42.683C50.3294 42.5365 51.7635 41.25 56.8747 41.25C61.9858 41.25 63.4202 42.5366 63.5665 42.683C63.8108 42.9274 63.8108 43.3228 63.5665 43.5668C63.4446 43.6889 63.2846 43.7501 63.1249 43.7501Z" fill="#CBC103"/>
<path d="M50.6249 47.5002C50.2794 47.5002 49.9999 47.2205 49.9999 46.8751V43.125C49.9999 42.7797 50.2794 42.5 50.6249 42.5C50.9704 42.5 51.2499 42.7797 51.2499 43.125V46.8751C51.2499 47.2205 50.9704 47.5002 50.6249 47.5002Z" fill="#CBC103"/>
<path d="M63.1249 47.5002C62.7794 47.5002 62.4999 47.2205 62.4999 46.8751V43.125C62.4999 42.7797 62.7794 42.5 63.1249 42.5C63.4703 42.5 63.7498 42.7797 63.7498 43.125V46.8751C63.7498 47.2205 63.4703 47.5002 63.1249 47.5002Z" fill="#CBC103"/>
<path d="M73.1248 73.7499C72.7793 73.7499 72.4998 73.4704 72.4998 73.1249V71.875C72.4998 71.5295 72.7793 71.25 73.1248 71.25C73.4703 71.25 73.7498 71.5295 73.7498 71.875V73.1249C73.7498 73.4704 73.4703 73.7499 73.1248 73.7499Z" fill="#CBC103"/>
<path d="M76.8748 73.4438C76.5294 73.4438 76.2498 73.1643 76.2498 72.8188V71.586C76.2498 71.2404 76.5294 70.9609 76.8748 70.9609C77.2203 70.9609 77.4998 71.2404 77.4998 71.586V72.8188C77.4998 73.1643 77.2203 73.4438 76.8748 73.4438Z" fill="#CBC103"/>
<path d="M69.3749 73.4316C69.0295 73.4316 68.75 73.1521 68.75 72.8066V71.5689C68.75 71.2234 69.0295 70.9438 69.3749 70.9438C69.7204 70.9438 69.9999 71.2234 69.9999 71.5689V72.8066C69.9999 73.1521 69.7204 73.4316 69.3749 73.4316Z" fill="#CBC103"/>
<path d="M73.1248 71.25C68.0136 71.25 66.5793 69.9632 66.4329 69.817C66.1887 69.5726 66.1887 69.1772 66.4329 68.9332C66.6734 68.6927 67.0616 68.6889 67.3044 68.9223C67.3532 68.9625 68.6386 70.0001 73.1248 70.0001C77.6792 70.0001 78.934 68.9309 78.9462 68.9212C79.1976 68.6964 79.5908 68.7038 79.8228 68.9528C80.0547 69.1982 80.056 69.5778 79.8167 69.8171C79.6703 69.9632 78.2358 71.25 73.1248 71.25Z" fill="#CBC103"/>
<path d="M73.1248 74.9999C68.0136 74.9999 66.5793 73.7133 66.4329 73.5669C66.1887 73.3227 66.1887 72.9271 66.4329 72.6831C66.6734 72.4427 67.0616 72.439 67.3044 72.6722C67.3532 72.7125 68.6386 73.7502 73.1248 73.7502C77.6792 73.7502 78.934 72.6808 78.9462 72.6711C79.1976 72.4465 79.5908 72.4551 79.8228 72.7028C80.0547 72.9481 80.056 73.3279 79.8167 73.567C79.6703 73.7133 78.2358 74.9999 73.1248 74.9999Z" fill="#CBC103"/>
<path d="M79.3748 70.0001C79.2196 70.0001 79.0648 69.9427 78.945 69.8279C78.8962 69.7877 77.6108 68.75 73.1248 68.75C68.5702 68.75 67.3153 69.8194 67.3031 69.829C67.0505 70.0537 66.66 70.0464 66.4266 69.7974C66.1948 69.552 66.1936 69.1724 66.4327 68.9332C66.5793 68.7865 68.0134 67.5 73.1246 67.5C78.2357 67.5 79.6701 68.7866 79.8164 68.9332C80.0607 69.1774 80.0607 69.5728 79.8164 69.8169C79.6945 69.9389 79.5347 70.0001 79.3748 70.0001Z" fill="#CBC103"/>
<path d="M66.8748 73.75C66.5293 73.75 66.2498 73.4705 66.2498 73.125V69.3749C66.2498 69.0295 66.5293 68.75 66.8748 68.75C67.2203 68.75 67.4998 69.0295 67.4998 69.3749V73.125C67.4998 73.4705 67.2203 73.75 66.8748 73.75Z" fill="#CBC103"/>
<path d="M79.3748 73.75C79.0293 73.75 78.7498 73.4705 78.7498 73.125V69.3749C78.7498 69.0295 79.0293 68.75 79.3748 68.75C79.7201 68.75 79.9996 69.0295 79.9996 69.3749V73.125C79.9996 73.4705 79.7201 73.75 79.3748 73.75Z" fill="#CBC103"/>
<path d="M73.1248 64.9999C72.7793 64.9999 72.4998 64.7204 72.4998 64.3749V63.125C72.4998 62.7795 72.7793 62.5 73.1248 62.5C73.4703 62.5 73.7498 62.7795 73.7498 63.125V64.3749C73.7498 64.7204 73.4703 64.9999 73.1248 64.9999Z" fill="#CBC103"/>
<path d="M76.8748 64.6938C76.5294 64.6938 76.2498 64.4143 76.2498 64.0688V62.836C76.2498 62.4904 76.5294 62.2109 76.8748 62.2109C77.2203 62.2109 77.4998 62.4904 77.4998 62.836V64.0688C77.4998 64.4143 77.2203 64.6938 76.8748 64.6938Z" fill="#CBC103"/>
<path d="M69.3749 64.6816C69.0295 64.6816 68.75 64.4021 68.75 64.0565V62.8189C68.75 62.4734 69.0295 62.1938 69.3749 62.1938C69.7204 62.1938 69.9999 62.4734 69.9999 62.8189V64.0565C69.9999 64.4021 69.7204 64.6816 69.3749 64.6816Z" fill="#CBC103"/>
<path d="M73.1248 62.5C68.0136 62.5 66.5793 61.2134 66.4329 61.067C66.1887 60.8226 66.1887 60.4272 66.4329 60.1832C66.6734 59.9427 67.0616 59.9389 67.3044 60.1723C67.3532 60.2125 68.6386 61.2503 73.1248 61.2503C77.6792 61.2503 78.934 60.1809 78.9462 60.1712C79.1976 59.9464 79.5908 59.9538 79.8228 60.2028C80.0547 60.4482 80.056 60.8278 79.8167 61.0671C79.6703 61.2134 78.2358 62.5 73.1248 62.5Z" fill="#CBC103"/>
<path d="M73.1248 66.25C68.0136 66.25 66.5793 64.9632 66.4329 64.8168C66.1887 64.5727 66.1887 64.1773 66.4329 63.9331C66.6734 63.6927 67.0616 63.689 67.3044 63.9222C67.3532 63.9625 68.6386 65.0002 73.1248 65.0002C77.6792 65.0002 78.934 63.9308 78.9462 63.9211C79.1976 63.6977 79.5908 63.7051 79.8228 63.9528C80.0547 64.1982 80.056 64.5778 79.8167 64.817C79.6703 64.9634 78.2358 66.25 73.1248 66.25Z" fill="#CBC103"/>
<path d="M79.3748 61.2502C79.2196 61.2502 79.0648 61.1928 78.945 61.078C78.8962 61.0377 77.6108 60 73.1248 60C68.5702 60 67.3153 61.0694 67.3031 61.079C67.0505 61.3037 66.66 61.2964 66.4266 61.0474C66.1948 60.802 66.1936 60.4223 66.4327 60.1832C66.5793 60.0366 68.0134 58.75 73.1246 58.75C78.2357 58.75 79.6701 60.0368 79.8164 60.1832C80.0607 60.4274 80.0607 60.8228 79.8164 61.0669C79.6945 61.1892 79.5347 61.2502 79.3748 61.2502Z" fill="#CBC103"/>
<path d="M66.8748 65C66.5293 65 66.2498 64.7205 66.2498 64.375V60.625C66.2498 60.2795 66.5293 60 66.8748 60C67.2203 60 67.4998 60.2795 67.4998 60.625V64.375C67.4998 64.7205 67.2203 65 66.8748 65Z" fill="#CBC103"/>
<path d="M79.3748 65C79.0293 65 78.7498 64.7205 78.7498 64.375V60.625C78.7498 60.2795 79.0293 60 79.3748 60C79.7201 60 79.9996 60.2795 79.9996 60.625V64.375C79.9996 64.7205 79.7201 65 79.3748 65Z" fill="#CBC103"/>
<path d="M73.1248 56.2499C72.7793 56.2499 72.4998 55.9704 72.4998 55.6251V54.375C72.4998 54.0295 72.7793 53.75 73.1248 53.75C73.4703 53.75 73.7498 54.0295 73.7498 54.375V55.6251C73.7498 55.9703 73.4703 56.2499 73.1248 56.2499Z" fill="#CBC103"/>
<path d="M76.8748 55.944C76.5294 55.944 76.2498 55.6643 76.2498 55.3189V54.086C76.2498 53.7404 76.5294 53.4609 76.8748 53.4609C77.2203 53.4609 77.4998 53.7404 77.4998 54.086V55.3189C77.4998 55.6641 77.2203 55.944 76.8748 55.944Z" fill="#CBC103"/>
<path d="M69.3749 55.9317C69.0295 55.9317 68.75 55.6522 68.75 55.3067V54.0689C68.75 53.7234 69.0295 53.4438 69.3749 53.4438C69.7204 53.4438 69.9999 53.7234 69.9999 54.0689V55.3067C69.9999 55.6522 69.7204 55.9317 69.3749 55.9317Z" fill="#CBC103"/>
<path d="M73.1248 53.7499C68.0136 53.7499 66.5793 52.4632 66.4329 52.3168C66.1887 52.0727 66.1887 51.6771 66.4329 51.4331C66.6734 51.1927 67.0616 51.189 67.3044 51.4222C67.3532 51.4625 68.6386 52.5002 73.1248 52.5002C77.6792 52.5002 78.934 51.4308 78.9462 51.4211C79.1976 51.1965 79.5908 51.2051 79.8228 51.4528C80.0547 51.6981 80.056 52.0778 79.8167 52.317C79.6703 52.4634 78.2358 53.7499 73.1248 53.7499Z" fill="#CBC103"/>
<path d="M73.1248 57.5C68.0136 57.5 66.5793 56.2134 66.4329 56.0668C66.1887 55.8227 66.1887 55.4273 66.4329 55.1831C66.6734 54.9427 67.0616 54.9389 67.3044 55.1723C67.3532 55.2125 68.6386 56.2501 73.1248 56.2501C77.6792 56.2501 78.934 55.1808 78.9462 55.1712C79.1976 54.9477 79.5908 54.9551 79.8228 55.2028C80.0547 55.4482 80.056 55.8278 79.8167 56.067C79.6703 56.2134 78.2358 57.5 73.1248 57.5Z" fill="#CBC103"/>
<path d="M79.3748 52.5001C79.2196 52.5001 79.0648 52.4427 78.945 52.3279C78.8962 52.2875 77.6108 51.2499 73.1248 51.2499C68.5702 51.2499 67.3153 52.3193 67.3031 52.3289C67.0505 52.5536 66.66 52.545 66.4266 52.2972C66.1948 52.0519 66.1936 51.6722 66.4327 51.433C66.5793 51.2865 68.0134 50 73.1246 50C78.2357 50 79.6701 51.2866 79.8164 51.433C80.0607 51.6772 80.0607 52.0727 79.8164 52.3167C79.6945 52.4389 79.5347 52.5001 79.3748 52.5001Z" fill="#CBC103"/>
<path d="M66.8748 56.25C66.5293 56.25 66.2498 55.9705 66.2498 55.6251V51.875C66.2498 51.5295 66.5293 51.25 66.8748 51.25C67.2203 51.25 67.4998 51.5295 67.4998 51.875V55.6251C67.4998 55.9703 67.2203 56.25 66.8748 56.25Z" fill="#CBC103"/>
<path d="M79.3748 56.25C79.0293 56.25 78.7498 55.9705 78.7498 55.6251V51.875C78.7498 51.5295 79.0293 51.25 79.3748 51.25C79.7201 51.25 79.9996 51.5295 79.9996 51.875V55.6251C79.9996 55.9703 79.7201 56.25 79.3748 56.25Z" fill="#CBC103"/>
<path d="M73.1248 47.4999C72.7793 47.4999 72.4998 47.2203 72.4998 46.8749V45.6249C72.4998 45.2795 72.7793 45 73.1248 45C73.4703 45 73.7498 45.2795 73.7498 45.6249V46.8749C73.7498 47.2203 73.4703 47.4999 73.1248 47.4999Z" fill="#CBC103"/>
<path d="M76.8748 47.1938C76.5294 47.1938 76.2498 46.9141 76.2498 46.5688V45.3358C76.2498 44.9904 76.5294 44.7109 76.8748 44.7109C77.2203 44.7109 77.4998 44.9904 77.4998 45.3358V46.5688C77.4998 46.9141 77.2203 47.1938 76.8748 47.1938Z" fill="#CBC103"/>
<path d="M69.3749 47.1816C69.0295 47.1816 68.75 46.9021 68.75 46.5565V45.3189C68.75 44.9734 69.0295 44.6938 69.3749 44.6938C69.7204 44.6938 69.9999 44.9734 69.9999 45.3189V46.5565C69.9999 46.9021 69.7204 47.1816 69.3749 47.1816Z" fill="#CBC103"/>
<path d="M73.1248 45C68.0136 45 66.5793 43.7132 66.4329 43.5668C66.1887 43.3227 66.1887 42.9273 66.4329 42.6831C66.6734 42.4427 67.0616 42.439 67.3044 42.6722C67.3532 42.7125 68.6386 43.7502 73.1248 43.7502C77.6792 43.7502 78.934 42.6808 78.9462 42.6711C79.1976 42.4465 79.5908 42.4551 79.8228 42.7028C80.0547 42.9482 80.056 43.3278 79.8167 43.567C79.6703 43.7132 78.2358 45 73.1248 45Z" fill="#CBC103"/>
<path d="M73.1248 48.7499C68.0136 48.7499 66.5793 47.4632 66.4329 47.3168C66.1887 47.0727 66.1887 46.6771 66.4329 46.4331C66.6734 46.1927 67.0616 46.189 67.3044 46.4222C67.3532 46.4625 68.6386 47.5002 73.1248 47.5002C77.6792 47.5002 78.934 46.4308 78.9462 46.4211C79.1976 46.1977 79.5908 46.2051 79.8228 46.4528C80.0547 46.6981 80.056 47.0778 79.8167 47.317C79.6703 47.4634 78.2358 48.7499 73.1248 48.7499Z" fill="#CBC103"/>
<path d="M79.3748 43.7501C79.2196 43.7501 79.0648 43.6927 78.945 43.5779C78.8962 43.5377 77.6108 42.4999 73.1248 42.4999C68.5702 42.4999 67.3153 43.5693 67.3031 43.579C67.0505 43.8037 66.66 43.7951 66.4266 43.5474C66.1948 43.302 66.1936 42.9224 66.4327 42.683C66.5793 42.5365 68.0134 41.25 73.1246 41.25C78.2357 41.25 79.6701 42.5366 79.8164 42.683C80.0607 42.9274 80.0607 43.3228 79.8164 43.5668C79.6945 43.6889 79.5347 43.7501 79.3748 43.7501Z" fill="#CBC103"/>
<path d="M66.8748 47.5002C66.5293 47.5002 66.2498 47.2205 66.2498 46.8751V43.125C66.2498 42.7797 66.5293 42.5 66.8748 42.5C67.2203 42.5 67.4998 42.7797 67.4998 43.125V46.8751C67.4998 47.2205 67.2203 47.5002 66.8748 47.5002Z" fill="#CBC103"/>
<path d="M79.3748 47.5002C79.0293 47.5002 78.7498 47.2205 78.7498 46.8751V43.125C78.7498 42.7797 79.0293 42.5 79.3748 42.5C79.7201 42.5 79.9996 42.7797 79.9996 43.125V46.8751C79.9996 47.2205 79.7201 47.5002 79.3748 47.5002Z" fill="#CBC103"/>
<path d="M70.6248 17.5006C70.4783 17.5006 70.3319 17.4493 70.2135 17.3456C69.9534 17.1185 69.9266 16.7241 70.1548 16.4642L78.9046 6.46418C79.1317 6.20298 79.5271 6.17983 79.786 6.40553C80.0461 6.63264 80.073 7.02695 79.8447 7.28691L71.0949 17.2869C70.9714 17.4286 70.7981 17.5006 70.6248 17.5006Z" fill="#CBC103"/>
<path d="M79.3761 7.50094C79.3553 7.50094 79.3334 7.4997 79.3126 7.49734L66.8125 6.2473C66.4696 6.21321 66.218 5.9068 66.2535 5.56379C66.2877 5.22078 66.6015 4.96191 66.9371 5.00461L79.4371 6.25465C79.7801 6.28891 80.0316 6.59532 79.9961 6.93833C79.9645 7.26038 79.6922 7.50094 79.3761 7.50094Z" fill="#CBC103"/>
<path d="M5.62505 54.9998C5.43704 54.9998 5.25154 54.9155 5.12828 54.7546C4.91838 54.4797 4.97203 54.0867 5.24559 53.878C43.0907 25.0067 68.8512 12.6812 69.1075 12.5604C69.4175 12.4151 69.7911 12.5445 69.94 12.8582C70.0876 13.1695 69.9547 13.543 69.6422 13.6908C69.387 13.8116 43.7329 26.0883 6.00481 54.8717C5.8911 54.9584 5.75815 54.9998 5.62505 54.9998Z" fill="#CBC103"/>
<path d="M0.624977 48.7499C0.427273 48.7499 0.230664 48.6548 0.109914 48.479C-0.0854432 48.1947 -0.013494 47.805 0.271018 47.6098C39.8681 20.3875 67.612 8.90946 67.8879 8.79715C68.2091 8.6678 68.5727 8.81921 68.7035 9.13891C68.8341 9.45877 68.6814 9.82368 68.3616 9.95428C68.0869 10.0666 40.4551 21.5009 0.979092 48.6401C0.870386 48.7146 0.747134 48.7499 0.624977 48.7499Z" fill="#CBC103"/>
<path d="M5.62624 54.9998C5.58479 54.9998 5.54334 54.9962 5.50299 54.9876C5.16358 54.9204 4.94397 54.5908 5.01217 54.2528L6.26221 48.0028C6.33056 47.6623 6.67482 47.4438 6.99703 47.512C7.33629 47.5792 7.55604 47.9088 7.48769 48.2469L6.23765 54.4968C6.17806 54.7948 5.91795 54.9998 5.62624 54.9998Z" fill="#CBC103"/>
<path d="M6.87506 48.7499H0.62502C0.279663 48.7499 0 48.4704 0 48.1249C0 47.7795 0.279663 47.5 0.62502 47.5H6.87506C7.22042 47.5 7.50008 47.7795 7.50008 48.1249C7.50008 48.4704 7.22042 48.7499 6.87506 48.7499Z" fill="#CBC103"/>
<path d="M73.1248 37.5008C69.3347 37.5008 66.2498 34.4161 66.2498 30.6258C66.2498 26.8354 69.3347 23.752 73.1248 23.752C76.915 23.752 79.9997 26.8354 79.9997 30.6258C79.9997 34.4161 76.9151 37.5008 73.1248 37.5008ZM73.1248 25.002C70.023 25.002 67.4998 27.5252 67.4998 30.6258C67.4998 33.7276 70.023 36.2508 73.1248 36.2508C76.2266 36.2508 78.7498 33.7276 78.7498 30.6258C78.7498 27.5252 76.2266 25.002 73.1248 25.002Z" fill="#CBC103"/>
<path d="M73.1248 40.001C69.3347 40.001 66.2498 36.9161 66.2498 33.126C66.2498 32.7806 66.5293 32.501 66.8748 32.501C67.2203 32.501 67.4998 32.7806 67.4998 33.126C67.4998 36.2278 70.023 38.751 73.1248 38.751C76.2266 38.751 78.7498 36.2278 78.7498 33.126C78.7498 32.7806 79.0293 32.501 79.3749 32.501C79.7202 32.501 79.9997 32.7806 79.9997 33.126C79.9997 36.9161 76.9151 40.001 73.1248 40.001Z" fill="#CBC103"/>
<path d="M66.8748 33.7509C66.5293 33.7509 66.2498 33.4714 66.2498 33.1259V30.626C66.2498 30.2805 66.5293 30.001 66.8748 30.001C67.2203 30.001 67.4998 30.2805 67.4998 30.626V33.1259C67.4998 33.4714 67.2203 33.7509 66.8748 33.7509Z" fill="#CBC103"/>
<path d="M79.3748 33.7509C79.0293 33.7509 78.7498 33.4714 78.7498 33.1259V30.626C78.7498 30.2805 79.0293 30.001 79.3748 30.001C79.7201 30.001 79.9996 30.2805 79.9996 30.626V33.1259C79.9996 33.4714 79.7201 33.7509 79.3748 33.7509Z" fill="#CBC103"/>
<path d="M76.8748 38.7508C76.5294 38.7508 76.2498 38.4713 76.2498 38.1258V35.627C76.2498 35.2816 76.5294 35.002 76.8748 35.002C77.2203 35.002 77.4998 35.2816 77.4998 35.627V38.1258C77.4998 38.4713 77.2203 38.7508 76.8748 38.7508Z" fill="#CBC103"/>
<path d="M73.1248 40.0009C72.7793 40.0009 72.4998 39.7213 72.4998 39.3759V36.876C72.4998 36.5305 72.7793 36.251 73.1248 36.251C73.4703 36.251 73.7498 36.5305 73.7498 36.876V39.3759C73.7498 39.7213 73.4703 40.0009 73.1248 40.0009Z" fill="#CBC103"/>
<path d="M69.376 38.7508C69.0306 38.7508 68.7511 38.4713 68.7511 38.1258V35.627C68.7511 35.2816 69.0306 35.002 69.376 35.002C69.7215 35.002 70.001 35.2816 70.001 35.627V38.1258C70.0011 38.4713 69.7215 38.7508 69.376 38.7508Z" fill="#CBC103"/>
<path d="M73.1248 33.751C72.7793 33.751 72.4998 33.4715 72.4998 33.126V28.126C72.4998 27.7805 72.7793 27.501 73.1248 27.501C73.4703 27.501 73.7498 27.7805 73.7498 28.126V33.126C73.7498 33.4715 73.4703 33.751 73.1248 33.751Z" fill="#CBC103"/>
</g>
<defs>
<clipPath id="clip0_7_67">
<rect width="80" height="80" fill="white"/>
</clipPath>
</defs>
</svg>
