<svg width="1080" height="200" viewBox="0 0 1080 200" fill="none" xmlns="http://www.w3.org/2000/svg">
<path fill-rule="evenodd" clip-rule="evenodd" d="M84.2463 97.2251L82.6952 104.082H66.6967L66.9415 103.185H69.798L73.635 85.5523H70.6145L70.9403 84.5728H80.5722L80.3273 85.5523H77.226L73.39 103.185H76.4913C78.5323 103.185 79.3478 103.266 80.6542 102.123C81.6337 101.307 82.858 99.5108 83.4297 97.2262H84.2463V97.2251ZM90.8577 104.57C87.7565 104.57 85.2258 101.957 85.2258 98.5303C85.2258 93.9598 89.7153 90.2858 93.2245 90.2858C96.4078 90.2858 98.5307 93.2251 98.5307 96.0816C98.5307 97.7958 97.878 99.429 96.8985 100.979C95.1025 103.592 92.7347 104.57 90.8577 104.57ZM95.5922 93.9598C95.5922 92.4086 94.9397 91.1033 93.3065 91.1033C92.0822 91.1033 90.8577 91.838 90.204 92.8983C89.3065 94.4495 88.0822 98.2855 88.0822 100.489C88.0822 102.775 89.4705 103.511 90.6128 103.511C91.5103 103.511 92.4898 103.101 93.0615 102.449C94.041 101.306 94.6947 99.184 95.1025 97.389C95.3473 96.0816 95.5922 95.1021 95.5922 93.9598ZM106.203 90.6947L105.551 93.9598C106.692 91.1843 109.061 90.1228 111.019 90.1228C112.488 90.1228 113.957 90.6126 113.957 92.6535C113.957 93.2251 113.876 93.714 113.795 94.2046L112.001 101.061C111.756 102.285 111.837 101.958 111.756 102.204C111.592 102.94 112.081 102.94 112.408 102.94C112.899 102.94 113.306 102.614 113.552 102.285C114.368 101.226 114.285 101.471 114.94 100.245L115.838 100.735C115.183 102.123 113.877 104.571 111.347 104.571C110.122 104.571 109.063 103.755 109.063 102.285C109.063 101.878 109.144 101.552 109.225 101.061L110.858 93.8788C110.939 93.4702 111.02 93.0623 111.103 92.7355C111.265 91.838 110.367 91.5111 109.877 91.5111C109.062 91.5111 108.082 92.2458 107.019 93.3882C105.388 95.1842 104.652 97.388 104.245 98.8572L103.02 104.163H100.081L103.101 91.5921H100.408L100.49 90.6947H106.203ZM132.57 100.898C131.508 102.939 130.284 104.325 128.243 104.408C126.61 104.489 126.366 103.184 126.283 102.367V101.957L126.04 102.283C125.385 103.264 123.835 104.569 121.875 104.569C119.672 104.569 117.06 102.447 117.06 99.019C117.06 94.2026 121.387 90.2028 124.733 90.2028C126.774 90.2028 127.671 90.8553 128.162 91.673L129.793 84.7346H126.774L127.099 83.8361H132.976L129.14 99.3448C128.814 100.897 128.569 101.795 128.569 102.366C128.569 102.855 128.732 103.019 129.14 102.938C129.793 102.855 130.038 102.447 130.529 101.876C130.69 101.632 131.426 100.571 131.59 100.326L132.57 100.898ZM125.304 91.1023C124.407 91.1023 123.182 91.5112 122.202 93.1433C120.49 96.1637 119.999 98.2855 119.999 100.489C119.999 102.449 120.978 103.428 122.202 103.428C122.774 103.428 123.509 103.266 124.243 102.53C125.55 101.387 126.04 100.083 126.856 97.47C128.569 92.3266 126.528 91.1023 125.304 91.1023ZM139.508 104.408C136.405 104.408 133.874 101.878 133.874 98.4483C133.874 93.8778 138.365 90.2038 141.875 90.2038C145.139 90.2038 147.261 93.0603 147.261 95.9987C147.261 97.6318 146.608 99.346 145.547 100.814C143.752 103.428 141.385 104.408 139.508 104.408ZM144.242 93.8778C144.242 92.2458 143.59 91.0215 141.956 91.0215C140.732 91.0215 139.509 91.756 138.854 92.8165C137.957 94.2856 136.732 98.2035 136.732 100.326C136.732 102.693 138.121 103.427 139.263 103.427C140.161 103.427 141.14 102.938 141.711 102.283C142.689 101.14 143.344 99.101 143.751 97.224C144.077 95.9996 144.242 94.9383 144.242 93.8778ZM155.017 90.6947L154.281 93.9598C155.424 91.1843 157.791 90.1228 159.75 90.1228C161.3 90.1228 162.769 90.6126 162.769 92.6535C162.769 93.2251 162.607 93.714 162.525 94.2046L160.811 101.061C160.568 102.285 160.568 101.958 160.568 102.204C160.404 102.94 160.811 102.94 161.137 102.94C161.628 102.94 162.037 102.614 162.364 102.285C163.18 101.226 163.097 101.471 163.75 100.245L164.566 100.735C163.995 102.123 162.689 104.571 160.078 104.571C158.934 104.571 157.873 103.755 157.873 102.285C157.873 101.878 157.956 101.552 158.037 101.061L159.587 93.8788C159.751 93.4702 159.832 93.0623 159.832 92.7355C159.996 91.838 159.179 91.5111 158.608 91.5111C157.872 91.5111 156.893 92.2458 155.831 93.3882C154.2 95.1842 153.464 97.388 153.057 98.8572L151.749 104.163H148.894L151.913 91.5921H149.139L149.22 90.6947H155.017ZM28.0872 84.409H28.7398L28.8218 83.6743H29.4745L28.6578 85.0615C28.6578 85.2245 28.9027 85.1435 29.0667 85.1435L29.1487 85.0615V85.7141C28.496 85.959 27.7613 85.7141 27.7613 85.7141V85.0615C27.8433 85.1435 28.1702 85.2245 28.2512 85.0615L27.4345 83.6743H28.0872V84.409ZM14.2106 95.8368C14.3735 96.0817 14.4555 96.3265 14.5364 96.5715C14.7813 97.1432 15.0261 97.6328 15.353 98.2035L14.2926 99.1021C14.8643 99.8366 15.5169 100.489 16.0876 101.225C17.8017 99.9997 19.5157 98.6943 21.3938 97.7148C22.2103 97.307 23.3527 97.6328 24.2502 97.2251C23.5157 97.7968 23.1078 98.6123 22.4542 99.184C22.863 99.6738 23.0258 100.327 23.3527 100.899C22.5362 100.899 21.6387 100.98 20.904 100.735C21.067 101.143 21.067 102.204 21.1488 102.695C20.4143 102.369 19.5977 102.204 18.945 101.634C19.026 102.695 18.6182 103.513 18.2913 104.41C17.7207 103.919 17.231 103.43 16.9042 102.858C16.5773 103.594 15.8437 104.165 15.353 104.899L14.2926 106.451C14.5374 105.796 14.6194 104.982 14.6194 104.246C12.5785 103.921 10.2937 102.941 9.4761 100.817C9.31645 100.4 9.23348 99.9581 9.23123 99.512C9.8019 100.655 11.0262 101.307 12.1697 101.472C10.3736 100.41 8.98637 98.5325 8.82243 96.4107C9.39413 97.554 10.6185 98.6963 11.7609 99.1861V99.1042C9.88387 97.3092 8.74047 95.1043 8.98637 92.4916C9.33662 94.1 10.3037 95.5066 11.6799 96.4095C10.1287 94.3686 8.98637 91.839 9.88492 89.1455C9.96585 91.919 11.8439 94.3677 14.2106 95.8368ZM47.8407 96.4895C49.3098 95.592 50.2073 94.0408 50.6162 92.5715C50.7792 95.1841 49.6367 97.388 47.7597 99.183C48.984 98.6933 50.1275 97.6318 50.6982 96.4895C50.6162 97.8766 49.9635 99.1021 48.984 100.162C48.4943 100.653 47.9227 101.141 47.352 101.47C47.8898 101.381 48.4122 101.216 48.9032 100.979C49.5077 100.619 50.0127 100.114 50.3723 99.5098C50.2903 101.224 48.9852 102.856 47.434 103.51C46.6173 103.835 45.8018 104.081 44.9033 104.243C44.9033 104.979 44.9852 105.793 45.2302 106.448C44.5775 105.387 43.7598 104.324 42.9443 103.346C42.8073 103.203 42.697 103.037 42.6185 102.855C42.2917 103.427 41.802 103.916 41.2313 104.407C40.9055 103.51 40.4967 102.693 40.5787 101.631C39.926 102.283 39.1095 102.366 38.3748 102.692C38.3748 102.039 38.3748 101.385 38.6197 100.813C37.7222 100.977 36.8247 100.896 36.171 100.896C36.4158 100.324 36.6607 99.6706 37.0685 99.181C36.3338 98.6091 35.9262 97.7936 35.2725 97.222C36.007 97.5478 37.1505 97.3848 37.967 97.6298C38.8665 98.1261 39.7383 98.671 40.5787 99.2618L42.7825 100.812L43.3542 101.222H43.4362L45.2322 99.099L44.2527 98.2823C44.6605 97.5478 44.9873 96.7311 45.2322 95.9156C47.5988 94.3645 49.5578 91.9978 49.6398 89.1403C50.5342 91.837 49.3918 94.4496 47.8407 96.4895Z" fill="#909090"/>
<path fill-rule="evenodd" clip-rule="evenodd" d="M14.0479 95.1844C13.3953 94.8576 12.8236 94.205 12.4147 93.6333C12.4967 92.0831 12.9045 90.6948 13.5582 89.3076C13.2313 91.3475 13.5582 93.3885 14.0479 95.1844ZM47.1063 93.7141C46.6975 94.286 46.1268 94.8576 45.4742 95.1844C45.9638 93.3885 46.2907 91.3475 45.9638 89.3885C46.638 90.7365 47.0268 92.2091 47.1063 93.7141ZM15.5171 93.1435C15.68 92.6538 15.844 92.164 16.1708 91.6743C16.1708 92.246 16.0888 92.8986 16.4157 93.3885C17.3132 93.2255 18.3747 93.0616 19.3542 93.2255C18.8643 93.3885 18.2927 93.7971 18.0478 94.2859C17.9658 94.2039 17.9658 94.0409 17.8848 93.9601C17.64 93.9601 17.3952 94.0421 17.1503 94.0421L17.8848 94.7766C17.8028 95.1854 17.722 95.7561 17.8848 96.1639C17.9668 95.1024 18.5375 94.123 19.436 93.6333C19.9258 93.3885 20.4975 93.2254 20.9872 93.5513C21.231 93.7961 21.313 94.123 21.231 94.4498C21.231 94.286 21.0682 94.123 20.9053 94.0409C20.1707 93.7961 19.599 94.3668 19.1912 94.9385C19.1092 95.0205 18.9463 95.1835 18.9463 95.3473C19.2722 95.5921 19.681 95.5103 20.0887 95.4283C20.4155 95.3473 20.6603 95.2654 20.9872 95.0204C20.4155 95.8361 19.517 96.1629 18.7835 96.4898L19.0273 96.8985C18.8643 97.0615 18.7015 97.2253 18.5375 97.3073L18.0478 96.6546C17.4772 97.0624 16.9053 97.3893 16.4157 97.7981L16.8235 98.3688C16.6605 98.5316 16.4976 98.6956 16.3337 98.6956C14.9464 96.8996 13.885 94.2869 14.9464 92.0021L15.2733 91.5124C15.2722 92.0831 15.2722 92.6538 15.5171 93.1435ZM43.5142 98.2858L43.1883 98.6946C43.0255 98.6946 42.8615 98.5306 42.6987 98.4498C42.7807 98.2048 43.0255 98.0409 43.1075 97.7971C42.6177 97.3883 42.046 97.0624 41.4753 96.6536L40.9845 97.3063H40.9037C40.7407 97.1423 40.5768 97.0614 40.4138 96.9794C40.4958 96.8166 40.6588 96.6536 40.7407 96.4898C40.4138 96.3268 40.087 96.2448 39.7612 95.9999C39.2715 95.8371 38.7818 95.5103 38.5368 95.0216C39.0267 95.4293 39.8422 95.5923 40.5768 95.4293C40.5768 95.2664 40.4138 95.1855 40.4138 95.0216C40.005 94.4498 39.3525 93.9601 38.6178 94.0421C38.455 94.0421 38.373 94.205 38.292 94.3678V94.4498C38.21 94.286 38.21 93.8781 38.374 93.7153C38.6188 93.3894 39.0267 93.3895 39.4343 93.4703C40.333 93.6333 41.2305 94.4498 41.4753 95.3485C41.5563 95.5933 41.5563 95.9201 41.6382 96.246C41.8012 95.7561 41.7192 95.1024 41.6382 94.7766C41.8832 94.5318 42.128 94.287 42.3728 94.124C42.128 94.0421 41.8832 94.0421 41.6382 93.9611C41.6382 94.0431 41.5563 94.206 41.4753 94.287C41.2305 93.8791 40.7407 93.3895 40.169 93.3075C41.0665 93.0626 42.2088 93.2255 43.1075 93.4703C43.4332 92.9806 43.3523 92.327 43.2703 91.7563C43.6792 92.164 43.842 92.6538 44.005 93.2255C44.2498 92.6538 44.3307 92.1639 44.2498 91.5115C45.718 93.6333 44.8205 96.4898 43.5142 98.2858Z" fill="#909090"/>
<path fill-rule="evenodd" clip-rule="evenodd" d="M28.5772 79.6761H29.3937V79.0225H30.1283V79.6761H30.8628V79.0225H31.5975V81.5531L31.1078 81.9618V83.758H32.495C32.577 83.594 32.7398 83.4311 32.9858 83.5131H34.373C34.291 83.9218 34.1282 84.4106 33.7203 84.6565C33.6088 84.7585 33.4638 84.8165 33.3127 84.8193C33.6383 85.0643 33.7203 85.472 33.6383 85.8798C33.5565 86.0438 33.4755 86.2066 33.3127 86.2886C33.6383 86.7783 33.7203 87.432 33.3127 87.9206C34.0472 88.3295 33.3127 88.9001 33.3947 89.472C33.6395 89.6348 33.8843 89.7976 33.9663 90.1245C33.9663 90.4513 33.8843 90.7771 33.6395 90.9411C33.5575 91.0231 33.3945 91.0231 33.3137 91.0231C33.3137 91.268 33.5585 91.5128 33.8033 91.6756C34.2932 92.0015 35.1097 91.9206 35.6813 91.6756C35.9263 91.5128 36.2532 91.186 36.334 90.8591C36.416 90.6963 36.334 90.5333 36.252 90.3695C36.0072 90.0426 35.5995 89.9606 35.2727 90.0426C35.0072 90.1298 34.7778 90.3018 34.62 90.5323C34.3752 89.6348 34.457 88.4913 35.2727 87.9196C35.6813 87.7568 36.252 87.7568 36.6608 88.0016C36.7428 88.0016 36.8238 88.1656 36.9867 88.2465C36.9047 86.9401 37.0687 85.553 38.293 84.8183C39.0277 84.4095 40.088 84.4915 40.8227 84.9813L41.3133 85.39C41.7607 85.4273 42.209 85.3308 42.6013 85.1128C42.9938 84.8948 43.3125 84.5651 43.5172 84.1656C43.6812 84.0018 43.7622 83.676 43.7622 83.4311C44.2338 83.7786 44.5883 84.2618 44.778 84.8163C44.9677 85.3706 44.9835 85.9698 44.8235 86.5335C44.7415 86.6145 44.8235 86.6963 44.9055 86.7773C45.804 86.9413 46.4567 86.3695 47.1093 85.7978C47.1913 87.1851 46.7005 88.5733 45.3952 89.226C44.6607 89.5518 43.6812 89.3888 43.0285 88.9001C42.3758 88.4105 41.967 87.7568 41.6413 87.1041C41.3963 86.7773 40.9067 86.8593 40.417 86.9413C39.7643 87.0231 39.1107 87.513 38.7838 88.0846C38.7028 88.3295 38.6208 88.4925 38.6208 88.7373C38.7028 88.7373 38.8657 88.6553 38.9477 88.5733C39.5195 88.3285 40.254 88.4913 40.6618 88.9001C41.0707 89.309 41.1515 89.9606 40.9877 90.4513C40.8247 91.0231 40.253 91.5938 39.7633 91.7576C39.6813 91.186 39.3545 90.9411 39.0287 90.9411C38.212 90.7771 37.8852 91.5938 37.3145 92.0015C36.7428 92.5731 35.7633 92.981 35.8443 93.8795C35.8443 94.2873 36.0892 94.6961 36.416 94.94C36.579 95.022 36.7428 95.1028 36.9058 95.1028C35.8443 95.5116 34.3752 95.5926 33.4777 94.777C33.2327 95.1028 33.5595 95.7565 33.6405 95.8375C33.8853 96.3271 34.2122 96.736 34.2122 97.3076C33.7225 96.818 33.1518 96.655 32.4172 96.818C32.4172 96.818 32.0083 96.818 30.1313 97.9613C29.6417 98.2871 29.2338 98.4511 29.2338 98.4511C29.2338 98.4511 29.071 98.3691 28.989 98.3691C28.4173 97.9613 27.7647 97.6345 27.193 97.3896C26.9823 97.1701 26.8653 96.8773 26.8672 96.5731C26.9052 96.4146 26.9862 96.2698 27.1013 96.1546C27.2167 96.0395 27.3613 95.9585 27.5198 95.9205V95.7565L27.112 95.1038C26.8097 95.0331 26.51 94.9515 26.2135 94.859C25.152 95.3488 23.6828 95.5116 22.5405 95.1038C22.9482 95.023 23.357 94.7781 23.52 94.3693C23.6828 93.9615 23.6828 93.3898 23.357 93.063C22.7853 92.4103 22.0507 92.0025 21.562 91.268C21.2352 91.0231 20.7455 90.8591 20.3377 90.9421C20.1745 91.0096 20.034 91.1225 19.9328 91.2671C19.8315 91.4118 19.7737 91.5823 19.766 91.7586C19.1133 91.5138 18.4597 90.6973 18.4597 89.9626C18.4597 89.391 18.7045 88.9831 19.1133 88.6563C19.684 88.4115 20.4197 88.4115 20.8273 88.7383C20.8273 88.1666 20.5017 87.6768 20.0928 87.35C19.521 86.9423 18.6235 86.6975 17.971 87.0243C17.4812 87.7588 17.0735 88.4935 16.3388 88.9831C15.6851 89.391 14.7067 89.473 13.9711 89.0651C12.8287 88.4125 12.3389 87.1061 12.4199 85.8C12.8287 86.1268 13.3174 86.5345 13.8071 86.6985C14.052 86.7793 14.5417 86.8613 14.7866 86.6165C14.6237 86.3716 14.5417 85.8818 14.5417 85.719C14.6237 84.8215 15.0315 83.924 15.7661 83.3523C15.7661 84.1688 16.5007 84.9843 17.2353 85.2293C17.5622 85.3111 17.888 85.3931 18.2148 85.3931C18.8673 84.7405 19.684 84.4136 20.5815 84.5766C21.3162 84.7405 22.0507 85.3931 22.2955 86.0468C22.5405 86.6995 22.5405 87.516 22.5405 88.2506C22.8662 87.8418 23.357 87.679 23.9277 87.8418C24.4993 87.9238 24.8252 88.5765 24.9072 89.0661C24.9892 89.556 24.9892 90.1266 24.9072 90.5355C24.6623 90.2086 24.3365 89.9636 23.8457 90.0456C23.6008 90.0456 23.356 90.1276 23.193 90.3725C23.0292 90.6173 23.1112 91.0251 23.275 91.27C23.8457 92.0046 24.9072 92.0866 25.7237 91.9226C25.9687 91.8406 26.1325 91.7598 26.3763 91.6778C26.2135 91.9226 26.2135 92.3305 26.4583 92.5753C27.275 93.3918 28.6622 93.31 29.7225 93.065C30.5442 92.8233 31.3378 92.4955 32.0903 92.0866C31.5187 92.8211 32.2543 93.6368 32.4172 94.3713C32.661 93.9636 32.9888 93.5548 33.1518 93.065C33.2327 93.8816 33.7225 94.6161 34.539 94.8611C34.8648 94.943 35.2737 94.943 35.6813 94.8611C35.3557 94.4533 35.1917 93.9636 35.3557 93.4738C35.4365 92.8211 36.0902 92.4943 36.1722 91.9226C35.5195 92.3305 34.54 92.4933 33.8045 92.1675C33.3147 92.0046 32.907 91.5148 32.661 91.0251C31.3557 92.0866 29.7225 92.6573 27.8457 92.4943C28.0085 92.0866 28.2543 91.7598 28.4173 91.352H27.7647L27.193 92.4135C26.9698 92.2835 26.7973 92.0821 26.7032 91.8416C26.7032 91.5968 26.7842 91.27 26.947 91.1071C26.8662 91.0251 26.7032 91.0251 26.6212 91.0251C26.4482 90.972 26.2907 90.8773 26.1625 90.7493C26.0345 90.6211 25.9397 90.4636 25.8867 90.2905C25.8867 89.8828 26.1315 89.475 26.5403 89.475C26.5403 89.3121 26.4583 88.9853 26.5403 88.8223C26.5822 88.7038 26.6595 88.601 26.7618 88.528C26.864 88.4548 26.9863 88.4148 27.112 88.4136C27.112 88.4136 27.112 88.3316 27.193 88.3316V87.7598L26.2135 87.515L25.234 84.9843C25.234 84.9843 25.9687 84.4946 26.2955 84.2498C26.0505 84.0868 26.3775 83.924 26.3775 83.678L26.7852 83.1883C26.7043 82.7795 26.7852 82.3718 26.6223 82.045C27.0312 82.2078 27.3568 82.5346 27.7657 82.5346L28.3373 82.4526V81.963L27.9287 81.5541V79.0225H28.5812V79.6761H28.5772ZM29.7195 80.8995C29.1488 81.1443 29.2297 81.716 29.2297 82.2866H30.2092C30.2092 81.9608 30.2902 81.715 30.2092 81.3891C30.1283 81.2263 29.9643 80.8995 29.7195 80.8995ZM27.1078 82.7775L27.1888 83.3491C27.0258 83.594 26.78 83.758 26.78 84.0838L27.1888 84.6555C27.1888 84.9003 27.0258 85.1451 26.944 85.39L27.4347 86.3695H27.9245L28.4142 86.9413L28.904 86.3695H29.3117L29.8833 85.39C29.7195 85.1451 29.5565 84.9003 29.5565 84.6555L30.0473 84.0838C29.9653 83.758 29.8025 83.594 29.6385 83.3491V82.7775L29.1488 83.0223C28.6445 82.8595 28.1018 82.8595 27.5977 83.0223L27.1078 82.7775ZM32.9028 83.9198C32.8218 84.0008 32.7398 84.0826 32.577 84.1646C32.1682 84.2466 31.5155 84.0826 31.1078 84.2466C30.9438 84.3286 30.8628 84.4915 30.7808 84.6555C30.7808 84.8183 30.699 85.0631 30.8628 85.1451C31.1897 85.635 31.9243 85.472 32.414 85.472L32.577 85.635C32.577 85.7168 32.495 85.7978 32.414 85.7978H30.1283C29.9653 86.1246 29.7195 86.3695 29.7195 86.7773H29.0668L28.4142 87.5938L27.7615 86.7773H27.027V86.5335L26.4552 85.39C26.5462 85.1761 26.6278 84.9583 26.7002 84.7375L26.5372 84.5735L25.8027 85.1451L26.5372 87.1861L27.1898 87.349V87.1861H27.5987L27.5167 88.5733C27.5167 88.8181 27.2728 88.6553 27.1088 88.7373C26.864 88.9001 27.027 89.309 26.945 89.472C27.1197 89.3453 27.3232 89.2641 27.5372 89.2358C27.751 89.2073 27.9687 89.2325 28.1703 89.309L28.6602 87.9206C29.6395 88.0026 30.701 87.7578 31.4357 87.0231C31.6805 87.513 32.0073 87.9206 32.4152 88.3295V88.5743C32.4152 88.8193 32.1702 88.5743 32.0063 88.7383C31.8433 88.7383 31.8433 89.0641 31.8433 89.2281L32.1692 89.473C32.414 89.31 32.7408 89.31 32.9858 89.31L33.2297 88.3305L32.8218 87.8408C32.9847 87.7588 33.0657 87.596 33.1477 87.433C33.2285 87.0243 33.1477 86.6165 32.8218 86.2896C33.1477 86.1268 33.2297 85.8808 33.2297 85.555C33.1487 84.7385 32.1692 85.0653 31.5975 84.9833C31.2717 84.9833 31.2717 84.5745 31.5975 84.5745C32.1692 84.5745 32.9038 84.6565 33.3935 84.4116C33.6383 84.3296 33.8013 84.0858 33.8013 83.9218H32.9028V83.9198ZM15.517 84.3276L15.4361 84.4095C14.9464 85.1441 14.9464 86.2056 15.4361 86.9401C15.2732 87.0221 15.1912 87.1031 15.0273 87.1851C14.3747 87.43 13.5581 87.267 12.9864 86.8593C13.1493 87.512 13.5581 88.2465 14.2107 88.6543C14.7824 88.8991 15.4351 88.8991 15.9248 88.5723C17.0682 87.9196 17.2312 86.7763 17.8838 85.8788C16.9043 85.8788 15.9248 85.2261 15.517 84.3276ZM43.923 84.3276C43.596 85.307 42.6167 85.8788 41.6372 85.8788C42.2078 86.6953 42.3717 87.6748 43.2692 88.4095C43.759 88.7363 44.3297 88.9811 44.9833 88.7363C45.7998 88.4913 46.3705 87.6748 46.5345 86.8583C46.2897 87.0211 45.9638 87.184 45.637 87.266C45.0653 87.348 44.4937 87.266 44.0858 86.9401C44.1678 86.8583 44.1678 86.7763 44.2498 86.6953C44.5755 85.9606 44.4937 84.9813 43.923 84.3276ZM31.2707 87.5928L30.699 88.0006C30.699 88.1645 30.8618 88.2455 30.9438 88.3275C30.9438 88.4095 30.9438 88.6533 30.8618 88.6533C30.7798 88.7351 30.536 88.6533 30.454 88.7351C30.2902 88.7351 30.2092 88.8981 30.2092 89.061C30.454 89.061 30.699 89.061 30.8618 89.3058C31.0258 89.224 31.1887 89.061 31.4335 89.142C31.4335 88.8971 31.4335 88.7341 31.5965 88.4893C31.5965 88.4073 31.7603 88.3265 31.8413 88.3265C31.6258 88.1026 31.4347 87.8566 31.2707 87.5928ZM30.4552 89.4708C30.2912 89.3888 29.9653 89.3888 29.8025 89.5518C30.2113 89.7966 30.2922 90.3683 30.782 90.4503C30.9448 90.5323 31.1088 90.4503 31.1908 90.3683C30.9438 90.1235 30.7808 89.7146 30.4552 89.4708ZM29.1488 89.4708C28.904 89.3888 28.74 89.4708 28.5772 89.6338L29.2297 90.2863C29.4747 90.4503 29.8015 90.5313 30.0463 90.3683C29.7195 90.0415 29.4757 89.6338 29.1488 89.4708ZM31.1078 89.5518C31.3527 89.8786 31.5155 90.2045 31.8423 90.5313C31.9322 90.5718 32.0297 90.5928 32.1282 90.5928C32.2268 90.5928 32.3242 90.5718 32.414 90.5313C32.1692 90.2045 32.0053 89.8786 31.7615 89.6338C31.5975 89.4708 31.2707 89.4708 31.1078 89.5518ZM28.0053 89.6338C27.7605 89.5518 27.5157 89.5518 27.3527 89.7146C27.6795 89.9595 27.9245 90.2863 28.2513 90.5313C28.4142 90.6133 28.741 90.5313 28.904 90.4493C28.5772 90.1235 28.3322 89.7966 28.0053 89.6338ZM32.3322 89.7966C32.577 90.0415 32.7408 90.4493 33.0667 90.6133C33.2297 90.6951 33.3935 90.6951 33.4755 90.5313C33.5575 90.4493 33.5575 90.2865 33.5575 90.1225C33.3115 89.7146 32.7398 89.6338 32.3322 89.7966ZM26.863 89.8786C26.781 89.7966 26.6182 89.8786 26.4542 89.8786C26.3722 89.9606 26.3722 90.1235 26.3722 90.2863C26.4542 90.4503 26.5362 90.6133 26.699 90.6133C27.0248 90.6951 27.4337 90.6951 27.6785 90.5313C27.4347 90.2863 27.1898 89.9606 26.863 89.8786ZM23.3528 92.0005C23.9245 92.7351 24.4133 93.6326 24.0055 94.5311C23.9245 94.694 23.8427 94.776 23.7617 94.857C24.6592 94.939 25.3938 94.775 26.0475 94.3671C26.4552 94.5311 26.945 94.612 27.4347 94.612C27.9245 95.5915 28.4142 96.489 28.74 97.5505C28.822 96.8158 28.74 95.9993 28.5772 95.2646C28.4952 95.0208 28.4142 94.775 28.3322 94.612C28.9848 94.5301 29.6385 94.2851 30.2102 94.0403C30.618 93.7955 31.1078 93.5506 31.4347 93.0608C30.3742 93.7135 29.1488 94.0403 27.7615 94.1223C26.945 94.1223 26.0475 94.1223 25.6397 93.3058C25.4768 92.979 25.7217 92.5711 25.8027 92.3263C24.986 92.5721 24.0055 92.4093 23.3528 92.0005ZM20.7413 97.3886L18.4555 98.9398L16.2517 100.49H16.1707L15.0273 99.1026C15.1902 98.9398 15.4361 98.7758 15.599 98.613L16.2517 99.3476C16.6605 99.1026 17.0682 98.7758 17.477 98.4501C17.395 98.2871 17.1502 98.0413 17.0682 97.8783L17.8848 97.2258L18.3745 97.8783C18.7833 97.5526 19.272 97.3076 19.6798 97.0618L19.517 96.736C19.7618 96.572 20.0067 96.4091 20.3335 96.3271L20.7413 97.3886ZM40.005 96.735L39.8422 97.0608L41.1485 97.8773C41.3123 97.7145 41.4753 97.4695 41.6382 97.3066L42.4547 97.8773L42.046 98.449L43.2703 99.4285C43.5152 99.1836 43.6792 98.9388 43.923 98.694C44.0858 98.7748 44.3307 98.9388 44.4937 99.1016V99.1836L43.2692 100.489L40.3308 98.449L38.7797 97.4695L39.1885 96.3261C39.5153 96.4091 39.7602 96.572 40.005 96.735ZM25.3118 101.632L26.2913 100.082L27.2718 101.632H25.3118ZM34.1282 101.632H32.2512C32.5193 101.098 32.819 100.581 33.1487 100.082C33.4745 100.573 33.8013 101.143 34.1282 101.632ZM26.781 104.981C26.6182 105.306 26.5372 105.795 26.4552 106.286C26.6182 106.367 26.864 106.286 27.027 106.205H27.1088V106.694C26.945 106.613 26.782 106.613 26.5372 106.613C26.5372 106.858 26.6182 107.103 26.5372 107.429H26.0475C26.0475 107.103 26.0475 106.858 26.1295 106.613C25.8845 106.613 25.6397 106.613 25.4768 106.694V106.205C25.6397 106.286 25.8845 106.367 26.1295 106.286C26.1295 105.795 25.9665 105.388 25.8027 104.981C25.9665 104.736 26.2113 104.409 26.2923 104.164C26.3733 104.409 26.6182 104.735 26.781 104.981Z" fill="#909090"/>
<path fill-rule="evenodd" clip-rule="evenodd" d="M34.209 97.878H35.1885C35.5143 98.3677 35.9232 98.8574 36.3308 99.1842C35.8412 99.9189 35.5963 100.816 35.0257 101.552H35.9232C36.004 102.369 36.086 103.185 36.4938 103.838H31.1067V107.755H36.086C35.8412 111.346 33.0657 114.856 29.7183 116.163C26.3722 114.856 23.6787 111.346 23.4338 107.755H28.3312V103.838H23.025C23.4338 103.185 23.5147 102.369 23.5147 101.552H24.4122V101.471C23.8405 100.816 23.6777 100.001 23.1878 99.2662C23.1878 99.2662 23.1058 99.1842 23.1878 99.1842C23.5848 98.786 23.9402 98.3484 24.2483 97.878H27.1058C27.8403 98.2037 28.493 98.5305 29.1457 99.0214C30.1252 98.5317 31.0237 97.961 32.0022 97.3892C32.4918 97.2264 33.1455 97.0624 33.6342 97.3892C33.8013 97.5512 34.0462 97.714 34.209 97.878ZM34.5358 99.592H24.985V99.9179H25.9645L24.821 101.797C24.903 102.042 25.0658 102.369 25.3107 102.531C25.7195 102.856 26.2902 102.94 26.78 102.775C27.1888 102.614 27.5965 102.285 27.7595 101.797L26.699 99.9179H29.1477V100.654H29.6375L28.9848 101.47L29.7195 102.204L30.454 101.47L29.8013 100.654H30.2912L30.3732 99.9179H32.8218C32.8218 99.9179 32.0872 101.225 31.6783 101.797C31.7603 101.959 31.9232 102.205 32.0042 102.369C32.413 102.857 33.0647 102.94 33.6363 102.776C34.0452 102.695 34.5348 102.205 34.6158 101.798L33.4723 99.9189H34.5338V99.592H34.5358ZM28.3322 109.96H24.4962C25.0668 111.837 26.5372 113.713 28.3322 114.856V109.96ZM31.1077 109.96V114.856C32.2512 114.122 33.2295 113.142 34.0462 112.001C34.455 111.346 34.7807 110.693 35.0257 109.96H31.1077ZM43.759 114.367C43.678 114.963 43.678 115.567 43.759 116.162H43.3512C43.514 115.752 43.4332 115.182 43.4332 114.693C43.2702 115.101 43.1883 115.51 43.1073 115.917H42.7795C42.7795 115.51 42.6975 115.182 42.5347 114.856V116.082L42.6165 116.163C42.4537 116.244 42.2897 116.244 42.2078 116.244L42.2897 116.082C42.2897 115.592 42.2897 115.021 42.2078 114.53C42.3717 114.449 42.5347 114.449 42.7795 114.449C42.7795 114.694 42.9423 115.021 42.9423 115.266C43.0243 115.021 43.1872 114.694 43.1872 114.368H43.759V114.367ZM17.7208 114.774V116.162L17.8028 116.324C17.6398 116.324 17.477 116.243 17.313 116.243L17.395 116.081C17.395 115.51 17.477 114.938 17.313 114.448L17.8028 114.529L17.7208 114.774ZM41.801 114.774C41.719 115.346 41.964 116.081 41.4752 116.407C41.2303 116.488 40.9845 116.569 40.8215 116.407L40.7407 116.243V115.019L40.6587 114.938C40.7407 114.855 40.9845 114.774 41.1483 114.774L40.9845 114.938L41.0663 116.162C41.2293 116.407 41.3922 116.162 41.4752 116.081V114.855L41.3933 114.693C41.5562 114.612 41.719 114.612 41.883 114.529L41.801 114.774ZM16.9043 114.693C17.0672 115.101 17.0672 115.51 16.8223 115.836C16.5774 116.244 16.0877 116.162 15.5979 116.162C15.9237 115.752 15.7608 115.101 15.7608 114.529C15.7608 114.448 15.6789 114.448 15.6789 114.367C16.1696 114.367 16.6594 114.284 16.9043 114.693ZM16.1696 114.612L16.0877 115.917C16.2506 115.917 16.4145 115.917 16.4965 115.753C16.6594 115.511 16.6594 115.101 16.5784 114.775C16.4965 114.612 16.3336 114.612 16.1696 114.612ZM19.19 114.938V115.346C19.0262 115.265 18.9452 115.02 18.7003 115.101C18.3745 115.346 18.4555 115.673 18.5373 115.998C18.5373 116.162 18.6193 116.324 18.7823 116.408C18.9452 116.408 19.0262 116.408 19.19 116.325V116.735C18.7823 116.735 18.4555 116.654 18.2105 116.244C18.0467 115.918 18.0467 115.347 18.2915 115.101C18.4543 114.856 18.7003 114.775 18.9452 114.856C19.0262 114.855 19.1092 114.938 19.19 114.938ZM40.4947 115.265V115.346C40.3318 115.265 40.2498 115.265 40.0858 115.346L40.004 115.427C40.0858 115.836 40.004 116.407 40.1678 116.815L39.6782 117.06C39.841 116.569 39.6782 115.998 39.7602 115.51C39.5972 115.51 39.4333 115.752 39.3513 115.917C39.2693 115.753 39.3513 115.592 39.3513 115.427C39.6782 115.265 40.004 115.182 40.4127 114.938C40.4947 115.02 40.4947 115.182 40.4947 115.265ZM20.4963 115.998C20.4143 115.836 20.2515 115.673 20.0875 115.673C20.0057 116.163 20.0057 116.734 20.0875 117.142L19.6787 116.98C19.7607 116.489 19.6787 115.999 19.7607 115.428C19.5968 115.428 19.5158 115.347 19.3518 115.428V115.102L20.4953 115.593V115.998H20.4963ZM39.1065 115.998C39.1065 115.917 38.9435 115.917 38.8615 115.917C38.765 115.979 38.6848 116.063 38.628 116.163C38.5713 116.263 38.5397 116.375 38.5358 116.489C38.5358 116.734 38.5358 117.061 38.7797 117.142C38.9435 117.225 39.1065 117.061 39.1883 116.897V117.307C39.0255 117.388 38.7797 117.552 38.6167 117.469C38.4898 117.415 38.3827 117.323 38.3097 117.207C38.2365 117.09 38.201 116.953 38.2078 116.816C38.127 116.325 38.2898 115.918 38.7797 115.673C38.8615 115.592 39.0245 115.673 39.1065 115.592V115.998ZM21.149 115.917L21.067 116.081V117.306C21.067 117.387 21.23 117.468 21.3118 117.551C21.3938 117.551 21.5568 117.468 21.5568 117.387C21.4748 116.979 21.6377 116.489 21.4748 116.081L21.8837 116.324C21.7207 116.569 21.8017 116.896 21.8017 117.224C21.8017 118.038 21.149 117.793 20.9862 117.631C20.8222 117.468 20.7412 117.387 20.7412 117.141C20.6593 116.652 20.8232 116.081 20.6593 115.671L21.149 115.917ZM22.7822 116.653C22.7822 116.979 22.8642 117.225 22.945 117.551C23.109 117.306 23.19 117.06 23.2718 116.815C23.3538 116.815 23.5977 116.815 23.7617 116.896L23.6797 117.141L23.7617 118.448V118.61C23.6797 118.691 23.4348 118.61 23.3528 118.61C23.2708 118.529 23.4348 118.448 23.4348 118.448V117.141C23.2718 117.551 23.109 117.876 23.026 118.202L22.7812 118.119C22.7812 117.711 22.6182 117.305 22.5362 116.895C22.4542 117.354 22.4542 117.824 22.5362 118.283C22.3723 118.283 22.2913 118.202 22.2093 118.202H22.1275L22.2093 118.119C22.2913 117.63 22.2093 117.06 22.2093 116.569L22.1275 116.407L22.7822 116.653ZM37.7192 116.324C37.8012 116.815 37.964 117.224 38.128 117.631L38.209 117.793C38.046 117.793 37.8832 117.957 37.7192 117.957C37.8012 117.793 37.7192 117.712 37.7192 117.549C37.5563 117.549 37.3933 117.63 37.2295 117.711C37.2295 117.875 37.2295 118.037 37.3113 118.202C37.1475 118.283 36.9845 118.364 36.8217 118.364C37.0665 117.792 37.1475 117.223 37.2295 116.652V116.488C37.3933 116.407 37.5563 116.324 37.7192 116.324ZM37.6372 117.306L37.4743 116.653L37.3113 117.387L37.6372 117.306ZM36.7397 116.979C36.8217 117.141 36.8217 117.468 36.6577 117.631C36.5758 117.793 36.3308 117.793 36.086 117.876C36.086 118.119 36.086 118.365 36.168 118.529C36.004 118.61 35.8412 118.529 35.6783 118.61C35.8412 118.119 35.7602 117.551 35.7602 116.979L35.6783 116.815C36.087 116.896 36.4948 116.57 36.7397 116.979ZM36.087 116.979V117.631C36.169 117.631 36.332 117.631 36.332 117.551C36.4138 117.387 36.4138 117.225 36.4138 117.141C36.4128 116.979 36.168 116.979 36.087 116.979Z" fill="#909090"/>
<path fill-rule="evenodd" clip-rule="evenodd" d="M22.9452 101.47C23.027 102.368 22.7822 103.184 22.2105 103.918C22.2925 104.082 22.4553 104.244 22.5373 104.326C22.8632 104.326 23.109 104.409 23.272 104.245C23.5168 104.083 23.6797 104.245 23.7617 104.409C23.9245 104.409 24.0055 104.409 24.1695 104.326C24.1695 104.409 24.0885 104.571 24.0065 104.571C23.9257 104.654 23.9257 104.654 23.8437 104.654C23.6807 104.816 23.5988 104.979 23.3538 104.896C23.272 104.735 23.109 104.816 22.9452 104.816C23.19 105.06 23.4348 105.306 23.7617 105.387H24.2515C24.4143 105.468 24.3333 105.713 24.4963 105.795H24.7402C24.6592 106.04 24.3323 105.959 24.1683 106.123C23.7607 106.204 23.5977 105.795 23.3528 105.713L22.944 105.387C22.944 105.795 23.108 106.123 23.3528 106.449C23.5158 106.53 23.6787 106.53 23.7617 106.611C23.9245 106.691 23.7617 106.936 24.0055 106.936H24.2503C24.0875 107.181 23.7607 107.1 23.5977 107.262C23.4348 107.345 23.272 107.262 23.108 107.181C23.026 107.019 23.026 106.855 23.026 106.69C22.6183 106.283 22.4543 105.712 22.2915 105.223C22.2095 105.304 22.1285 105.385 22.2095 105.466C22.2095 105.549 22.3723 105.711 22.2095 105.876C22.1275 105.957 22.2095 106.121 22.2095 106.202C22.1275 106.121 22.0465 106.038 21.8837 105.957C21.8017 105.957 21.5578 105.793 21.8017 105.385C21.8017 105.14 21.9657 104.894 22.0465 104.652C22.0465 104.569 21.8837 104.407 21.8017 104.324C20.8222 105.223 19.5978 105.631 18.4545 106.121C18.2107 106.283 17.8838 106.61 17.8018 106.935C17.8018 107.099 17.8838 107.18 18.0467 107.345C19.0262 107.59 19.8427 106.69 20.8222 107.262C21.4748 107.672 21.149 108.733 22.0465 108.976C21.6378 109.14 21.149 109.386 20.9862 109.874C20.9042 110.365 20.9042 111.1 21.23 111.507C21.9647 112.323 23.5158 111.507 23.8427 112.812C23.8427 113.057 23.8427 113.303 23.5977 113.467C23.5987 113.614 23.5617 113.759 23.4902 113.887C23.4188 114.016 23.3153 114.124 23.19 114.2L22.9452 114.281C23.027 114.12 23.109 113.956 23.027 113.793C22.9633 113.647 22.847 113.531 22.7013 113.467C22.7013 113.629 22.6193 113.875 22.5383 114.039C22.3745 114.281 22.1295 114.281 21.8857 114.364C22.0487 114.12 22.0487 113.955 21.9677 113.71C21.9677 113.629 21.8857 113.467 21.8038 113.467C21.6408 113.793 21.314 114.12 20.9063 114.2C20.9882 114.039 21.0692 113.875 20.9882 113.629C20.9882 113.303 20.4985 113.384 20.4165 113.057C20.0897 112.566 19.6 112.24 19.0282 112.323C19.355 111.833 19.8448 111.343 19.6 110.69C19.518 110.365 19.1922 110.038 18.8653 109.957H18.3757C18.2127 109.466 17.8858 108.895 17.3962 108.813C17.3142 108.813 17.3142 108.732 17.2332 108.813C17.723 109.466 17.805 110.608 17.3962 111.426C17.0703 112.404 15.9269 112.65 15.3552 113.467C18.0488 113.303 20.1717 114.445 22.2935 115.508C22.7023 115.67 23.192 115.834 23.6808 115.916C23.7627 115.671 23.6808 115.425 23.9257 115.344C24.7412 115.099 25.7207 115.344 26.3743 115.916C26.7012 116.16 26.5382 116.651 26.6192 116.977C26.945 117.139 27.3538 117.139 27.7627 117.303C29.3138 117.465 31.1098 117.465 32.579 117.139C32.66 117.058 32.8238 117.058 32.9048 116.977C32.9048 116.651 32.8238 116.322 32.9868 116.08C33.7215 115.425 34.7008 115.099 35.5995 115.344C35.8433 115.508 35.7623 115.67 35.7623 115.916C37.2315 115.752 38.374 114.854 39.6803 114.365C41.0675 113.794 42.5367 113.385 44.1698 113.468C43.5172 112.651 42.2918 112.325 41.966 111.182C41.7212 110.446 41.8032 109.468 42.2918 108.815C42.1237 108.812 41.9582 108.856 41.8138 108.943C41.6697 109.029 41.5527 109.154 41.4763 109.304C41.3133 109.549 41.2315 109.795 41.1495 109.959C40.7417 109.959 40.252 110.04 40.006 110.448C39.7612 110.773 39.7612 111.345 40.006 111.755L40.4148 112.327C39.8432 112.244 39.3533 112.652 39.0277 113.141C38.8647 113.469 38.375 113.386 38.4558 113.796C38.4558 113.958 38.4558 114.041 38.6188 114.122C38.374 114.122 38.129 114.041 37.9662 113.796C37.8022 113.713 37.8022 113.47 37.6393 113.47C37.3945 113.632 37.4765 113.959 37.5573 114.204V114.285C37.3945 114.368 37.2305 114.285 37.0677 114.204C36.9147 113.989 36.8293 113.733 36.8228 113.47C36.6598 113.47 36.5778 113.551 36.4958 113.713C36.414 113.796 36.414 113.958 36.414 114.123L36.4958 114.285C36.251 114.204 35.9252 113.959 35.8433 113.713V113.47C35.6803 113.306 35.5995 112.979 35.6803 112.734C36.0892 111.265 38.374 112.57 38.5378 110.774C38.6188 110.203 38.5378 109.631 37.9662 109.224C37.8022 109.143 37.6393 109.062 37.3945 108.979C38.292 108.737 37.9662 107.593 38.8637 107.184C39.7612 106.777 40.5778 107.675 41.4763 107.265C41.7202 107.184 41.7202 107.022 41.7202 106.777C41.1495 105.96 40.17 105.879 39.3533 105.388C38.7817 105.062 38.21 104.817 37.7213 104.327C37.5583 104.41 37.4765 104.572 37.4765 104.655C37.4765 104.898 37.6393 105.143 37.7213 105.469C37.8842 105.633 37.8033 105.879 37.6393 105.879C37.5573 106.041 37.3945 106.124 37.2305 106.205C37.3125 106.124 37.3125 106.041 37.3125 105.96C37.1485 105.879 37.1485 105.715 37.2305 105.552C37.3125 105.469 37.2305 105.388 37.2305 105.307V105.226C37.0693 105.779 36.8215 106.302 36.4958 106.777C36.4958 106.938 36.4958 107.102 36.333 107.184C36.1702 107.266 36.0062 107.265 35.8433 107.265C35.6803 107.103 35.3535 107.184 35.1907 106.939C35.3535 106.939 35.5165 106.939 35.5995 106.859C35.5995 106.695 35.7623 106.614 35.8433 106.533C35.9252 106.452 36.0062 106.533 36.0882 106.452C36.333 106.126 36.4958 105.797 36.5778 105.471H36.4958C36.251 105.716 35.9252 105.797 35.5983 106.043C35.4345 106.126 35.2715 106.126 35.1077 105.962C35.0267 106.043 34.7818 105.962 34.6998 105.798C34.7818 105.798 34.9447 105.881 35.0267 105.717C35.0267 105.636 35.1077 105.472 35.1897 105.391C35.3525 105.31 35.5153 105.391 35.5983 105.472C35.6793 105.472 35.8422 105.472 35.9242 105.31C36.0872 105.23 36.332 104.985 36.4948 104.82C36.25 104.658 36.0052 105.065 35.7603 104.82L35.6783 104.658C35.5942 104.659 35.5113 104.636 35.4392 104.593C35.367 104.55 35.3083 104.488 35.2695 104.413V104.33C35.3515 104.33 35.5143 104.413 35.6783 104.413C35.7603 104.249 35.8412 104.249 36.0042 104.249C36.086 104.249 36.249 104.249 36.331 104.33C36.5758 104.33 36.8207 104.494 36.9835 104.249L37.3103 103.923C36.7387 103.271 36.4118 102.373 36.5758 101.476C37.0655 101.476 37.4743 101.476 37.9642 101.393C37.8822 102.047 37.8822 102.781 37.8002 103.433C37.8002 103.433 38.8617 103.191 40.1678 102.619C40.2498 103.597 40.7397 104.414 41.0655 105.232C41.5552 104.741 42.1258 104.415 42.6167 103.843C43.596 104.903 44.6575 106.046 45.0653 107.434C45.2292 108.251 45.2292 109.229 46.1267 109.637C46.2897 109.72 46.4535 109.72 46.6165 109.72C46.7793 109.72 46.8613 109.556 46.8613 109.475C46.9433 108.742 46.4535 108.251 46.2087 107.598C45.8828 107.027 45.801 106.046 46.2087 105.557C46.7805 104.822 47.9228 105.393 48.4945 104.741C48.5765 104.577 48.6585 104.415 48.7393 104.25C48.8213 104.576 48.6573 104.903 48.6573 105.231C48.8203 105.148 49.0652 105.067 49.2292 104.986L49.7188 104.495C49.31 105.392 49.474 106.698 48.2497 106.943C47.9228 106.943 47.597 106.943 47.2702 106.862C47.1073 106.862 47.0263 106.943 46.9443 107.026V107.268C47.2702 108.249 48.2507 109.228 47.597 110.29C47.2702 110.698 46.7805 110.779 46.3727 110.698C45.9648 110.536 45.638 110.29 45.3122 109.964L45.2303 110.207C45.1483 111.433 45.3122 112.902 46.4547 113.555C46.5355 113.555 46.6985 113.636 46.7805 113.636L46.6175 113.8V113.881C47.1892 113.962 47.8418 113.962 48.4125 113.881L48.4945 117.472C47.597 117.636 46.6175 117.472 45.801 117.31C45.1473 117.718 44.9023 118.454 44.2498 118.696C44.0858 118.779 44.0858 118.941 44.1678 119.106C44.1678 119.187 44.2498 119.268 44.3307 119.351C44.0048 119.351 43.678 119.106 43.596 118.86C43.5142 118.779 43.5142 118.696 43.5142 118.534C43.2692 118.615 43.1883 118.86 43.1883 119.106V119.268C42.8615 119.187 42.6167 118.779 42.6167 118.454C42.4537 118.454 42.2898 118.696 42.2898 118.861L42.2078 119.025C41.963 118.697 41.882 117.882 42.1258 117.392L42.2887 117.23C41.799 117.23 41.3912 117.392 40.9823 117.473C38.7787 118.045 36.9835 120.004 34.5348 119.433V118.535C34.29 118.455 34.126 118.616 33.9632 118.697V120.086C33.1467 120.821 32.0042 120.821 31.0248 120.983H28.5698C27.5323 120.91 26.5477 120.709 25.7185 120.25L25.5557 120.169V118.697C25.3928 118.535 25.2288 118.535 24.984 118.455V119.433L24.902 119.514C23.9225 119.678 22.943 119.433 22.0455 119.106L19.4328 117.799C18.7803 117.556 18.0457 117.31 17.229 117.229C17.6378 117.637 17.6378 118.454 17.311 118.941V119.024C17.229 118.779 17.1482 118.533 16.9033 118.369C16.8213 118.614 16.8213 118.86 16.6584 119.024C16.5764 119.105 16.4955 119.186 16.3326 119.267C16.3326 119.024 16.3326 118.695 16.0877 118.533C16.0068 118.859 15.6789 119.267 15.2722 119.35H15.1902C15.3531 119.186 15.4351 118.94 15.3531 118.778C14.7005 118.452 14.3737 117.635 13.721 117.309C12.9044 117.471 12.0069 117.635 11.1084 117.471V113.88C11.6801 113.961 12.3327 113.961 12.9044 113.799L12.7405 113.635C13.3942 113.554 13.8839 112.901 14.1288 112.33C14.3737 111.594 14.3737 110.777 14.2108 109.963L13.721 110.452C13.3122 110.697 12.6606 110.777 12.1698 110.535C12.0086 110.414 11.8846 110.251 11.8123 110.063C11.74 109.875 11.7222 109.671 11.761 109.473C11.843 108.657 12.3327 108.004 12.6596 107.187C12.6596 107.026 12.5776 106.943 12.4967 106.862C11.7621 106.943 11.0264 107.026 10.5367 106.454C10.0469 105.882 10.1289 105.066 9.88403 104.494C10.1289 104.902 10.5367 105.066 10.8635 105.23C10.8635 104.902 10.7006 104.575 10.7815 104.249C10.9444 104.575 11.2713 104.902 11.5981 104.985C12.2508 105.147 12.9854 104.985 13.3942 105.637C14.1288 106.943 12.8225 108.004 12.6596 109.228C12.6596 109.392 12.6596 109.473 12.7405 109.636C12.9044 109.719 13.0673 109.8 13.2313 109.719C14.6185 109.309 14.1288 107.678 14.7005 106.698C15.2722 105.719 16.0877 104.74 16.9043 103.842C17.394 104.331 17.8838 104.74 18.4545 105.231C18.7813 104.414 19.271 103.597 19.353 102.618C20.0877 102.944 20.9042 103.19 21.6388 103.432C21.6388 102.78 21.6388 102.046 21.5578 101.392C21.9657 101.47 22.4553 101.387 22.9452 101.47ZM15.1093 114.041C14.8644 114.529 14.9464 115.182 15.0273 115.753C15.1093 116.081 15.3531 116.488 15.68 116.569C17.2312 116.569 18.7003 116.895 19.9247 117.467C21.394 118.119 22.7002 119.181 24.4963 119.019V116.406C23.6797 116.487 22.8632 116.323 22.1285 115.997C19.9247 114.855 17.8028 113.713 15.1093 114.041ZM40.086 114.693L37.4743 115.918C36.7397 116.243 35.9232 116.489 35.0257 116.408V119.021C35.7603 119.102 36.4128 118.938 37.0655 118.693L39.5962 117.469C40.6567 117.061 41.718 116.735 42.8605 116.654C43.1873 116.571 43.677 116.735 44.0038 116.49C44.1537 116.414 44.2788 116.296 44.3655 116.152C44.452 116.008 44.4963 115.842 44.4937 115.674C44.5755 115.183 44.6575 114.53 44.4127 114.043C42.9383 113.877 41.4463 114.101 40.086 114.693ZM13.2313 114.285C12.6596 114.368 12.1698 114.448 11.5981 114.448V117.061C12.0069 117.061 12.4967 117.061 12.9854 116.897C13.3942 116.244 13.5571 115.347 13.3942 114.53L13.2313 114.285ZM46.2897 114.285C45.8818 115.101 46.0448 116.244 46.5345 116.98C47.0253 117.061 47.514 117.061 48.0048 117.061V114.448C47.3512 114.448 46.8613 114.368 46.2897 114.285ZM26.0475 117.306V119.919C26.2103 120.08 26.5372 120.163 26.782 120.244C28.2523 120.57 29.9653 120.652 31.5165 120.406C32.1692 120.325 32.9038 120.244 33.4755 119.835V117.305C32.9858 117.55 32.4152 117.631 31.8433 117.713C29.9643 117.959 27.7605 117.959 26.0475 117.306Z" fill="#909090"/>
<path fill-rule="evenodd" clip-rule="evenodd" d="M27.1897 118.12C27.1897 118.448 27.2717 118.692 27.3527 118.936C27.4345 118.692 27.5155 118.448 27.5155 118.203C27.6795 118.203 27.9243 118.203 28.0872 118.284L28.0052 118.448C28.0872 119.019 28.0052 119.507 28.0872 119.998H27.6795C27.7613 119.59 27.7613 119.019 27.7613 118.61C27.5985 118.935 27.4357 119.262 27.4357 119.671C27.4357 119.671 27.2727 119.671 27.1907 119.59C27.1907 119.18 27.0278 118.854 26.9458 118.447C26.8648 118.905 26.8648 119.374 26.9458 119.833L26.62 119.671C26.783 119.261 26.702 118.774 26.702 118.283C26.62 118.202 26.62 118.038 26.62 117.957L27.1897 118.12ZM32.9027 118.039C32.7397 118.449 32.8217 119.019 32.8217 119.591V119.672C32.7093 119.774 32.5642 119.831 32.4128 119.834C32.4938 119.345 32.4938 118.936 32.4938 118.448C32.4128 118.855 32.25 119.181 32.168 119.591C32.086 119.672 32.0052 119.672 31.9232 119.672C31.9232 119.262 31.7603 118.936 31.6783 118.611C31.6783 119.02 31.5963 119.591 31.7603 119.999C31.5963 119.999 31.4333 119.999 31.2705 120.08C31.4333 119.591 31.3525 119.02 31.4333 118.449L31.2705 118.284C31.5153 118.284 31.6793 118.284 31.8422 118.203C31.9242 118.284 31.9242 118.448 31.9242 118.529L32.0872 119.019C32.169 118.692 32.251 118.448 32.251 118.12C32.4948 118.12 32.6578 118.039 32.9027 118.039ZM29.3935 118.692C29.2307 118.53 29.0677 118.53 28.9038 118.611V119.02C28.9858 119.101 29.1487 119.101 29.3115 119.02V119.346C29.1487 119.263 29.0667 119.263 28.9038 119.263V119.835C28.9858 119.918 29.2297 119.918 29.3935 119.835H29.4755V120.163C29.1487 120.163 28.7408 120.08 28.414 120.08C28.496 119.918 28.577 119.754 28.577 119.508C28.495 119.1 28.659 118.692 28.414 118.284L29.3935 118.365V118.692ZM31.0257 118.284C30.8617 118.775 30.9437 119.345 30.8617 119.834C30.8617 119.917 30.7797 120.079 30.6168 120.162C29.9642 120.324 29.8003 119.834 29.8003 119.834C29.8003 119.345 29.8822 118.775 29.7183 118.365H30.209C30.0462 118.775 30.1272 119.262 30.1272 119.753C30.209 119.834 30.29 119.834 30.372 119.917C30.454 119.917 30.6168 119.834 30.6978 119.753C30.6978 119.262 30.6978 118.855 30.6158 118.448V118.365C30.6988 118.284 30.8627 118.365 31.0257 118.284ZM69.5532 114.448C69.5532 114.693 69.5532 114.939 69.635 115.1C69.88 115.591 70.4517 115.753 71.0223 115.753C71.4312 115.753 72.1657 115.591 72.1657 114.939C72.1657 114.448 71.757 114.284 70.2068 113.877C68.7375 113.469 67.1055 113.061 67.1055 111.265C67.1055 109.143 68.9005 108.245 70.7785 108.245C72.7375 108.245 74.5335 108.979 74.6145 111.184H71.9208C72.0028 110.858 71.8388 110.612 71.594 110.448C71.3492 110.293 71.0668 110.209 70.7775 110.203C70.3687 110.203 69.717 110.367 69.717 110.858C69.798 111.51 71.1043 111.674 72.4107 112.001C73.717 112.328 74.9413 112.98 74.9413 114.614C74.9413 116.981 72.8195 117.795 70.7785 117.795C69.7182 117.795 66.7797 117.387 66.7797 114.449H69.5532V114.448ZM77.7977 110.774H75.1852V108.406H83.1028V110.774H80.5733V117.55H77.7977V110.774ZM86.2053 112.979C86.2053 110.938 87.2657 110.448 88.0003 110.448C88.7348 110.448 89.7963 110.939 89.7963 112.979C89.7963 115.018 88.7348 115.509 88.0003 115.509C87.2657 115.509 86.2053 115.02 86.2053 112.979ZM83.3488 112.979C83.3488 115.753 85.2258 117.794 88.0013 117.794C90.7768 117.794 92.5728 115.753 92.5728 112.979C92.5728 110.202 90.7768 108.245 88.0013 108.245C85.2258 108.245 83.3488 110.202 83.3488 112.979ZM99.5922 111.835C99.5102 111.509 99.2653 110.447 98.1228 110.447C96.8167 110.447 96.3268 111.754 96.3268 112.978C96.3268 114.201 96.8167 115.508 98.1228 115.508C99.0205 115.508 99.4282 114.854 99.5922 113.956H102.368C102.368 115.835 100.816 117.792 98.2038 117.792C95.1845 117.792 93.5513 115.67 93.5513 112.977C93.5513 110.119 95.3473 108.243 98.2038 108.243C100.654 108.243 102.042 109.548 102.285 111.834H99.5922V111.835ZM103.511 108.406H106.367V111.59L108.897 108.406H112.326L109.061 111.999L112.898 117.55H109.388L107.102 113.957L106.367 114.855V117.55H103.511V108.406ZM116.651 108.406H124.161V110.774H119.428V111.916H123.753V114.04H119.428V115.181H124.325V117.55H116.651V108.406ZM128.08 112.733L125.14 108.406H128.407L129.793 110.938L131.1 108.406H134.284L131.345 112.733L134.61 117.55H131.181L129.631 114.855L127.997 117.55H124.814L128.08 112.733ZM140.649 111.835C140.568 111.509 140.324 110.447 139.18 110.447C137.794 110.447 137.385 111.754 137.385 112.978C137.385 114.201 137.795 115.508 139.18 115.508C140.08 115.508 140.487 114.854 140.649 113.956H143.345C143.345 115.835 141.876 117.792 139.18 117.792C136.242 117.792 134.611 115.67 134.611 112.977C134.611 110.119 136.406 108.243 139.18 108.243C141.711 108.243 143.099 109.548 143.345 111.834H140.649V111.835ZM144.649 108.406H147.426V111.59H150.036V108.406H152.893V117.55H150.036V113.957H147.426V117.55H144.649V108.406ZM157.384 114.284L158.282 111.509L159.096 114.284H157.384ZM153.545 117.55H156.322L156.73 116.243H159.668L160.078 117.55H162.936L159.669 108.407H156.895L153.545 117.55ZM163.749 108.406H166.606L169.218 113.304H169.3V108.406H171.913V117.55H169.218L166.445 112.569H166.362V117.55H163.749V108.406ZM180.075 116.653C179.503 117.386 178.525 117.794 177.463 117.794C174.768 117.794 173.137 115.672 173.137 113.061C173.137 109.632 175.585 108.245 177.627 108.245C179.993 108.245 181.462 109.47 181.87 111.591H179.177C179.013 110.939 178.523 110.448 177.788 110.448C175.912 110.448 175.993 112.489 175.993 113.142C175.993 113.958 176.32 115.51 178.035 115.51C178.687 115.51 179.342 115.182 179.503 114.449H178.198V112.489H181.953V117.551H180.157L180.075 116.653ZM183.503 108.406H191.095V110.774H186.362V111.916H190.605V114.04H186.362V115.181H191.177V117.55H183.503V108.406Z" fill="#909090"/>
<g clip-path="url(#clip0_11_1066)">
<path d="M248 101.768L251.958 79.5991H260.469C266.716 79.5991 270.248 83.6087 268.948 90.9052C267.456 99.2528 262.57 101.768 256.349 101.768H248Z" fill="#909090"/>
<path d="M255.28 96.5986H256.625C259.588 96.5986 261.522 94.8141 262.272 90.6239C263.096 86.0041 261.995 84.7725 258.604 84.7725H257.389L255.28 96.5986Z" fill="#EFF6FE"/>
<path d="M290.579 90.563C289.23 98.1059 284.031 102.356 278.294 102.356C272.208 102.356 268.91 98.0457 270.259 90.5028C271.498 83.5429 276.429 79.0161 282.461 79.0161C289.382 79.0161 291.624 84.7116 290.579 90.563Z" fill="#909090"/>
<path d="M276.602 90.5636C276.097 93.3963 276.219 96.9379 279.262 96.9379C282.01 96.9379 283.571 94.2283 284.225 90.5636C284.762 87.5449 284.257 84.3454 281.44 84.4385C278.557 84.4358 277.102 87.7611 276.602 90.5636Z" fill="#EFF6FE"/>
<path d="M309.947 91.8478H310L314.793 79.603H320.517L311.157 101.769H304.909L304.306 88.9002H304.252L299.085 101.769H293.084L291.805 79.603H297.614L298.345 91.8478H298.401L303.327 79.603H309.077L309.947 91.8478Z" fill="#909090"/>
<path d="M399.929 98.8858C401.275 98.2483 402.049 97.033 402.464 94.7203C403.906 86.6548 392.386 88.7184 392.98 85.3931C393.123 84.5912 393.825 84.1314 395.224 84.1314C395.844 84.1314 396.389 84.2545 396.796 84.5309C397.206 84.8101 397.472 85.2726 397.443 86.0417H403.475C403.706 82.1553 401.818 79.0161 396.432 79.0161C391.586 79.0161 387.107 80.7869 386.267 85.4998C384.756 93.9677 395.799 91.8576 395.799 95.2677C395.799 96.9783 392.847 96.5787 392.847 96.5787C389.19 96.5787 389.514 93.5627 389.514 93.5627H383.426C383.317 95.8589 383.665 97.2984 384.365 98.199C383.563 98.1799 382.762 98.1626 381.961 98.1469L382.224 95.9082H374.809L375.431 92.0875H382.764L383.437 87.5141H376.351L376.918 84H384.543L385.301 79.5991H371.489L368.194 98.0675L365.367 98.0895L368.915 79.5991H363.577L361.409 90.5904L356.898 79.6018H350.946L347.467 99.0829C345.879 99.2526 344.307 99.447 342.746 99.655C345.14 97.6515 346.946 94.5726 347.661 90.563C348.709 84.7116 346.464 79.0161 339.544 79.0161C333.512 79.0161 328.583 83.5429 327.341 90.5001C326.336 96.1353 327.921 99.9643 331.323 101.541C328.28 102.137 325.312 102.789 322.426 103.487C324.006 100.873 324.636 96.7977 325.277 93.2096L327.708 79.5991H321.684L318.325 98.0731C318.325 98.0731 317.796 101.368 315.886 101.368H312.976L311.175 106.525C291.127 111.303 272.748 121.98 272.748 121.98H283.222C283.222 121.98 341.9 87.8535 429.341 104.275L430.005 103.506C430 103.508 423.028 100.41 399.929 98.8858Z" fill="#909090"/>
<path d="M333.687 90.5636C334.187 87.7638 335.642 84.4385 338.525 84.4385C341.342 84.3454 341.847 87.5476 341.31 90.5636C340.656 94.2283 339.094 96.9379 336.347 96.9379C333.304 96.9379 333.182 93.3963 333.687 90.5636ZM354.611 89.3184L358.813 98.2407C356.912 98.3172 355.021 98.4267 353.146 98.5689L354.611 89.3184Z" fill="#EFF6FE"/>
</g>
<g clip-path="url(#clip1_11_1066)">
<path d="M541.566 107.054C535.931 107.054 532.366 103.687 532.366 98.4617C532.366 92.8885 535.586 89.5214 540.761 89.5214H541.221C542.141 89.5214 543.061 89.5214 543.981 89.6375V82.9033H547.661V106.357C545.706 106.821 543.636 107.054 541.566 107.054ZM541.451 92.424C537.886 92.424 536.161 94.3979 536.161 98.3455C536.161 101.945 538.231 104.151 541.681 104.151C542.371 104.151 543.061 104.151 544.096 104.035V92.6564C543.176 92.5402 542.371 92.424 541.451 92.424ZM491.082 106.589L481.077 88.9409V106.589H477.627V84.2966H482.457L492.462 101.713V84.2966H496.027V106.589H491.082ZM522.821 106.938C520.981 106.938 519.141 106.705 517.301 106.357H517.071V103.222L517.416 103.338C519.026 103.803 520.751 104.035 522.361 104.035C523.626 104.035 526.616 103.803 526.616 101.945C526.616 100.319 524.546 99.971 522.936 99.6227H522.821L521.901 99.2744C519.486 98.6939 516.841 97.6489 516.841 94.3979C516.841 91.1469 519.371 89.4053 523.741 89.4053C525.351 89.4053 526.961 89.5214 528.571 89.8697L529.146 89.9859V93.0047H528.801C527.306 92.6564 525.696 92.5402 524.201 92.424C522.476 92.424 520.406 92.7724 520.406 94.2819C520.406 95.559 522.131 95.9074 524.086 96.3717C526.846 96.9522 530.181 97.765 530.181 101.48C530.296 104.964 527.536 106.938 522.821 106.938ZM558.126 106.938C554.331 106.938 550.766 106.241 550.766 101.364C550.766 96.0234 556.286 96.0234 559.506 96.0234C559.85 96.0234 561.345 96.1395 561.805 96.1395C561.805 93.1207 561.805 92.424 557.436 92.424C555.711 92.5402 553.871 92.6564 552.146 93.1207H551.801V90.218H552.031C553.871 89.8697 555.826 89.6375 557.78 89.6375C561.92 89.6375 565.486 90.102 565.486 95.3267V106.705H565.255C562.84 106.705 560.54 106.821 558.126 106.938ZM559.391 98.5777C556.286 98.5777 554.331 99.0422 554.331 101.364C554.331 104.035 556.861 104.267 559.16 104.267C560.081 104.267 561.575 104.151 562.035 104.151V98.6939L559.391 98.5777ZM506.376 106.938C502.581 106.938 499.016 106.241 499.016 101.364C499.016 96.0234 504.536 96.0234 507.756 96.0234C508.101 96.0234 509.596 96.1395 510.056 96.1395C510.056 93.1207 510.056 92.424 505.686 92.424C503.961 92.5402 502.121 92.6564 500.396 93.1207H500.051V90.218H500.281C502.121 89.8697 504.076 89.6375 506.031 89.6375C510.171 89.6375 513.736 90.102 513.736 95.3267V106.705H513.506C511.206 106.705 508.791 106.821 506.376 106.938ZM507.641 98.5777C504.536 98.5777 502.581 99.0422 502.581 101.364C502.581 104.035 505.111 104.267 507.411 104.267C508.331 104.267 509.826 104.151 510.286 104.151V98.6939L507.641 98.5777ZM580.205 114.136V106.821C579.286 106.938 578.365 107.054 577.445 107.054C575.95 107.054 574.456 106.705 573.075 106.241C570.316 105.08 568.59 102.061 568.59 98.2295C568.59 96.2557 569.05 92.7724 572.155 90.9147C573.996 89.8697 576.18 89.4053 578.365 89.6375C579.4 89.6375 580.665 89.7537 581.93 89.7537L584 89.8697V112.511L580.205 114.136ZM578.02 92.424C574.225 92.424 572.386 94.3979 572.386 98.1134C572.386 102.99 575.261 104.035 577.56 104.035C578.481 104.035 579.4 103.919 580.205 103.803V92.424H578.02Z" fill="#909090"/>
</g>
<path d="M722.753 86.6575C722.843 86.3422 722.934 86.0039 724.219 86.0039C728.21 86.0039 728.975 88.7764 728.975 91.0538C728.975 92.4286 728.231 99.372 721.13 99.372C720.071 99.372 719.529 99.2372 719.529 98.4931C719.529 98.1322 719.823 97.1402 720.025 96.3962L722.753 86.6575ZM718.629 85.6875C719.778 85.7777 720.364 85.8907 720.364 86.6575C720.364 87.1089 720.184 87.8072 720.116 88.0552L717.344 98.0201C716.961 99.4177 716.623 99.4851 715.518 99.6875V100.049H721.221C727.849 100.049 731.479 95.8775 731.479 91.3246C731.479 88.9578 730.081 85.3273 724.897 85.3273H718.63V85.6875H718.629ZM736.144 97.7264C735.265 99.0567 734.273 100.297 733.01 100.297C731.951 100.297 731.951 99.3046 731.951 98.8989C731.951 97.8396 733.732 92.248 733.732 91.6172C733.732 91.1441 733.551 91.0309 732.311 91.0309V90.6699C733.168 90.6252 735.039 90.2641 735.918 90.1065L735.985 90.151L734.001 97.4099C733.911 97.7254 733.64 98.627 733.64 98.8978C733.64 99.0556 733.798 99.236 734.001 99.236C734.272 99.236 734.926 98.7848 735.85 97.4775L736.144 97.7264ZM735.694 87.6941C735.13 87.6941 734.611 87.3102 734.611 86.5217C734.611 85.7331 735.13 85.3046 735.671 85.3046C736.415 85.3046 736.798 86.0485 736.798 86.5444C736.798 86.9947 736.437 87.6941 735.694 87.6941ZM746.672 97.7036C745.545 99.2143 744.756 100.251 743.539 100.251C742.501 100.251 742.457 99.5744 742.457 98.9207C742.457 98.3801 744.125 92.8789 744.125 91.9772C744.125 91.5715 743.99 91.256 743.562 91.256C742.479 91.256 741.059 93.1954 740.248 94.457C739.211 96.0123 738.917 96.9825 737.994 100.047H736.304C737.002 97.5002 738.513 92.2252 738.513 91.751C738.513 91.4128 738.288 91.1648 737.07 91.1648V90.8038C738.288 90.5786 739.505 90.3535 740.723 90.1054L740.79 90.1501L739.347 94.8617L739.392 94.9064C740.451 93.2378 742.525 90.1044 744.396 90.1044C745.433 90.1044 745.951 90.6449 745.951 91.5923C745.951 92.5614 744.148 98.1301 744.148 98.8065C744.148 99.1447 744.463 99.1904 744.509 99.1904C744.96 99.1904 745.524 98.4693 746.358 97.4089L746.672 97.7036ZM749.558 94.3667C750.392 92.3601 751.924 90.6252 753.143 90.6252C753.706 90.6252 753.931 91.0538 753.931 91.5268C753.931 91.7075 753.819 94.4125 749.175 95.3597L749.558 94.3667ZM754.201 97.5906C753.074 98.5151 752.127 99.2817 750.91 99.2817C749.962 99.2817 748.791 98.763 748.791 97.2294C748.791 96.7781 748.904 96.3278 749.016 95.8546L749.647 95.7644C753.299 95.2456 755.418 93.4194 755.418 91.6389C755.418 90.647 754.719 90.1054 753.569 90.1054C750.391 90.1054 746.829 93.8927 746.829 97.1164C746.829 98.5369 747.55 100.294 749.918 100.294C752.173 100.294 754.224 98.2204 754.472 97.8593L754.201 97.5906ZM755.577 100.047L757.403 93.4651C757.628 92.6309 757.763 91.8652 757.763 91.6618C757.763 91.3464 757.651 90.9864 756.952 90.9864C756.704 90.9864 756.456 91.0538 756.208 91.0985V90.7156C757.357 90.5578 758.688 90.2641 759.702 90.1065L759.77 90.151L758.666 94.6375L758.71 94.6822L758.891 94.2309C759.635 92.743 761.349 90.1054 762.768 90.1054C763.287 90.1054 763.85 90.4436 763.85 91.2094C763.85 92.3819 763.039 92.3818 762.791 92.3818C761.822 92.3818 762.16 91.5706 761.619 91.5706C760.92 91.5706 759.567 94.0731 759.387 94.4114C758.53 96.0341 758.214 97.0489 757.29 100.047H755.577ZM762.7 96.7564C762.858 97.7483 763.219 99.8223 765.045 99.8223C766.306 99.8223 766.668 98.7401 766.668 97.9962C766.668 96.5083 763.985 94.3439 763.985 92.6081C763.985 91.9098 764.301 90.1054 766.69 90.1054C767.705 90.1054 768.155 90.4893 768.832 90.4893C769.216 90.4893 769.351 90.2641 769.463 90.0827H769.778L769.327 93.2172H768.966C768.854 91.9315 768.312 90.6243 766.847 90.6243C766.351 90.6243 765.63 90.8265 765.63 91.9315C765.63 93.352 768.379 95.3586 768.379 97.2741C768.379 99.731 766.283 100.296 765.021 100.296C764.344 100.296 763.443 99.867 762.789 99.867C762.474 99.867 762.383 100.092 762.249 100.341H761.887L762.339 96.7564H762.7ZM788.422 89.4973C788.378 88.8665 788.174 85.8451 784.951 85.8451C780.442 85.8451 778.142 91.3007 778.142 94.6148C778.142 97.5688 779.382 99.4394 782.065 99.4394C784.612 99.4394 786.191 97.8385 787.273 96.7791L787.656 97.0946C786.821 98.0865 784.815 100.453 781.524 100.453C778.908 100.453 775.618 98.8751 775.618 94.3667C775.618 90.0162 779.607 85.0338 784.77 85.0338C786.393 85.0338 787.769 85.5743 788.287 85.5743C788.94 85.5743 789.075 85.3035 789.188 85.0783H789.661L788.827 89.5649L788.422 89.4973ZM792.57 97.4775C791.42 99.2133 790.54 100.296 789.143 100.296C788.151 100.296 788.06 99.5288 788.06 98.8978C788.06 98.4236 791.33 86.6565 791.33 86.1833C791.33 85.5981 790.382 85.5981 789.796 85.6199V85.2589C790.969 85.1239 792.141 84.9207 793.313 84.6509L793.426 84.763L790.021 97.8157C789.977 98.0191 789.796 98.627 789.796 98.8751C789.796 99.0099 789.796 99.3264 790.135 99.3264C790.698 99.3264 791.172 98.6956 792.276 97.2741L792.57 97.4775ZM802.985 97.6133C801.565 99.6646 800.979 100.251 799.852 100.251C798.837 100.251 798.792 99.4167 798.792 99.0785C798.792 98.6727 799.244 96.7791 799.761 94.9302H799.694C798.16 97.4775 796.494 100.296 794.463 100.296C793.652 100.296 793.223 99.9572 793.223 98.9652C793.223 97.9735 794.937 92.2915 794.937 91.6836C794.937 91.0299 794.508 91.0299 793.584 91.0299V90.7156C794.723 90.578 795.852 90.3746 796.966 90.1065L797.034 90.151L794.981 98.3344C794.913 98.627 794.981 99.1002 795.455 99.1002C796.424 99.1002 797.845 96.9815 798.611 95.8089C799.716 94.1406 800.213 92.7201 801.092 90.3078H802.76L800.979 97.0489C800.845 97.5002 800.55 98.4922 800.55 98.8304C800.55 98.9425 800.573 99.1915 800.821 99.1915C801.25 99.1915 801.881 98.4018 802.671 97.4099L802.985 97.6133ZM811.168 93.1268C811.168 95.0204 809.027 99.7777 805.937 99.7777C804.879 99.7777 804.879 99.1915 804.879 99.0338C804.879 96.667 807.044 91.2104 809.523 91.2104C810.944 91.2104 811.168 92.4286 811.168 93.1268ZM804.902 85.5525C806.208 85.5754 806.366 85.6875 806.366 86.2062C806.366 86.5217 806.165 87.0851 806.006 87.7168L802.94 99.011V99.1012C802.94 99.5972 804.676 100.297 805.871 100.297C809.321 100.297 813.085 96.3962 813.085 92.8343C813.085 91.1886 811.981 90.1065 810.403 90.1065C808.374 90.1065 806.953 92.2035 806.21 93.3749L806.165 93.353C806.932 90.8048 807.968 86.6119 808.465 84.7639L808.352 84.6519C807.179 84.877 806.031 85.0347 804.903 85.1707V85.5525H804.902ZM715.525 117.254C716.63 117.05 716.969 116.983 717.351 115.585L720.124 105.62C720.259 105.169 720.372 104.628 720.372 104.223C720.372 103.434 719.764 103.367 718.794 103.254V102.892H724.362V103.254C723.258 103.457 722.897 103.502 722.513 104.922L719.741 114.909C719.606 115.36 719.493 115.81 719.493 116.352C719.493 117.073 720.056 117.142 721.026 117.254V117.615H715.525V117.254Z" fill="#909090"/>
<path d="M731.869 115.27C730.741 116.781 729.953 117.819 728.735 117.819C727.698 117.819 727.653 117.142 727.653 116.488C727.653 115.948 729.321 110.447 729.321 109.545C729.321 109.139 729.186 108.824 728.758 108.824C727.675 108.824 726.255 110.763 725.444 112.025C724.406 113.58 724.113 114.549 723.189 117.615H721.499C722.197 115.068 723.708 109.792 723.708 109.319C723.708 108.981 723.482 108.733 722.265 108.733V108.372C723.482 108.146 724.7 107.92 725.918 107.672L725.985 107.718L724.543 112.429L724.587 112.475C725.647 110.807 727.721 107.673 729.592 107.673C730.629 107.673 731.148 108.215 731.148 109.162C731.148 110.131 729.345 115.7 729.345 116.377C729.345 116.715 729.66 116.759 729.706 116.759C730.157 116.759 730.721 116.038 731.554 114.979L731.869 115.27ZM737.888 108.687H735.995L734.011 116.194C733.988 116.261 733.988 116.306 733.988 116.374C733.988 116.577 734.1 116.757 734.349 116.757C734.8 116.757 735.589 115.698 736.152 114.977L736.445 115.134C735.295 116.87 734.416 117.862 733.244 117.862C732.793 117.862 732.162 117.637 732.162 116.961C732.162 116.622 732.59 115.247 732.681 114.887L734.303 108.687H732.635C732.613 108.552 732.613 108.439 732.681 108.326C732.815 108.122 733.446 107.965 733.83 107.762C734.574 107.378 735.656 106.365 736.287 105.575C736.378 105.463 736.468 105.26 736.67 105.305C736.828 105.26 736.874 105.463 736.828 105.644L736.197 107.966H738L737.888 108.687ZM739.894 111.933C740.728 109.927 742.262 108.191 743.479 108.191C744.042 108.191 744.268 108.619 744.268 109.093C744.268 109.273 744.155 111.978 739.512 112.925L739.894 111.933ZM744.538 115.157C743.411 116.082 742.464 116.847 741.247 116.847C740.3 116.847 739.128 116.329 739.128 114.796C739.128 114.345 739.24 113.895 739.353 113.421L739.984 113.331C743.636 112.812 745.755 110.986 745.755 109.205C745.755 108.213 745.056 107.671 743.906 107.671C740.728 107.671 737.165 111.458 737.165 114.682C737.165 116.102 737.886 117.86 740.254 117.86C742.509 117.86 744.56 115.786 744.808 115.426L744.538 115.157ZM746.364 117.614L748.19 111.032C748.416 110.198 748.551 109.431 748.551 109.229C748.551 108.913 748.438 108.552 747.74 108.552C747.492 108.552 747.244 108.619 746.996 108.665V108.281C748.146 108.123 749.476 107.83 750.491 107.672L750.558 107.718L749.454 112.204L749.499 112.249L749.679 111.798C750.423 110.31 752.136 107.671 753.557 107.671C754.076 107.671 754.639 108.009 754.639 108.776C754.639 109.949 753.828 109.949 753.58 109.949C752.61 109.949 752.949 109.137 752.408 109.137C751.709 109.137 750.356 111.64 750.176 111.978C749.319 113.601 749.004 114.616 748.079 117.614H746.364Z" fill="#909090"/>
<path d="M763.677 115.27C762.551 116.781 761.761 117.818 760.544 117.818C759.506 117.818 759.462 117.142 759.462 116.488C759.462 115.947 761.13 110.446 761.13 109.544C761.13 109.139 760.995 108.823 760.567 108.823C759.486 108.823 758.064 110.763 757.253 112.024C756.216 113.58 755.923 114.549 754.998 117.615H753.308C754.007 115.068 755.517 109.791 755.517 109.318C755.517 108.98 755.292 108.732 754.074 108.732V108.371C755.291 108.146 756.509 107.919 757.726 107.671L757.793 107.717L756.35 112.429L756.395 112.474C757.454 110.806 759.528 107.673 761.4 107.673C762.438 107.673 762.955 108.214 762.955 109.161C762.955 110.131 761.152 115.699 761.152 116.376C761.152 116.714 761.467 116.759 761.513 116.759C761.964 116.759 762.528 116.038 763.362 114.978L763.677 115.27Z" fill="#909090"/>
<path d="M765.413 115.157C765.413 113.127 767.443 108.169 770.081 108.169C770.734 108.169 771.366 108.597 771.366 109.679C771.366 111.888 769.157 116.758 766.766 116.758C766.157 116.758 765.413 116.352 765.413 115.157ZM773.597 115.134C772.582 116.126 772.131 116.69 771.793 116.69C771.613 116.69 771.478 116.555 771.478 116.396C771.478 115.698 773.552 108.01 773.62 107.74L773.462 107.673L772.087 107.83L772.02 107.898L771.795 108.891H771.75C771.682 108.259 770.939 107.673 769.969 107.673C766.971 107.673 763.522 111.888 763.522 115.202C763.522 115.856 763.589 117.862 765.844 117.862C767.197 117.862 768.391 117.185 770.262 114.435L770.307 114.48C769.946 115.855 769.834 116.351 769.834 116.87C769.834 117.252 769.834 117.839 770.781 117.839C771.75 117.839 772.517 117.027 773.87 115.359L773.597 115.134ZM780.292 108.686H778.399L776.415 116.193C776.392 116.26 776.392 116.305 776.392 116.374C776.392 116.576 776.505 116.756 776.753 116.756C777.205 116.756 777.993 115.697 778.556 114.976L778.849 115.134C777.699 116.87 776.821 117.862 775.648 117.862C775.197 117.862 774.566 117.636 774.566 116.96C774.566 116.622 774.994 115.247 775.085 114.886L776.707 108.686H775.039C775.017 108.551 775.017 108.438 775.085 108.325C775.22 108.122 775.85 107.964 776.234 107.762C776.978 107.378 778.061 106.364 778.691 105.574C778.782 105.462 778.872 105.259 779.075 105.305C779.233 105.259 779.278 105.462 779.233 105.643L778.602 107.965H780.405L780.292 108.686ZM784.621 115.292C783.741 116.623 782.75 117.863 781.488 117.863C780.428 117.863 780.428 116.871 780.428 116.465C780.428 115.406 782.209 109.815 782.209 109.183C782.209 108.709 782.028 108.597 780.788 108.597V108.236C781.644 108.191 783.515 107.83 784.395 107.673L784.462 107.718L782.478 114.977C782.388 115.292 782.117 116.194 782.117 116.465C782.117 116.623 782.275 116.803 782.478 116.803C782.749 116.803 783.403 116.352 784.326 115.044L784.621 115.292ZM784.17 105.26C783.606 105.26 783.088 104.877 783.088 104.088C783.088 103.299 783.606 102.871 784.147 102.871C784.891 102.871 785.274 103.614 785.274 104.11C785.275 104.561 784.914 105.26 784.17 105.26ZM791.993 108.146C793.074 108.146 793.571 109.138 793.571 110.31C793.571 112.722 791.791 117.388 789.221 117.388C788.094 117.388 787.417 116.577 787.417 115.291C787.416 112.632 789.468 108.146 791.993 108.146ZM792.151 107.671C788.86 107.671 785.523 111.302 785.523 114.615C785.523 116.486 786.537 117.86 788.927 117.86C792.376 117.86 795.465 113.781 795.465 111.007C795.465 109.52 794.766 107.671 792.151 107.671Z" fill="#909090"/>
<path d="M805.294 115.27C804.166 116.781 803.377 117.818 802.16 117.818C801.123 117.818 801.077 117.142 801.077 116.488C801.077 115.948 802.747 110.446 802.747 109.545C802.747 109.139 802.611 108.824 802.182 108.824C801.102 108.824 799.681 110.763 798.869 112.025C797.831 113.58 797.539 114.549 796.615 117.615H794.924C795.624 115.068 797.134 109.792 797.134 109.319C797.134 108.98 796.908 108.732 795.69 108.732V108.371C796.906 108.146 798.126 107.92 799.342 107.672L799.41 107.718L797.966 112.429L798.011 112.475C799.071 110.807 801.145 107.673 803.016 107.673C804.053 107.673 804.571 108.215 804.571 109.162C804.571 110.131 802.768 115.7 802.768 116.376C802.768 116.714 803.084 116.759 803.129 116.759C803.581 116.759 804.144 116.038 804.979 114.979L805.294 115.27ZM807.481 115.157C807.481 113.128 809.51 108.169 812.147 108.169C812.8 108.169 813.432 108.598 813.432 109.68C813.432 111.889 811.223 116.758 808.832 116.758C808.224 116.758 807.481 116.352 807.481 115.157ZM815.663 115.134C814.648 116.126 814.197 116.691 813.86 116.691C813.679 116.691 813.545 116.556 813.545 116.397C813.545 115.699 815.619 108.01 815.685 107.74L815.529 107.673L814.153 107.831L814.085 107.898L813.86 108.891H813.816C813.748 108.259 813.003 107.673 812.035 107.673C809.035 107.673 805.587 111.889 805.587 115.203C805.587 115.856 805.655 117.862 807.91 117.862C809.261 117.862 810.456 117.186 812.327 114.436L812.373 114.481C812.011 115.855 811.898 116.351 811.898 116.87C811.898 117.253 811.898 117.839 812.845 117.839C813.816 117.839 814.581 117.028 815.934 115.359L815.663 115.134ZM820.781 115.044C819.631 116.78 818.752 117.862 817.355 117.862C816.363 117.862 816.273 117.096 816.273 116.464C816.273 115.991 819.54 104.223 819.54 103.75C819.54 103.164 818.594 103.164 818.006 103.186V102.825C819.19 102.688 820.365 102.485 821.524 102.216L821.637 102.329L818.232 115.382C818.187 115.585 818.006 116.194 818.006 116.442C818.006 116.577 818.006 116.893 818.345 116.893C818.908 116.893 819.382 116.262 820.487 114.842L820.781 115.044ZM823.942 102.725H824.174C824.389 102.725 824.563 102.832 824.563 103.153C824.563 103.452 824.456 103.666 824.179 103.666H823.942V102.725ZM823.311 102.702C823.587 102.73 823.582 102.725 823.582 102.973V104.319C823.582 104.561 823.587 104.561 823.311 104.59V104.674H824.213V104.59C823.932 104.562 823.942 104.562 823.942 104.319V103.768H824.206C824.561 104.292 824.703 104.674 824.884 104.674H825.239V104.623C825.131 104.545 824.963 104.354 824.816 104.15L824.494 103.71C824.748 103.626 824.939 103.412 824.939 103.125C824.939 102.776 824.629 102.618 824.297 102.618H823.31V102.702H823.311ZM826.118 103.677C826.118 102.612 825.29 101.744 824.218 101.744C823.965 101.744 823.713 101.793 823.479 101.89C823.245 101.987 823.032 102.13 822.853 102.309C822.676 102.489 822.534 102.703 822.439 102.938C822.342 103.172 822.295 103.424 822.297 103.677C822.297 104.742 823.137 105.599 824.218 105.599C825.29 105.599 826.118 104.742 826.118 103.677ZM825.808 103.677C825.808 104.573 825.103 105.362 824.218 105.362C823.316 105.362 822.606 104.573 822.606 103.677C822.606 102.781 823.311 101.981 824.218 101.981C825.11 101.981 825.808 102.776 825.808 103.677Z" fill="#909090"/>
<path d="M687.515 123.556C700.411 123.619 710.986 113.043 710.896 100.175C710.985 86.9551 700.411 76.3801 687.515 76.3843H661.674C648.623 76.3812 638.048 86.9551 637.882 100.175C638.048 113.043 648.623 123.618 661.673 123.556H687.515Z" fill="#909090"/>
<path d="M639.523 100.175C639.652 87.8415 649.508 77.9844 661.674 78.026C673.826 77.9844 683.683 87.8415 683.823 100.176C683.683 112.159 673.826 122.016 661.674 121.916C649.508 122.016 639.652 112.158 639.523 100.175Z" fill="#EFF6FE"/>
<path d="M656.751 87.0493C651.653 89.3496 647.828 94.2677 647.727 100.175C647.828 105.86 651.47 110.867 656.751 112.89V87.0493ZM666.595 112.891C671.863 110.868 675.504 105.86 675.619 100.176C675.504 94.1413 671.862 89.1329 666.595 87.0503V112.891Z" fill="#909090"/>
<path fill-rule="evenodd" clip-rule="evenodd" d="M1031.98 134.558H1033.21V128.196H1028.69V129.53H1031.67V130.454C1031.67 132.404 1030.44 133.533 1028.49 133.533C1026.23 133.533 1024.79 131.583 1024.79 127.99C1024.79 124.503 1026.13 122.553 1028.49 122.553C1030.03 122.553 1031.05 123.475 1031.57 125.425L1033 125.117C1032.28 122.553 1030.85 121.321 1028.49 121.321C1025.31 121.321 1023.36 123.783 1023.36 128.094C1023.36 132.301 1025.31 134.763 1028.49 134.763C1029.93 134.763 1031.05 134.251 1031.87 133.122L1031.98 134.558ZM1036.7 134.558H1038.03V129.325C1038.54 127.376 1039.57 126.348 1040.9 126.348H1041.01V125.015H1040.7C1039.47 125.015 1038.65 125.732 1038.03 127.273V125.117H1036.7V134.558ZM1042.45 129.838C1042.45 133.019 1043.88 134.762 1046.34 134.762C1048.81 134.762 1050.24 133.019 1050.24 129.838C1050.24 126.657 1048.81 124.911 1046.34 124.911C1043.88 124.911 1042.45 126.656 1042.45 129.838ZM1043.78 129.838C1043.78 127.376 1044.7 126.04 1046.34 126.04C1047.99 126.04 1048.91 127.376 1048.91 129.838C1048.91 132.3 1047.99 133.633 1046.34 133.633C1044.7 133.633 1043.78 132.3 1043.78 129.838ZM1059.78 125.116H1058.55V132.198C1057.63 133.121 1056.81 133.633 1055.89 133.633C1054.76 133.633 1054.35 133.019 1054.35 131.684V125.116H1053.01V132.096C1053.01 133.841 1053.94 134.762 1055.48 134.762C1056.61 134.762 1057.63 134.25 1058.66 133.121V134.558H1059.78V125.116ZM1063.58 138.047H1064.82V133.532C1065.43 134.352 1066.25 134.762 1067.28 134.762C1069.84 134.762 1071.18 133.019 1071.18 129.942C1071.18 126.76 1069.74 124.911 1067.28 124.911C1066.15 124.911 1065.43 125.424 1064.82 126.245L1064.51 125.116H1063.58V138.047ZM1064.82 132.198V127.476C1065.43 126.552 1066.25 126.039 1067.28 126.039C1069.02 126.039 1069.84 127.375 1069.84 129.941C1069.84 132.403 1068.92 133.633 1067.38 133.633C1066.35 133.633 1065.53 133.223 1064.82 132.198ZM888.824 121.423H891.902C893.646 121.423 894.981 121.627 896.007 122.448C897.444 123.577 898.366 125.423 898.366 127.989C898.366 132.299 896.108 134.557 891.594 134.557H888.824V121.423ZM890.261 122.653V133.224H891.39C893.032 133.224 894.263 133.121 895.187 132.3C896.316 131.479 896.931 129.942 896.931 127.99C896.931 125.836 896.316 124.399 895.187 123.474C894.161 122.757 893.032 122.653 891.595 122.653H890.261ZM908.321 132.504C907.499 133.941 906.267 134.661 904.524 134.661C902.061 134.661 900.727 133.019 900.727 129.734C900.727 126.656 902.163 124.911 904.422 124.911C906.679 124.911 908.116 126.553 908.116 129.633V130.043H902.062V130.351C902.062 132.405 903.088 133.533 904.628 133.533C905.757 133.533 906.783 133.02 907.296 131.891L908.321 132.504ZM906.679 128.913C906.679 127.067 905.756 126.039 904.422 126.039C902.985 126.039 902.164 127.066 902.061 128.913H906.679ZM917.557 134.558H916.428V133.121C915.402 134.148 914.375 134.661 913.247 134.661C911.708 134.661 910.784 133.736 910.784 132.095V125.014H912.118V131.582C912.118 132.915 912.529 133.532 913.657 133.532C914.582 133.532 915.402 133.121 916.326 132.095V125.014H917.557V134.558ZM925.049 134.454C924.535 134.661 924.125 134.661 923.612 134.661C922.175 134.661 921.457 134.044 921.457 132.813V126.143H920.02V125.014H921.457V121.936H922.791V125.014H924.946V126.143H922.791V132.3C922.791 133.224 922.996 133.533 924.125 133.533C924.432 133.533 924.74 133.429 925.049 133.429V134.454ZM927.305 132.096C928.127 133.121 928.948 133.633 930.076 133.633C931.204 133.633 931.923 132.916 931.923 131.992C931.923 130.761 930.896 130.658 929.05 130.042C927.407 129.632 926.586 128.709 926.586 127.476C926.586 125.938 927.818 124.91 929.459 124.91C930.896 124.91 932.025 125.423 932.949 126.45L932.025 127.375C931.307 126.45 930.486 125.938 929.562 125.938C928.638 125.938 928.023 126.552 928.023 127.375C928.023 127.784 928.126 128.092 928.433 128.297C929.05 128.81 929.973 128.913 930.999 129.221C932.538 129.734 933.257 130.555 933.257 131.89C933.257 133.532 932.025 134.661 929.87 134.661C928.433 134.661 927.1 134.044 926.279 132.915L927.305 132.096ZM939.004 134.661C936.541 134.661 935.105 133.019 935.105 129.734C935.105 126.656 936.645 124.911 939.004 124.911C940.647 124.911 941.878 125.836 942.391 127.376L941.056 127.888C940.749 126.656 939.929 126.04 938.901 126.04C937.363 126.04 936.541 127.273 936.541 129.735C936.541 132.301 937.363 133.533 939.004 133.533C940.03 133.533 940.851 132.916 941.467 131.685L942.596 132.301C941.775 133.941 940.646 134.661 939.004 134.661ZM945.161 121.423H946.393V126.451C947.522 125.322 948.445 124.911 949.677 124.911C951.318 124.911 952.243 125.836 952.243 127.477V134.558H950.908V127.99C950.908 126.657 950.497 126.04 949.267 126.04C948.343 126.04 947.317 126.451 946.393 127.477V134.558H945.161V121.423ZM962.606 132.504C961.784 133.941 960.554 134.661 958.81 134.661C956.346 134.661 954.91 133.019 954.91 129.734C954.91 126.656 956.449 124.911 958.707 124.911C960.965 124.911 962.402 126.553 962.402 129.633V130.043H956.347V130.351C956.347 132.405 957.373 133.533 958.913 133.533C960.042 133.533 961.068 133.02 961.582 131.891L962.606 132.504ZM960.965 128.913C960.965 127.067 960.041 126.039 958.707 126.039C957.27 126.039 956.449 127.066 956.346 128.913H960.965ZM971.534 121.423H975.125C978.512 121.423 980.154 122.345 980.154 124.706C980.154 126.143 979.436 127.066 977.998 127.58C979.538 128.196 980.564 129.325 980.564 130.967C980.564 133.325 978.819 134.558 975.535 134.558H971.533V121.423H971.534ZM972.97 122.552V127.067H975.742C977.691 127.067 978.718 126.245 978.718 124.707C978.718 123.27 977.589 122.553 975.331 122.553H972.97V122.552ZM972.97 128.297V133.325H975.639C977.998 133.325 979.026 132.608 979.026 130.863C979.026 129.118 977.897 128.297 975.639 128.297H972.97ZM984.464 121.628H985.901V123.27H984.464V121.628ZM987.337 121.628H988.774V123.27H987.337V121.628ZM986.62 124.911C989.082 124.911 990.622 126.657 990.622 129.734C990.622 132.915 989.082 134.661 986.62 134.661C984.155 134.661 982.618 132.915 982.618 129.734C982.617 126.656 984.155 124.911 986.62 124.911ZM986.62 133.633C988.261 133.633 989.186 132.3 989.186 129.838C989.186 127.272 988.261 126.04 986.62 126.04C984.978 126.04 984.054 127.273 984.054 129.735C984.054 132.3 984.978 133.633 986.62 133.633ZM993.289 125.014H994.625V127.168C995.342 125.63 996.162 124.91 997.395 124.91H997.703V126.244H997.599C996.266 126.244 995.239 127.271 994.625 129.22V134.557H993.289V125.014ZM999.753 132.096C1000.47 133.121 1001.39 133.633 1002.42 133.633C1003.65 133.633 1004.37 132.916 1004.37 131.992C1004.37 130.761 1003.35 130.658 1001.5 130.042C999.856 129.632 999.035 128.709 999.035 127.476C999.035 125.938 1000.27 124.91 1001.91 124.91C1003.35 124.91 1004.48 125.423 1005.3 126.45L1004.48 127.375C1003.76 126.45 1002.94 125.938 1002.01 125.938C1000.99 125.938 1000.37 126.552 1000.37 127.375C1000.37 127.784 1000.57 128.092 1000.88 128.297C1001.5 128.81 1002.42 128.913 1003.35 129.221C1004.99 129.734 1005.71 130.555 1005.71 131.89C1005.71 133.532 1004.37 134.661 1002.32 134.661C1000.78 134.661 999.444 134.044 998.727 132.915L999.753 132.096ZM1015.25 132.504C1014.43 133.941 1013.2 134.661 1011.45 134.661C1008.99 134.661 1007.55 133.019 1007.55 129.734C1007.55 126.656 1009.09 124.911 1011.35 124.911C1013.61 124.911 1015.04 126.553 1015.04 129.633V130.043H1008.99V130.351C1008.99 132.405 1010.02 133.533 1011.56 133.533C1012.69 133.533 1013.71 133.02 1014.22 131.891L1015.25 132.504ZM1013.61 128.913C1013.61 127.067 1012.68 126.039 1011.35 126.039C1009.91 126.039 1009.09 127.066 1008.99 128.913H1013.61Z" fill="#909090"/>
<path fill-rule="evenodd" clip-rule="evenodd" d="M908.014 92.7915L888.824 103.669V115.367L918.275 98.5376L908.014 92.7915Z" fill="#909090"/>
<path fill-rule="evenodd" clip-rule="evenodd" d="M938.799 96.8973L930.076 91.8691H909.552L928.537 102.644L938.799 96.8973Z" fill="#909090"/>
<path fill-rule="evenodd" clip-rule="evenodd" d="M969.789 80.8877L930.076 103.567H950.703L979.846 86.8402L969.789 80.8877Z" fill="#909090"/>
<path fill-rule="evenodd" clip-rule="evenodd" d="M1000.57 85.095L991.648 80.0669H971.226L990.211 91.0475L1000.57 85.095Z" fill="#909090"/>
<path fill-rule="evenodd" clip-rule="evenodd" d="M1071.18 58.2094L1012.27 91.8684H991.751L1071.18 46.6133V58.2094Z" fill="#909090"/>
<defs>
<clipPath id="clip0_11_1066">
<rect width="182" height="43" fill="white" transform="translate(248 79)"/>
</clipPath>
<clipPath id="clip1_11_1066">
<rect width="106" height="49" fill="white" transform="translate(478 75)"/>
</clipPath>
</defs>
</svg>
