<svg width="634" height="103" viewBox="0 0 634 103" fill="none" xmlns="http://www.w3.org/2000/svg">
<path d="M100.348 18.125H2.65159C1.18538 18.125 0 19.3122 0 20.7766V82.2246C0 83.689 1.18538 84.8763 2.65159 84.8763H100.348C101.815 84.8763 103 83.689 103 82.2246V20.7766C103 19.3122 101.815 18.125 100.348 18.125ZM7.97484 38.2964H18.9678C20.4505 38.3529 21.645 38.8253 22.0571 40.41L24.4479 51.9082C22.099 45.8938 16.4385 40.8896 7.88365 38.818L7.97484 38.2964ZM21.2766 64.5205L14.9266 42.8263C19.4911 45.7478 23.3792 50.3836 24.7488 53.6096L25.4893 56.2886L32.4337 38.5464H39.9471L28.7809 64.5151L21.2766 64.5205ZM45.4692 64.5389H38.3788L42.8121 38.519H49.9061L45.4692 64.5389ZM57.8079 64.9292C54.6294 64.8963 51.5674 64.2671 49.908 63.5395L50.9055 57.7166L51.8191 58.1305C54.1479 59.1026 55.656 59.4964 58.4955 59.4964C60.5326 59.4964 62.7154 58.6994 62.7355 56.9562C62.7482 55.8162 61.8219 55.003 59.0608 53.7265C56.3692 52.4826 52.8057 50.3964 52.8495 46.6597C52.8878 41.6027 57.8263 38.074 64.8346 38.074C67.581 38.074 69.7822 38.6392 71.1864 39.1663L70.2289 44.8068L69.5889 44.506C68.283 43.9807 66.6035 43.4738 64.282 43.5103C61.5065 43.5103 60.2189 44.6665 60.2189 45.7478C60.2043 46.9661 61.7216 47.7686 64.2018 48.9758C68.2922 50.8323 70.1834 53.0845 70.1578 56.0443C70.1031 61.4423 65.265 64.9292 57.8079 64.9292ZM88.5365 64.5498C88.5365 64.5498 87.8893 61.559 87.6741 60.6508C86.6418 60.6508 79.4056 60.6399 78.5922 60.6399C78.3169 61.342 77.1023 64.5498 77.1023 64.5498H69.6563L80.1842 40.7055C80.9319 39.0113 82.1995 38.5464 83.899 38.5464H89.3773L95.1163 64.5479L88.5365 64.5498Z" fill="#919191"/>
<path d="M84.8765 47.8071L84.3987 45.564C84.0375 46.5433 83.4157 48.1171 83.4559 48.0479C83.4559 48.0479 81.2145 53.8233 80.631 55.3205H86.5197C86.2352 54.0166 84.8765 47.8071 84.8765 47.8071Z" fill="#919191"/>
<path d="M204.448 47.0718C202.518 47.0718 201.04 47.6919 201.04 47.6919L200.631 50.1174C200.631 50.1174 201.851 49.6213 203.698 49.6213C204.747 49.6213 205.513 49.738 205.513 50.5897C205.513 51.1076 205.42 51.2991 205.42 51.2991C205.42 51.2991 204.594 51.2315 204.211 51.2315C201.776 51.2315 199.22 52.2675 199.22 55.4022C199.22 57.8715 200.895 58.4351 201.937 58.4351C203.923 58.4351 204.78 57.1476 204.824 57.1439L204.73 58.2198H207.209L208.314 50.4693C208.312 47.1777 205.444 47.0718 204.448 47.0718ZM203.058 56.077C202.185 56.077 201.957 55.4114 201.957 55.0139C201.957 54.2443 202.374 53.3179 204.437 53.3179C204.918 53.3197 204.969 53.3689 205.05 53.3834C205.104 53.8577 204.754 56.077 203.058 56.077Z" fill="#919191"/>
<path d="M213.398 49.671C213.794 49.671 215.32 49.7968 215.32 49.7968L215.676 47.3129C215.676 47.3129 214.688 47.0923 213.079 47.0923C210.997 47.0923 208.885 47.9239 208.885 50.767C208.885 53.9912 212.408 53.663 212.408 55.0234C212.408 55.9279 211.423 56.0028 210.665 56.0028C209.35 56.0028 208.168 55.5541 208.164 55.5724L207.789 58.036C207.856 58.0544 208.586 58.379 210.947 58.379C211.58 58.379 215.204 58.543 215.204 54.8028C215.204 51.305 211.85 51.9962 211.85 50.5901C211.85 49.8899 212.395 49.671 213.398 49.671Z" fill="#919191"/>
<path d="M219.32 49.9885H220.81L221.169 47.3405H219.765L220.051 45.6992H217.237C217.175 45.7594 215.576 54.956 215.576 56.0721C215.576 57.7335 216.508 58.4703 217.819 58.4575C218.846 58.4503 219.646 58.1658 219.929 58.0874L220.281 55.6947C220.087 55.6947 219.805 55.7786 219.555 55.7786C218.576 55.7786 218.468 55.2552 218.53 54.8704L219.32 49.9885Z" fill="#919191"/>
<path d="M231.113 34.626H226.091C225.416 35.5378 224.782 36.508 224.207 37.4564H233.167C232.545 36.4679 231.857 35.5232 231.113 34.626Z" fill="#919191"/>
<path d="M270.3 66.4631C270.245 66.3811 270.2 66.3189 270.163 66.2806C270.143 66.2624 270.118 66.2423 270.085 66.2333C270.163 66.2278 270.229 66.1987 270.276 66.1495C270.322 66.1002 270.347 66.0418 270.347 65.9744C270.347 65.9269 270.333 65.8813 270.305 65.8393C270.278 65.7975 270.238 65.7664 270.189 65.75C270.143 65.7318 270.065 65.7227 269.957 65.7227H269.64V66.6435H269.789V66.2533H269.875C269.926 66.2533 269.968 66.2642 269.992 66.2861C270.03 66.3172 270.085 66.3883 270.149 66.4995L270.229 66.6455H270.413L270.3 66.4631ZM269.968 66.1311H269.786V65.854H269.957C270.028 65.854 270.076 65.8595 270.103 65.8704C270.132 65.8813 270.15 65.8978 270.167 65.9177C270.182 65.9396 270.189 65.9634 270.189 65.9888C270.189 66.0309 270.174 66.0674 270.143 66.0928C270.112 66.1166 270.052 66.1311 269.968 66.1311Z" fill="#919191"/>
<path d="M234.689 40.2334H222.641C221.871 41.6905 221.36 42.792 221.216 43.0656H235.831C235.501 42.0917 235.122 41.149 234.689 40.2334Z" fill="#919191"/>
<path d="M195.771 44.8306L192.997 53.0551L192.853 44.8306H188.746L186.496 58.2325H189.211L190.924 48.1295L191.175 58.2325H193.114L196.73 48.1295L195.127 58.2325H198.008L200.228 44.8306H195.771Z" fill="#919191"/>
<path d="M250.072 47.0718C248.139 47.0718 246.662 47.6919 246.662 47.6919L246.251 50.1174C246.251 50.1174 247.473 49.6213 249.319 49.6213C250.367 49.6213 251.135 49.738 251.135 50.5897C251.135 51.1076 251.038 51.2991 251.038 51.2991C251.038 51.2991 250.214 51.2315 249.828 51.2315C247.395 51.2315 244.84 52.2675 244.84 55.4022C244.84 57.8715 246.518 58.4351 247.557 58.4351C249.541 58.4351 250.398 57.1476 250.444 57.1439L250.351 58.2198H252.827L253.933 50.4693C253.938 47.1777 251.068 47.0718 250.072 47.0718ZM248.686 56.077C247.811 56.077 247.584 55.4114 247.584 55.0139C247.584 54.2443 248.002 53.3179 250.065 53.3179C250.544 53.3197 250.595 53.3689 250.677 53.3834C250.73 53.8577 250.378 56.077 248.686 56.077Z" fill="#919191"/>
<path d="M270.389 56.9989C270.315 56.8603 270.205 56.7544 270.068 56.6815C269.933 56.6069 269.795 56.5703 269.649 56.5703C269.508 56.5721 269.368 56.6086 269.23 56.6815C269.093 56.7544 268.987 56.8603 268.91 56.9989C268.834 57.1357 268.796 57.278 268.796 57.4255C268.796 57.5733 268.834 57.7138 268.91 57.8486C268.985 57.9837 269.091 58.0912 269.226 58.1678C269.363 58.2426 269.503 58.2809 269.649 58.2809C269.798 58.2809 269.941 58.2426 270.074 58.1678C270.209 58.0912 270.315 57.9837 270.389 57.8486C270.468 57.7138 270.502 57.5733 270.502 57.4255C270.502 57.2743 270.466 57.132 270.389 56.9989ZM270.271 57.7775C270.209 57.8906 270.121 57.9763 270.006 58.0439C269.893 58.1058 269.777 58.1387 269.654 58.1387C269.53 58.1387 269.412 58.1058 269.301 58.0439C269.186 57.98 269.1 57.8924 269.034 57.7775C268.969 57.6626 268.94 57.5459 268.94 57.4238C268.94 57.3016 268.97 57.183 269.038 57.0681C269.102 56.9551 269.188 56.8676 269.304 56.8037C269.421 56.7399 269.536 56.7126 269.654 56.7126C269.773 56.7126 269.89 56.7417 270.001 56.8037C270.118 56.8676 270.203 56.9532 270.267 57.0681C270.331 57.183 270.366 57.3016 270.366 57.4238C270.366 57.5459 270.335 57.6645 270.271 57.7775Z" fill="#919191"/>
<path d="M269.939 57.7154C269.886 57.6298 269.839 57.5696 269.804 57.5331C269.782 57.5129 269.758 57.4965 269.726 57.4856C269.804 57.4801 269.868 57.451 269.915 57.4017C269.961 57.3543 269.988 57.2923 269.988 57.2266C269.988 57.1811 269.974 57.1336 269.944 57.0918C269.915 57.0515 269.877 57.0206 269.831 57.0025C269.786 56.9841 269.706 56.9751 269.598 56.9751H269.277V57.8942H269.427V57.5039H269.512C269.565 57.5039 269.607 57.5149 269.633 57.5348C269.671 57.5677 269.722 57.637 269.789 57.7519L269.868 57.896H270.052L269.939 57.7154ZM269.611 57.3781H269.43V57.099H269.598C269.671 57.099 269.718 57.1045 269.747 57.1137C269.771 57.1264 269.793 57.1391 269.808 57.1629C269.824 57.1866 269.831 57.2067 269.831 57.2376C269.831 57.2778 269.815 57.3124 269.788 57.3378C269.753 57.3689 269.696 57.3781 269.611 57.3781Z" fill="#919191"/>
<path d="M259.635 47.2056C258.375 47.2056 257.44 48.9253 257.44 48.9253L257.691 47.3443H255.069L253.313 58.2533H256.201C257.024 53.592 257.173 49.8116 259.127 50.5029C259.471 48.701 259.803 48.0025 260.177 47.2421C260.177 47.2439 260.002 47.2056 259.635 47.2056Z" fill="#919191"/>
<path d="M266.893 44.8453L266.286 48.6113C266.286 48.6113 265.229 47.1467 263.569 47.1467C260.988 47.1487 258.84 50.258 258.84 53.8287C258.84 56.1356 259.987 58.3951 262.329 58.3951C264.016 58.3951 264.949 57.2188 264.949 57.2188L264.827 58.2237H267.565L269.716 44.8398L266.893 44.8453ZM263.325 55.6597C262.311 55.6597 261.836 54.8098 261.836 53.4749C261.836 51.292 262.816 49.853 264.054 49.853C265.064 49.855 265.584 50.5497 265.584 52.1874C265.584 53.6737 264.849 55.6597 263.325 55.6597Z" fill="#919191"/>
<path d="M277.348 17.7031H179.652C178.185 17.7031 177 18.8904 177 20.3547V81.8028C177 83.2671 178.185 84.4544 179.652 84.4544H277.348C278.815 84.4544 280 83.2671 280 81.8028V20.3547C280 18.8904 278.815 17.7031 277.348 17.7031ZM270.752 66.1741C270.676 66.3127 270.572 66.4184 270.437 66.4933C270.302 66.5679 270.16 66.6062 270.014 66.6062C269.864 66.6062 269.722 66.5679 269.587 66.4933C269.454 66.4184 269.348 66.3127 269.27 66.1741C269.195 66.0409 269.157 65.8986 269.157 65.751C269.157 65.6033 269.195 65.4628 269.271 65.3242C269.346 65.1856 269.456 65.0817 269.591 65.0068C269.727 64.9357 269.866 64.8974 270.012 64.8974C270.156 64.8974 270.295 64.9357 270.43 65.0068C270.566 65.0817 270.674 65.1856 270.749 65.3242C270.825 65.4628 270.862 65.605 270.862 65.751C270.862 65.8968 270.829 66.0446 270.752 66.1741ZM272.663 51.0796C272.667 65.6779 260.839 77.5172 246.239 77.5209C239.411 77.5226 233.185 74.9349 228.495 70.6839C223.804 74.9275 217.591 77.5135 210.774 77.5135C196.183 77.5135 184.34 65.6725 184.34 51.0796C184.34 36.545 196.09 24.7388 210.605 24.6439C210.661 24.6439 210.718 24.6439 210.774 24.6439C217.591 24.6439 223.806 27.2298 228.496 31.4736C233.185 27.2281 239.404 24.6403 246.226 24.6384C260.826 24.6329 272.664 36.4667 272.667 51.0669C272.664 51.0705 272.663 51.0724 272.663 51.0796Z" fill="#919191"/>
<path d="M225.788 68.2153C226.625 69.2403 227.512 70.2177 228.491 71.104C228.513 71.084 228.537 71.0657 228.558 71.0475C228.558 71.0475 228.557 71.0475 228.557 71.0457H228.562C229.525 70.1685 230.424 69.2239 231.247 68.2153H225.788Z" fill="#919191"/>
<path d="M229.388 53.7064C229.388 53.7064 229.758 51.8826 229.758 51.1404C229.758 49.2857 228.836 47.0244 225.746 47.0244C222.916 47.0263 220.821 50.0755 220.821 53.5221C220.821 57.4995 223.445 58.4442 225.683 58.4442C227.747 58.4442 228.655 57.981 228.655 57.981L229.151 55.2675C229.151 55.2675 227.581 55.9603 226.162 55.9603C223.14 55.9603 223.669 53.7064 223.669 53.7064H229.388ZM225.756 49.5502C227.344 49.5502 227.05 51.3356 227.05 51.4779H223.926C223.926 51.2936 224.222 49.5502 225.756 49.5502Z" fill="#919191"/>
<path d="M242.588 47.399C244.019 47.399 245.17 48.2032 245.17 48.2032L245.63 45.2215C245.63 45.2215 243.926 44.5322 242.46 44.5322C239.212 44.5322 236.052 47.3517 236.052 52.6457C236.052 56.1563 237.757 58.4741 241.116 58.4741C242.064 58.4741 243.578 58.0893 243.578 58.0893L244.081 55.0183C244.081 55.0183 242.703 55.7095 241.754 55.7095C239.756 55.7076 238.955 54.183 238.955 52.549C238.955 49.2245 240.673 47.399 242.588 47.399Z" fill="#919191"/>
<path d="M222.259 62.6626C222.717 63.6456 223.25 64.5811 223.821 65.493H233.2C233.769 64.5848 234.281 63.6401 234.739 62.6626H222.259Z" fill="#919191"/>
<path d="M236.001 47.2088C234.741 47.2088 233.807 48.9284 233.807 48.9284L234.06 47.3473H231.44L229.684 58.2563H232.572C233.391 53.597 233.544 49.8147 235.497 50.5059C235.84 48.7023 236.17 48.0038 236.544 47.2416C236.544 47.2416 236.369 47.2051 236.001 47.2088Z" fill="#919191"/>
<path d="M411.69 40.2334H399.641C398.871 41.6905 398.361 42.792 398.216 43.0656H412.831C412.501 42.0917 412.122 41.149 411.69 40.2334Z" fill="#919191"/>
<path d="M393.533 47.2495C392.375 47.2495 391.367 47.3973 389.798 47.7948L389.388 50.1272L389.649 50.0598L390.097 49.9467C390.769 49.768 391.777 49.6604 392.674 49.6604C394.129 49.6604 394.691 49.9156 394.691 50.5996C394.691 50.7892 394.653 50.9314 394.578 51.2725C394.093 51.2214 393.644 51.1922 393.309 51.1922C389.837 51.1922 387.82 52.6676 387.82 55.1842C387.82 56.8583 388.978 58.0127 390.659 58.0127C392.078 58.0127 393.163 57.6132 393.945 56.7617L393.87 57.834H396.484L396.52 57.5532L396.559 57.1975L396.633 56.6722L396.745 56.0158L397.418 52.3356C397.605 51.1831 397.642 50.7946 397.642 50.284C397.642 48.3035 396.223 47.2495 393.533 47.2495ZM391.967 55.817C391.257 55.817 390.847 55.4012 390.847 54.7611C390.847 53.7144 391.744 53.1855 393.499 53.1855C393.723 53.1855 393.872 53.191 394.21 53.2256C394.133 54.7574 393.236 55.817 391.967 55.817Z" fill="#919191"/>
<path d="M383.713 45.1025L380.239 52.9899L380.014 45.1025H375.122L372.692 57.839H375.53L377.398 48.1079L377.921 57.839H380.76L385.055 48.0459L383.188 57.839H386.324L388.79 45.1025H383.713Z" fill="#919191"/>
<path d="M440.748 56.8854C440.746 56.8162 440.709 56.745 440.673 56.7067C440.598 56.6702 440.523 56.6665 440.487 56.6665H440.188V57.3814H440.337V57.1025H440.449L440.562 57.3814H440.748L440.636 57.0714C440.711 57.0404 440.748 56.9639 440.748 56.8854ZM440.523 56.9657C440.487 56.9803 440.449 56.9803 440.449 56.9803H440.336V56.7943H440.414C440.451 56.7943 440.525 56.7943 440.525 56.8107C440.563 56.8252 440.563 56.8545 440.563 56.8818C440.563 56.9127 440.56 56.9493 440.523 56.9657Z" fill="#919191"/>
<path d="M447.305 65.9928C447.302 65.9217 447.267 65.8505 447.229 65.8142C447.154 65.7776 447.079 65.7739 447.041 65.7739H446.744V66.4888H446.893V66.208H447.004L447.118 66.4888H447.305L447.192 66.1771C447.267 66.1497 447.305 66.0731 447.305 65.9928ZM447.079 66.0731C447.041 66.0876 447.004 66.0876 447.004 66.0876H446.892V65.9035H446.966C447.004 65.9035 447.079 65.9035 447.079 65.9181C447.118 65.9326 447.118 65.9637 447.118 65.9893C447.118 66.0219 447.118 66.0548 447.079 66.0731Z" fill="#919191"/>
<path d="M454.348 18.125H356.652C355.185 18.125 354 19.3122 354 20.7766V82.2246C354 83.689 355.185 84.8763 356.652 84.8763H454.348C455.815 84.8763 457 83.689 457 82.2246V20.7766C457 19.3122 455.815 18.125 454.348 18.125ZM447.752 66.596C447.676 66.7346 447.572 66.8403 447.437 66.9151C447.302 66.9898 447.16 67.0281 447.014 67.0281C446.864 67.0281 446.722 66.9898 446.587 66.9151C446.454 66.8403 446.348 66.7346 446.27 66.596C446.195 66.4627 446.157 66.3206 446.157 66.1729C446.157 66.0252 446.195 65.8847 446.271 65.7461C446.346 65.6075 446.456 65.5036 446.591 65.4287C446.727 65.3576 446.866 65.3194 447.012 65.3194C447.156 65.3194 447.295 65.3576 447.43 65.4287C447.566 65.5036 447.674 65.6075 447.749 65.7461C447.825 65.8847 447.862 66.0269 447.862 66.1729C447.862 66.3187 447.829 66.4664 447.752 66.596ZM449.663 51.5015C449.667 66.0998 437.839 77.939 423.239 77.9427C416.411 77.9445 410.185 75.3568 405.495 71.1058C400.804 75.3494 394.591 77.9353 387.774 77.9353C373.183 77.9353 361.34 66.0944 361.34 51.5015C361.34 36.9671 373.09 25.1607 387.605 25.0659C387.661 25.0659 387.718 25.0659 387.774 25.0659C394.591 25.0659 400.806 27.6519 405.496 31.8955C410.185 27.6499 416.404 25.0622 423.226 25.0604C437.826 25.055 449.664 36.8885 449.667 51.4888C449.664 51.4923 449.663 51.4943 449.663 51.5015Z" fill="#919191"/>
<path d="M408.113 34.626H403.091C402.416 35.5378 401.782 36.508 401.207 37.4564H410.167C409.545 36.4679 408.857 35.5232 408.113 34.626Z" fill="#919191"/>
<path d="M413.668 49.6944C414.305 49.6944 415.125 49.7492 415.948 49.8459L416.396 47.4513C415.574 47.3383 414.341 47.2471 413.593 47.2471C410.085 47.2471 408.848 48.841 408.85 50.7467C408.85 52.0525 409.598 52.9552 411.277 53.6336C412.545 54.1497 412.734 54.3029 412.734 54.777C412.734 55.4188 412.176 55.7106 410.944 55.7106C409.97 55.7106 409.113 55.583 408.102 55.3022L407.656 57.6911L407.805 57.7185L408.365 57.8207C408.551 57.8572 408.85 57.8881 409.224 57.9137C409.97 57.9684 410.528 57.9993 410.94 57.9993C414.303 57.9993 415.835 56.907 415.835 54.5454C415.835 53.1229 415.2 52.2931 413.593 51.6622C412.286 51.1389 412.136 51.0202 412.136 50.5352C412.136 49.979 412.658 49.6944 413.668 49.6944Z" fill="#919191"/>
<path d="M430.034 47.4572C429.882 47.4206 429.769 47.4007 429.769 47.3952C429.658 47.3788 429.545 47.3696 429.432 47.3696C428.422 47.3696 427.676 47.8291 426.705 49.0529L427.004 47.4808H424.165L422.259 57.8393H425.398C426.519 51.5057 427.003 50.3932 428.496 50.3932C428.609 50.3932 428.721 50.4023 428.87 50.4188L429.244 50.4954L430.369 47.5702C430.108 47.4699 430.07 47.4699 430.034 47.4572Z" fill="#919191"/>
<path d="M420.614 49.9995H422.221L422.67 47.4791H421.065L421.513 45.1011H418.413L416.956 53.0084L416.807 53.8273L416.619 54.8466C416.581 55.175 416.544 55.4849 416.544 55.7749C416.544 57.2448 417.403 58.0509 419.01 58.0509C419.719 58.0509 420.392 57.9487 421.251 57.7136L421.661 55.4157C421.441 55.4832 421.178 55.516 420.841 55.516C420.095 55.516 419.756 55.2862 419.756 54.7501C419.756 54.6553 419.756 54.5113 419.794 54.3215L420.614 49.9995Z" fill="#919191"/>
<path d="M440.449 56.2197C440 56.2197 439.626 56.5826 439.626 57.0259C439.626 57.4744 440 57.8373 440.449 57.8373C440.897 57.8373 441.271 57.4744 441.271 57.0259C441.271 56.5844 440.897 56.2197 440.449 56.2197ZM440.449 57.644C440.113 57.644 439.814 57.3687 439.814 57.0259C439.814 56.6866 440.113 56.413 440.449 56.413C440.788 56.413 441.047 56.6866 441.047 57.0259C441.047 57.3687 440.788 57.644 440.449 57.644Z" fill="#919191"/>
<path d="M435.22 47.1851C431.485 47.1851 429.058 49.6744 429.058 53.3417C429.058 55.9697 430.475 58.1179 434.027 58.1179C437.237 58.1179 439.628 56.5878 440.115 53.1449C440.19 52.543 440.19 52.5011 440.19 51.8592C440.19 49.2294 438.472 47.1851 435.22 47.1851ZM436.752 53.0554C436.491 54.6695 435.036 55.594 434.363 55.594C433.241 55.6159 432.57 54.6695 432.57 53.2633C432.57 51.6002 433.54 49.7127 435.147 49.7127C436.416 49.7127 436.863 50.7394 436.863 51.8191C436.863 52.2676 436.827 52.6761 436.752 53.0554Z" fill="#919191"/>
<path d="M407.5 53.5445C407.765 52.494 407.878 51.7498 407.878 50.9839C407.878 48.688 406.233 47.2236 403.658 47.2236C400.52 47.2236 398.205 49.8405 398.205 53.3912C398.204 56.4458 400.035 58.0343 403.545 58.0343C404.628 58.0343 405.673 57.8975 406.72 57.6167L407.241 55.0233C406.122 55.4792 405.113 55.6817 403.992 55.6817C402.199 55.6817 401.265 55.0708 401.265 53.8708C401.265 53.7741 401.265 53.703 401.304 53.5445H407.5ZM403.62 49.5944C404.554 49.5944 405.077 50.0849 405.077 50.9257C405.077 51.0642 405.077 51.2356 405.077 51.4581L401.603 51.4545C401.902 50.2509 402.613 49.5944 403.62 49.5944Z" fill="#919191"/>
<path d="M399.26 62.6641C399.717 63.6451 400.252 64.5807 400.821 65.4945H410.2C410.769 64.5844 411.283 63.6416 411.739 62.6641H399.26Z" fill="#919191"/>
<path d="M402.788 68.21C403.625 69.2367 404.512 70.216 405.491 71.0986C405.513 71.0785 405.536 71.0623 405.558 71.0404H405.562C406.525 70.1631 407.424 69.2184 408.247 68.21H402.788Z" fill="#919191"/>
<path d="M631.348 18.125H533.652C532.185 18.125 531 19.3122 531 20.7766V82.2229C531 83.6872 532.185 84.8763 533.652 84.8763H631.348C632.815 84.8763 634 83.689 634 82.2246V20.7766C634 19.3122 632.815 18.125 631.348 18.125ZM598.076 54.485H609.645V57.2679H601.3V60.5742H608.965V63.3534H601.3V67.4293H610.015V70.2103H598.076V54.485ZM591.616 37.8588C592.045 37.3355 592.297 36.7408 592.579 36.1865C592.888 35.6393 593.072 35.0777 593.225 34.5488C593.371 34.02 593.588 33.5404 593.643 33.0917C593.714 32.6412 593.779 32.2492 593.827 31.9264C593.933 31.2717 593.991 30.898 593.991 30.898C593.991 30.898 594.015 31.2754 594.053 31.9355C594.075 32.2693 594.095 32.6778 594.126 33.1429C594.166 33.6133 594.064 34.1331 594.027 34.7167C593.987 35.3003 593.923 35.9366 593.725 36.5858C593.557 37.2424 593.415 37.9628 593.079 38.6374C592.933 38.9876 592.78 39.3414 592.625 39.7006C592.459 40.0563 592.229 40.3791 592.029 40.7256C591.635 41.4368 591.12 42.0678 590.59 42.7006C590.077 43.3571 589.439 43.8713 588.859 44.4531C588.215 44.9364 587.608 45.4926 586.95 45.8883C586.306 46.3224 585.668 46.7144 585.037 47.039C584.417 47.3982 583.798 47.6499 583.235 47.9198C582.361 48.2902 581.588 48.5782 580.948 48.7862C581.238 49.4426 581.49 50.1265 581.683 50.8578C581.88 51.6109 582.059 52.3806 582.102 53.2596C581.245 53.048 580.525 52.7253 579.827 52.386C579.128 52.0413 578.486 51.651 577.886 51.2316C576.679 50.3946 575.639 49.4153 574.691 48.3631C573.973 47.5643 573.876 46.4244 574.368 45.5346L574.471 45.3577C575.269 43.926 576.228 42.5893 577.405 41.3839C577.987 40.7784 578.63 40.2113 579.345 39.6842C579.712 39.4235 580.087 39.1718 580.477 38.9292C580.881 38.6939 581.309 38.4733 581.778 38.2782C581.825 38.7815 581.834 39.2648 581.809 39.7299C581.778 40.1894 581.732 40.6398 581.678 41.0848C581.546 41.9619 581.348 42.7972 581.083 43.5959C581.054 43.6817 581.019 43.762 580.992 43.8476C581.271 43.8056 581.563 43.7583 581.878 43.7018C582.372 43.5815 582.932 43.4939 583.49 43.3116C584.068 43.1638 584.656 42.9614 585.25 42.7243C585.874 42.5201 586.428 42.1808 587.061 41.9054C587.61 41.5408 588.261 41.2361 588.779 40.7948C589.328 40.3754 589.882 39.9486 590.325 39.4307C590.559 39.1792 590.825 38.9476 591.029 38.6812C591.224 38.4059 591.419 38.1342 591.616 37.8588ZM570.436 39.7973C570.495 39.2138 570.575 38.581 570.794 37.9372C570.982 37.2862 571.144 36.5713 571.5 35.9057C571.658 35.5627 571.819 35.2108 571.985 34.857C572.162 34.5088 572.402 34.1932 572.614 33.8521C573.026 33.1519 573.562 32.5373 574.111 31.9209C574.642 31.2771 575.298 30.7848 575.895 30.2195C576.549 29.7563 577.173 29.2202 577.842 28.8426C578.499 28.4268 579.148 28.0529 579.79 27.7484C580.419 27.4092 581.047 27.1758 581.617 26.9223C582.5 26.5795 583.284 26.3132 583.93 26.1236C583.66 25.4597 583.428 24.7687 583.255 24.0319C583.08 23.2732 582.925 22.4982 582.907 21.6173C583.755 21.8544 584.468 22.2009 585.157 22.5601C585.845 22.9248 586.474 23.3315 587.061 23.7729C588.243 24.6463 589.253 25.6567 590.17 26.7363C590.865 27.5551 590.925 28.6986 590.407 29.5722L590.302 29.7471C589.457 31.155 588.456 32.4608 587.249 33.6315C586.647 34.2205 585.983 34.7695 585.257 35.2747C584.883 35.5209 584.499 35.7615 584.099 35.9932C583.689 36.2174 583.255 36.4236 582.781 36.6059C582.75 36.099 582.755 35.6157 582.792 35.1525C582.839 34.6929 582.898 34.2443 582.967 33.8011C583.126 32.9295 583.348 32.0997 583.636 31.3082C583.667 31.2243 583.702 31.144 583.735 31.0602C583.454 31.093 583.162 31.1313 582.845 31.1788C582.347 31.2845 581.783 31.3574 581.22 31.5216C580.638 31.6529 580.047 31.837 579.443 32.0559C578.813 32.24 578.247 32.5629 577.607 32.82C577.044 33.1683 576.391 33.4546 575.856 33.8795C575.297 34.2844 574.731 34.6929 574.27 35.1981C574.035 35.4424 573.761 35.6649 573.548 35.9276C573.343 36.1955 573.141 36.4637 572.942 36.7263C572.499 37.237 572.229 37.8241 571.93 38.3713C571.6 38.9073 571.403 39.4635 571.232 39.9888C571.069 40.5122 570.84 40.9863 570.77 41.4331C570.686 41.8799 570.612 42.2701 570.551 42.5912C570.429 43.244 570.36 43.6161 570.36 43.6161C570.36 43.6161 570.347 43.2385 570.325 42.5766C570.316 42.241 570.303 41.8343 570.289 41.3674C570.26 40.897 570.38 40.3809 570.436 39.7973ZM560.954 73.6206H558.688V79.7792H557.129V73.6206H554.868V72.2948H560.955L560.954 73.6206ZM558.605 70.2103L554.159 54.4814H557.66C559.675 63.0945 559.876 64.1887 560.16 65.9831H560.204C560.488 64.3401 560.727 62.7407 562.394 54.4814H565.877C567.716 63.1164 567.872 63.9479 568.221 65.9831H568.265C568.527 64.4932 568.788 63.1346 570.829 54.4814H574.159L569.731 70.2103H566.578C564.957 62.5 564.668 60.9662 564.145 57.9427H564.103C563.618 60.9682 563.359 62.1042 561.67 70.2103H558.605ZM566.424 79.7737C566.32 79.4218 566.26 79.037 566.26 78.2636C566.26 77.246 566.197 76.8468 565.038 76.8468H563.425V79.7755H561.889V72.2893H565.675C567.666 72.2893 568.029 73.7629 568.029 74.4084C568.029 75.2327 567.612 75.9404 566.871 76.1921C567.486 76.46 567.821 76.6916 567.821 78.0885C567.821 79.181 567.821 79.4546 568.153 79.5767L568.155 79.7737H566.424ZM574.042 79.7792L573.56 78.2363H570.799L570.28 79.7792H568.631L571.299 72.2948H573.104L575.74 79.7792H574.042ZM575.9 54.4814H579.185V70.2103H575.9V54.4814ZM581.209 79.7792L578.156 74.4432H578.134V79.7792H576.677V72.2948H578.322L581.296 77.505H581.315V72.2948H582.774L582.775 79.7792H581.209ZM587.099 79.9797C584.367 79.9797 583.901 78.4041 583.901 77.4776H585.396C585.407 77.8953 585.617 78.6868 586.984 78.6868C587.721 78.6868 588.547 78.5099 588.547 77.7184C588.547 77.1331 587.986 76.9781 587.19 76.7901L586.39 76.6023C585.179 76.3215 584.014 76.0498 584.014 74.4011C584.014 73.5678 584.459 72.098 586.888 72.098C589.182 72.098 589.795 73.5987 589.806 74.5161H588.31C588.263 74.1842 588.142 73.3908 586.775 73.3908C586.184 73.3908 585.471 73.6079 585.471 74.2862C585.471 74.8717 585.952 74.9957 586.266 75.0686L588.086 75.5173C589.111 75.769 590.048 76.1866 590.048 77.5288C590.048 79.7792 587.754 79.9797 587.099 79.9797ZM588.868 64.0538H585.474V70.2103H582.25V54.4795H590.199C594.385 54.4795 595.154 57.5689 595.154 58.9275C595.154 60.66 594.279 62.148 592.722 62.6733C594.015 63.244 594.715 63.7292 594.715 66.6634C594.715 68.9631 594.715 69.5339 595.417 69.7946V70.2103H591.784C591.565 69.4663 591.434 68.6566 591.434 67.0336C591.434 64.8872 591.301 64.0556 588.868 64.0538ZM596.568 73.6206H592.807V75.3093H596.099V76.6334H592.807V79.781H591.244V72.2967H596.568V73.6206ZM603.301 79.7755H597.62V72.2893H603.124V73.6171H599.152V75.1909H602.799V76.5147H599.152V78.4534H603.301V79.7755ZM610.843 79.7755H609.116C609.012 79.4218 608.952 79.037 608.952 78.2636C608.952 77.246 608.885 76.8468 607.73 76.8468H606.116V79.7755H604.581V72.2893H608.363C610.355 72.2893 610.721 73.7629 610.721 74.4084C610.721 75.2327 610.298 75.9404 609.561 76.1921C610.174 76.46 610.511 76.6916 610.511 78.0885C610.511 79.181 610.511 79.4546 610.841 79.5767H610.843V79.7755Z" fill="#919191"/>
<path d="M589.57 57.2002H585.478V61.4055H589.328C591.038 61.4055 591.872 60.8147 591.872 59.2591C591.872 58.4275 591.502 57.2002 589.57 57.2002Z" fill="#919191"/>
<path d="M608.058 73.5898H606.115V75.5922H607.945C608.761 75.5922 609.156 75.3095 609.156 74.5691C609.156 74.1716 608.98 73.5898 608.058 73.5898Z" fill="#919191"/>
<path d="M572.193 73.9858H572.178L571.217 76.9456H573.127L572.193 73.9858Z" fill="#919191"/>
<path d="M565.371 73.5898H563.423V75.5922H565.254C566.069 75.5922 566.465 75.3114 566.465 74.5691C566.465 74.1716 566.286 73.5898 565.371 73.5898Z" fill="#919191"/>
</svg>
